G04 #@! TF.GenerationSoftware,KiCad,Pcbnew,(5.1.4)-1*
G04 #@! TF.CreationDate,2020-08-22T19:17:11-06:00*
G04 #@! TF.ProjectId,smolPad,736d6f6c-5061-4642-9e6b-696361645f70,rev?*
G04 #@! TF.SameCoordinates,Original*
G04 #@! TF.FileFunction,Legend,Bot*
G04 #@! TF.FilePolarity,Positive*
%FSLAX46Y46*%
G04 Gerber Fmt 4.6, Leading zero omitted, Abs format (unit mm)*
G04 Created by KiCad (PCBNEW (5.1.4)-1) date 2020-08-22 19:17:11*
%MOMM*%
%LPD*%
G04 APERTURE LIST*
%ADD10C,0.381000*%
%ADD11C,0.150000*%
%ADD12C,2.352000*%
%ADD13C,2.352000*%
%ADD14C,4.089800*%
%ADD15C,1.852000*%
%ADD16R,1.854600X1.854600*%
%ADD17C,1.854600*%
%ADD18R,1.702000X1.702000*%
%ADD19C,1.702000*%
%ADD20R,1.302000X1.702000*%
G04 APERTURE END LIST*
D10*
X122400000Y-55800000D02*
X119860000Y-55800000D01*
X122400000Y-53260000D02*
X122400000Y-55800000D01*
D11*
G36*
X134794635Y-59549030D02*
G01*
X134794635Y-59649030D01*
X134894635Y-59649030D01*
X134894635Y-59549030D01*
X134794635Y-59549030D01*
G37*
X134794635Y-59549030D02*
X134794635Y-59649030D01*
X134894635Y-59649030D01*
X134894635Y-59549030D01*
X134794635Y-59549030D01*
G36*
X134994635Y-59149030D02*
G01*
X134994635Y-59949030D01*
X135094635Y-59949030D01*
X135094635Y-59149030D01*
X134994635Y-59149030D01*
G37*
X134994635Y-59149030D02*
X134994635Y-59949030D01*
X135094635Y-59949030D01*
X135094635Y-59149030D01*
X134994635Y-59149030D01*
G36*
X134594635Y-59749030D02*
G01*
X134594635Y-59949030D01*
X134694635Y-59949030D01*
X134694635Y-59749030D01*
X134594635Y-59749030D01*
G37*
X134594635Y-59749030D02*
X134594635Y-59949030D01*
X134694635Y-59949030D01*
X134694635Y-59749030D01*
X134594635Y-59749030D01*
G36*
X134594635Y-59149030D02*
G01*
X134594635Y-59449030D01*
X134694635Y-59449030D01*
X134694635Y-59149030D01*
X134594635Y-59149030D01*
G37*
X134594635Y-59149030D02*
X134594635Y-59449030D01*
X134694635Y-59449030D01*
X134694635Y-59149030D01*
X134594635Y-59149030D01*
G36*
X134594635Y-59149030D02*
G01*
X134594635Y-59249030D01*
X135094635Y-59249030D01*
X135094635Y-59149030D01*
X134594635Y-59149030D01*
G37*
X134594635Y-59149030D02*
X134594635Y-59249030D01*
X135094635Y-59249030D01*
X135094635Y-59149030D01*
X134594635Y-59149030D01*
D10*
X137640000Y-83740000D02*
X137640000Y-50720000D01*
X119860000Y-83740000D02*
X137640000Y-83740000D01*
X119860000Y-50720000D02*
X119860000Y-83740000D01*
X137640000Y-50720000D02*
X119860000Y-50720000D01*
X122400000Y-53260000D02*
X119860000Y-53260000D01*
D11*
X164274500Y-57397500D02*
X164274500Y-62477500D01*
X164274500Y-62477500D02*
X162750500Y-62477500D01*
X162750500Y-62477500D02*
X162750500Y-57397500D01*
X162750500Y-57397500D02*
X164274500Y-57397500D01*
X164274500Y-57397500D02*
X164274500Y-57905500D01*
X164274500Y-62096500D02*
X162750500Y-62096500D01*
X162750500Y-62223500D02*
X164274500Y-62223500D01*
X164274500Y-62350500D02*
X162750500Y-62350500D01*
X162750500Y-61969500D02*
X164274500Y-61969500D01*
X164274500Y-61842500D02*
X162750500Y-61842500D01*
X164274500Y-61715500D02*
X162750500Y-61715500D01*
X183362000Y-61678000D02*
X181838000Y-61678000D01*
X183362000Y-61805000D02*
X181838000Y-61805000D01*
X181838000Y-61932000D02*
X183362000Y-61932000D01*
X183362000Y-62313000D02*
X181838000Y-62313000D01*
X181838000Y-62186000D02*
X183362000Y-62186000D01*
X183362000Y-62059000D02*
X181838000Y-62059000D01*
X183362000Y-57360000D02*
X183362000Y-57868000D01*
X181838000Y-57360000D02*
X183362000Y-57360000D01*
X181838000Y-62440000D02*
X181838000Y-57360000D01*
X183362000Y-62440000D02*
X181838000Y-62440000D01*
X183362000Y-57360000D02*
X183362000Y-62440000D01*
X202374500Y-57460000D02*
X202374500Y-62540000D01*
X202374500Y-62540000D02*
X200850500Y-62540000D01*
X200850500Y-62540000D02*
X200850500Y-57460000D01*
X200850500Y-57460000D02*
X202374500Y-57460000D01*
X202374500Y-57460000D02*
X202374500Y-57968000D01*
X202374500Y-62159000D02*
X200850500Y-62159000D01*
X200850500Y-62286000D02*
X202374500Y-62286000D01*
X202374500Y-62413000D02*
X200850500Y-62413000D01*
X200850500Y-62032000D02*
X202374500Y-62032000D01*
X202374500Y-61905000D02*
X200850500Y-61905000D01*
X202374500Y-61778000D02*
X200850500Y-61778000D01*
X164274500Y-80770500D02*
X162750500Y-80770500D01*
X164274500Y-80897500D02*
X162750500Y-80897500D01*
X162750500Y-81024500D02*
X164274500Y-81024500D01*
X164274500Y-81405500D02*
X162750500Y-81405500D01*
X162750500Y-81278500D02*
X164274500Y-81278500D01*
X164274500Y-81151500D02*
X162750500Y-81151500D01*
X164274500Y-76452500D02*
X164274500Y-76960500D01*
X162750500Y-76452500D02*
X164274500Y-76452500D01*
X162750500Y-81532500D02*
X162750500Y-76452500D01*
X164274500Y-81532500D02*
X162750500Y-81532500D01*
X164274500Y-76452500D02*
X164274500Y-81532500D01*
X183324500Y-76460000D02*
X183324500Y-81540000D01*
X183324500Y-81540000D02*
X181800500Y-81540000D01*
X181800500Y-81540000D02*
X181800500Y-76460000D01*
X181800500Y-76460000D02*
X183324500Y-76460000D01*
X183324500Y-76460000D02*
X183324500Y-76968000D01*
X183324500Y-81159000D02*
X181800500Y-81159000D01*
X181800500Y-81286000D02*
X183324500Y-81286000D01*
X183324500Y-81413000D02*
X181800500Y-81413000D01*
X181800500Y-81032000D02*
X183324500Y-81032000D01*
X183324500Y-80905000D02*
X181800500Y-80905000D01*
X183324500Y-80778000D02*
X181800500Y-80778000D01*
X202374500Y-80770500D02*
X200850500Y-80770500D01*
X202374500Y-80897500D02*
X200850500Y-80897500D01*
X200850500Y-81024500D02*
X202374500Y-81024500D01*
X202374500Y-81405500D02*
X200850500Y-81405500D01*
X200850500Y-81278500D02*
X202374500Y-81278500D01*
X202374500Y-81151500D02*
X200850500Y-81151500D01*
X202374500Y-76452500D02*
X202374500Y-76960500D01*
X200850500Y-76452500D02*
X202374500Y-76452500D01*
X200850500Y-81532500D02*
X200850500Y-76452500D01*
X202374500Y-81532500D02*
X200850500Y-81532500D01*
X202374500Y-76452500D02*
X202374500Y-81532500D01*
X164274500Y-95502500D02*
X164274500Y-100582500D01*
X164274500Y-100582500D02*
X162750500Y-100582500D01*
X162750500Y-100582500D02*
X162750500Y-95502500D01*
X162750500Y-95502500D02*
X164274500Y-95502500D01*
X164274500Y-95502500D02*
X164274500Y-96010500D01*
X164274500Y-100201500D02*
X162750500Y-100201500D01*
X162750500Y-100328500D02*
X164274500Y-100328500D01*
X164274500Y-100455500D02*
X162750500Y-100455500D01*
X162750500Y-100074500D02*
X164274500Y-100074500D01*
X164274500Y-99947500D02*
X162750500Y-99947500D01*
X164274500Y-99820500D02*
X162750500Y-99820500D01*
X183324500Y-99820500D02*
X181800500Y-99820500D01*
X183324500Y-99947500D02*
X181800500Y-99947500D01*
X181800500Y-100074500D02*
X183324500Y-100074500D01*
X183324500Y-100455500D02*
X181800500Y-100455500D01*
X181800500Y-100328500D02*
X183324500Y-100328500D01*
X183324500Y-100201500D02*
X181800500Y-100201500D01*
X183324500Y-95502500D02*
X183324500Y-96010500D01*
X181800500Y-95502500D02*
X183324500Y-95502500D01*
X181800500Y-100582500D02*
X181800500Y-95502500D01*
X183324500Y-100582500D02*
X181800500Y-100582500D01*
X183324500Y-95502500D02*
X183324500Y-100582500D01*
X202374500Y-95502500D02*
X202374500Y-100582500D01*
X202374500Y-100582500D02*
X200850500Y-100582500D01*
X200850500Y-100582500D02*
X200850500Y-95502500D01*
X200850500Y-95502500D02*
X202374500Y-95502500D01*
X202374500Y-95502500D02*
X202374500Y-96010500D01*
X202374500Y-100201500D02*
X200850500Y-100201500D01*
X200850500Y-100328500D02*
X202374500Y-100328500D01*
X202374500Y-100455500D02*
X200850500Y-100455500D01*
X200850500Y-100074500D02*
X202374500Y-100074500D01*
X202374500Y-99947500D02*
X200850500Y-99947500D01*
X202374500Y-99820500D02*
X200850500Y-99820500D01*
X164274500Y-118528000D02*
X162750500Y-118528000D01*
X164274500Y-118655000D02*
X162750500Y-118655000D01*
X162750500Y-118782000D02*
X164274500Y-118782000D01*
X164274500Y-119163000D02*
X162750500Y-119163000D01*
X162750500Y-119036000D02*
X164274500Y-119036000D01*
X164274500Y-118909000D02*
X162750500Y-118909000D01*
X164274500Y-114210000D02*
X164274500Y-114718000D01*
X162750500Y-114210000D02*
X164274500Y-114210000D01*
X162750500Y-119290000D02*
X162750500Y-114210000D01*
X164274500Y-119290000D02*
X162750500Y-119290000D01*
X164274500Y-114210000D02*
X164274500Y-119290000D01*
X183324500Y-114210000D02*
X183324500Y-119290000D01*
X183324500Y-119290000D02*
X181800500Y-119290000D01*
X181800500Y-119290000D02*
X181800500Y-114210000D01*
X181800500Y-114210000D02*
X183324500Y-114210000D01*
X183324500Y-114210000D02*
X183324500Y-114718000D01*
X183324500Y-118909000D02*
X181800500Y-118909000D01*
X181800500Y-119036000D02*
X183324500Y-119036000D01*
X183324500Y-119163000D02*
X181800500Y-119163000D01*
X181800500Y-118782000D02*
X183324500Y-118782000D01*
X183324500Y-118655000D02*
X181800500Y-118655000D01*
X183324500Y-118528000D02*
X181800500Y-118528000D01*
X202374500Y-118578000D02*
X200850500Y-118578000D01*
X202374500Y-118705000D02*
X200850500Y-118705000D01*
X200850500Y-118832000D02*
X202374500Y-118832000D01*
X202374500Y-119213000D02*
X200850500Y-119213000D01*
X200850500Y-119086000D02*
X202374500Y-119086000D01*
X202374500Y-118959000D02*
X200850500Y-118959000D01*
X202374500Y-114260000D02*
X202374500Y-114768000D01*
X200850500Y-114260000D02*
X202374500Y-114260000D01*
X200850500Y-119340000D02*
X200850500Y-114260000D01*
X202374500Y-119340000D02*
X200850500Y-119340000D01*
X202374500Y-114260000D02*
X202374500Y-119340000D01*
X123879476Y-57431904D02*
X123879476Y-56631904D01*
X123689000Y-56631904D01*
X123574714Y-56670000D01*
X123498523Y-56746190D01*
X123460428Y-56822380D01*
X123422333Y-56974761D01*
X123422333Y-57089047D01*
X123460428Y-57241428D01*
X123498523Y-57317619D01*
X123574714Y-57393809D01*
X123689000Y-57431904D01*
X123879476Y-57431904D01*
X123117571Y-56708095D02*
X123079476Y-56670000D01*
X123003285Y-56631904D01*
X122812809Y-56631904D01*
X122736619Y-56670000D01*
X122698523Y-56708095D01*
X122660428Y-56784285D01*
X122660428Y-56860476D01*
X122698523Y-56974761D01*
X123155666Y-57431904D01*
X122660428Y-57431904D01*
X123879476Y-67591904D02*
X123879476Y-66791904D01*
X123689000Y-66791904D01*
X123574714Y-66830000D01*
X123498523Y-66906190D01*
X123460428Y-66982380D01*
X123422333Y-67134761D01*
X123422333Y-67249047D01*
X123460428Y-67401428D01*
X123498523Y-67477619D01*
X123574714Y-67553809D01*
X123689000Y-67591904D01*
X123879476Y-67591904D01*
X122927095Y-66791904D02*
X122850904Y-66791904D01*
X122774714Y-66830000D01*
X122736619Y-66868095D01*
X122698523Y-66944285D01*
X122660428Y-67096666D01*
X122660428Y-67287142D01*
X122698523Y-67439523D01*
X122736619Y-67515714D01*
X122774714Y-67553809D01*
X122850904Y-67591904D01*
X122927095Y-67591904D01*
X123003285Y-67553809D01*
X123041380Y-67515714D01*
X123079476Y-67439523D01*
X123117571Y-67287142D01*
X123117571Y-67096666D01*
X123079476Y-66944285D01*
X123041380Y-66868095D01*
X123003285Y-66830000D01*
X122927095Y-66791904D01*
X123879476Y-65051904D02*
X123879476Y-64251904D01*
X123689000Y-64251904D01*
X123574714Y-64290000D01*
X123498523Y-64366190D01*
X123460428Y-64442380D01*
X123422333Y-64594761D01*
X123422333Y-64709047D01*
X123460428Y-64861428D01*
X123498523Y-64937619D01*
X123574714Y-65013809D01*
X123689000Y-65051904D01*
X123879476Y-65051904D01*
X122660428Y-65051904D02*
X123117571Y-65051904D01*
X122889000Y-65051904D02*
X122889000Y-64251904D01*
X122965190Y-64366190D01*
X123041380Y-64442380D01*
X123117571Y-64480476D01*
X123898523Y-61750000D02*
X123974714Y-61711904D01*
X124089000Y-61711904D01*
X124203285Y-61750000D01*
X124279476Y-61826190D01*
X124317571Y-61902380D01*
X124355666Y-62054761D01*
X124355666Y-62169047D01*
X124317571Y-62321428D01*
X124279476Y-62397619D01*
X124203285Y-62473809D01*
X124089000Y-62511904D01*
X124012809Y-62511904D01*
X123898523Y-62473809D01*
X123860428Y-62435714D01*
X123860428Y-62169047D01*
X124012809Y-62169047D01*
X123517571Y-62511904D02*
X123517571Y-61711904D01*
X123060428Y-62511904D01*
X123060428Y-61711904D01*
X122679476Y-62511904D02*
X122679476Y-61711904D01*
X122489000Y-61711904D01*
X122374714Y-61750000D01*
X122298523Y-61826190D01*
X122260428Y-61902380D01*
X122222333Y-62054761D01*
X122222333Y-62169047D01*
X122260428Y-62321428D01*
X122298523Y-62397619D01*
X122374714Y-62473809D01*
X122489000Y-62511904D01*
X122679476Y-62511904D01*
X123898523Y-59210000D02*
X123974714Y-59171904D01*
X124089000Y-59171904D01*
X124203285Y-59210000D01*
X124279476Y-59286190D01*
X124317571Y-59362380D01*
X124355666Y-59514761D01*
X124355666Y-59629047D01*
X124317571Y-59781428D01*
X124279476Y-59857619D01*
X124203285Y-59933809D01*
X124089000Y-59971904D01*
X124012809Y-59971904D01*
X123898523Y-59933809D01*
X123860428Y-59895714D01*
X123860428Y-59629047D01*
X124012809Y-59629047D01*
X123517571Y-59971904D02*
X123517571Y-59171904D01*
X123060428Y-59971904D01*
X123060428Y-59171904D01*
X122679476Y-59971904D02*
X122679476Y-59171904D01*
X122489000Y-59171904D01*
X122374714Y-59210000D01*
X122298523Y-59286190D01*
X122260428Y-59362380D01*
X122222333Y-59514761D01*
X122222333Y-59629047D01*
X122260428Y-59781428D01*
X122298523Y-59857619D01*
X122374714Y-59933809D01*
X122489000Y-59971904D01*
X122679476Y-59971904D01*
X123879476Y-70131904D02*
X123879476Y-69331904D01*
X123689000Y-69331904D01*
X123574714Y-69370000D01*
X123498523Y-69446190D01*
X123460428Y-69522380D01*
X123422333Y-69674761D01*
X123422333Y-69789047D01*
X123460428Y-69941428D01*
X123498523Y-70017619D01*
X123574714Y-70093809D01*
X123689000Y-70131904D01*
X123879476Y-70131904D01*
X122736619Y-69598571D02*
X122736619Y-70131904D01*
X122927095Y-69293809D02*
X123117571Y-69865238D01*
X122622333Y-69865238D01*
X123422333Y-72595714D02*
X123460428Y-72633809D01*
X123574714Y-72671904D01*
X123650904Y-72671904D01*
X123765190Y-72633809D01*
X123841380Y-72557619D01*
X123879476Y-72481428D01*
X123917571Y-72329047D01*
X123917571Y-72214761D01*
X123879476Y-72062380D01*
X123841380Y-71986190D01*
X123765190Y-71910000D01*
X123650904Y-71871904D01*
X123574714Y-71871904D01*
X123460428Y-71910000D01*
X123422333Y-71948095D01*
X122736619Y-71871904D02*
X122889000Y-71871904D01*
X122965190Y-71910000D01*
X123003285Y-71948095D01*
X123079476Y-72062380D01*
X123117571Y-72214761D01*
X123117571Y-72519523D01*
X123079476Y-72595714D01*
X123041380Y-72633809D01*
X122965190Y-72671904D01*
X122812809Y-72671904D01*
X122736619Y-72633809D01*
X122698523Y-72595714D01*
X122660428Y-72519523D01*
X122660428Y-72329047D01*
X122698523Y-72252857D01*
X122736619Y-72214761D01*
X122812809Y-72176666D01*
X122965190Y-72176666D01*
X123041380Y-72214761D01*
X123079476Y-72252857D01*
X123117571Y-72329047D01*
X123879476Y-75211904D02*
X123879476Y-74411904D01*
X123689000Y-74411904D01*
X123574714Y-74450000D01*
X123498523Y-74526190D01*
X123460428Y-74602380D01*
X123422333Y-74754761D01*
X123422333Y-74869047D01*
X123460428Y-75021428D01*
X123498523Y-75097619D01*
X123574714Y-75173809D01*
X123689000Y-75211904D01*
X123879476Y-75211904D01*
X123155666Y-74411904D02*
X122622333Y-74411904D01*
X122965190Y-75211904D01*
X123841380Y-77332857D02*
X123574714Y-77332857D01*
X123460428Y-77751904D02*
X123841380Y-77751904D01*
X123841380Y-76951904D01*
X123460428Y-76951904D01*
X122774714Y-76951904D02*
X122927095Y-76951904D01*
X123003285Y-76990000D01*
X123041380Y-77028095D01*
X123117571Y-77142380D01*
X123155666Y-77294761D01*
X123155666Y-77599523D01*
X123117571Y-77675714D01*
X123079476Y-77713809D01*
X123003285Y-77751904D01*
X122850904Y-77751904D01*
X122774714Y-77713809D01*
X122736619Y-77675714D01*
X122698523Y-77599523D01*
X122698523Y-77409047D01*
X122736619Y-77332857D01*
X122774714Y-77294761D01*
X122850904Y-77256666D01*
X123003285Y-77256666D01*
X123079476Y-77294761D01*
X123117571Y-77332857D01*
X123155666Y-77409047D01*
X123612809Y-79872857D02*
X123498523Y-79910952D01*
X123460428Y-79949047D01*
X123422333Y-80025238D01*
X123422333Y-80139523D01*
X123460428Y-80215714D01*
X123498523Y-80253809D01*
X123574714Y-80291904D01*
X123879476Y-80291904D01*
X123879476Y-79491904D01*
X123612809Y-79491904D01*
X123536619Y-79530000D01*
X123498523Y-79568095D01*
X123460428Y-79644285D01*
X123460428Y-79720476D01*
X123498523Y-79796666D01*
X123536619Y-79834761D01*
X123612809Y-79872857D01*
X123879476Y-79872857D01*
X122736619Y-79758571D02*
X122736619Y-80291904D01*
X122927095Y-79453809D02*
X123117571Y-80025238D01*
X122622333Y-80025238D01*
X123612809Y-82412857D02*
X123498523Y-82450952D01*
X123460428Y-82489047D01*
X123422333Y-82565238D01*
X123422333Y-82679523D01*
X123460428Y-82755714D01*
X123498523Y-82793809D01*
X123574714Y-82831904D01*
X123879476Y-82831904D01*
X123879476Y-82031904D01*
X123612809Y-82031904D01*
X123536619Y-82070000D01*
X123498523Y-82108095D01*
X123460428Y-82184285D01*
X123460428Y-82260476D01*
X123498523Y-82336666D01*
X123536619Y-82374761D01*
X123612809Y-82412857D01*
X123879476Y-82412857D01*
X122698523Y-82031904D02*
X123079476Y-82031904D01*
X123117571Y-82412857D01*
X123079476Y-82374761D01*
X123003285Y-82336666D01*
X122812809Y-82336666D01*
X122736619Y-82374761D01*
X122698523Y-82412857D01*
X122660428Y-82489047D01*
X122660428Y-82679523D01*
X122698523Y-82755714D01*
X122736619Y-82793809D01*
X122812809Y-82831904D01*
X123003285Y-82831904D01*
X123079476Y-82793809D01*
X123117571Y-82755714D01*
X134534809Y-82412857D02*
X134420523Y-82450952D01*
X134382428Y-82489047D01*
X134344333Y-82565238D01*
X134344333Y-82679523D01*
X134382428Y-82755714D01*
X134420523Y-82793809D01*
X134496714Y-82831904D01*
X134801476Y-82831904D01*
X134801476Y-82031904D01*
X134534809Y-82031904D01*
X134458619Y-82070000D01*
X134420523Y-82108095D01*
X134382428Y-82184285D01*
X134382428Y-82260476D01*
X134420523Y-82336666D01*
X134458619Y-82374761D01*
X134534809Y-82412857D01*
X134801476Y-82412857D01*
X133658619Y-82031904D02*
X133811000Y-82031904D01*
X133887190Y-82070000D01*
X133925285Y-82108095D01*
X134001476Y-82222380D01*
X134039571Y-82374761D01*
X134039571Y-82679523D01*
X134001476Y-82755714D01*
X133963380Y-82793809D01*
X133887190Y-82831904D01*
X133734809Y-82831904D01*
X133658619Y-82793809D01*
X133620523Y-82755714D01*
X133582428Y-82679523D01*
X133582428Y-82489047D01*
X133620523Y-82412857D01*
X133658619Y-82374761D01*
X133734809Y-82336666D01*
X133887190Y-82336666D01*
X133963380Y-82374761D01*
X134001476Y-82412857D01*
X134039571Y-82489047D01*
X134534809Y-77332857D02*
X134420523Y-77370952D01*
X134382428Y-77409047D01*
X134344333Y-77485238D01*
X134344333Y-77599523D01*
X134382428Y-77675714D01*
X134420523Y-77713809D01*
X134496714Y-77751904D01*
X134801476Y-77751904D01*
X134801476Y-76951904D01*
X134534809Y-76951904D01*
X134458619Y-76990000D01*
X134420523Y-77028095D01*
X134382428Y-77104285D01*
X134382428Y-77180476D01*
X134420523Y-77256666D01*
X134458619Y-77294761D01*
X134534809Y-77332857D01*
X134801476Y-77332857D01*
X134077666Y-76951904D02*
X133582428Y-76951904D01*
X133849095Y-77256666D01*
X133734809Y-77256666D01*
X133658619Y-77294761D01*
X133620523Y-77332857D01*
X133582428Y-77409047D01*
X133582428Y-77599523D01*
X133620523Y-77675714D01*
X133658619Y-77713809D01*
X133734809Y-77751904D01*
X133963380Y-77751904D01*
X134039571Y-77713809D01*
X134077666Y-77675714D01*
X134534809Y-74792857D02*
X134420523Y-74830952D01*
X134382428Y-74869047D01*
X134344333Y-74945238D01*
X134344333Y-75059523D01*
X134382428Y-75135714D01*
X134420523Y-75173809D01*
X134496714Y-75211904D01*
X134801476Y-75211904D01*
X134801476Y-74411904D01*
X134534809Y-74411904D01*
X134458619Y-74450000D01*
X134420523Y-74488095D01*
X134382428Y-74564285D01*
X134382428Y-74640476D01*
X134420523Y-74716666D01*
X134458619Y-74754761D01*
X134534809Y-74792857D01*
X134801476Y-74792857D01*
X133582428Y-75211904D02*
X134039571Y-75211904D01*
X133811000Y-75211904D02*
X133811000Y-74411904D01*
X133887190Y-74526190D01*
X133963380Y-74602380D01*
X134039571Y-74640476D01*
X134477666Y-64632857D02*
X134744333Y-64632857D01*
X134744333Y-65051904D02*
X134744333Y-64251904D01*
X134363380Y-64251904D01*
X133715761Y-64518571D02*
X133715761Y-65051904D01*
X133906238Y-64213809D02*
X134096714Y-64785238D01*
X133601476Y-64785238D01*
X135277666Y-61711904D02*
X135011000Y-62511904D01*
X134744333Y-61711904D01*
X134020523Y-62435714D02*
X134058619Y-62473809D01*
X134172904Y-62511904D01*
X134249095Y-62511904D01*
X134363380Y-62473809D01*
X134439571Y-62397619D01*
X134477666Y-62321428D01*
X134515761Y-62169047D01*
X134515761Y-62054761D01*
X134477666Y-61902380D01*
X134439571Y-61826190D01*
X134363380Y-61750000D01*
X134249095Y-61711904D01*
X134172904Y-61711904D01*
X134058619Y-61750000D01*
X134020523Y-61788095D01*
X133220523Y-62435714D02*
X133258619Y-62473809D01*
X133372904Y-62511904D01*
X133449095Y-62511904D01*
X133563380Y-62473809D01*
X133639571Y-62397619D01*
X133677666Y-62321428D01*
X133715761Y-62169047D01*
X133715761Y-62054761D01*
X133677666Y-61902380D01*
X133639571Y-61826190D01*
X133563380Y-61750000D01*
X133449095Y-61711904D01*
X133372904Y-61711904D01*
X133258619Y-61750000D01*
X133220523Y-61788095D01*
X134820523Y-56670000D02*
X134896714Y-56631904D01*
X135011000Y-56631904D01*
X135125285Y-56670000D01*
X135201476Y-56746190D01*
X135239571Y-56822380D01*
X135277666Y-56974761D01*
X135277666Y-57089047D01*
X135239571Y-57241428D01*
X135201476Y-57317619D01*
X135125285Y-57393809D01*
X135011000Y-57431904D01*
X134934809Y-57431904D01*
X134820523Y-57393809D01*
X134782428Y-57355714D01*
X134782428Y-57089047D01*
X134934809Y-57089047D01*
X134439571Y-57431904D02*
X134439571Y-56631904D01*
X133982428Y-57431904D01*
X133982428Y-56631904D01*
X133601476Y-57431904D02*
X133601476Y-56631904D01*
X133411000Y-56631904D01*
X133296714Y-56670000D01*
X133220523Y-56746190D01*
X133182428Y-56822380D01*
X133144333Y-56974761D01*
X133144333Y-57089047D01*
X133182428Y-57241428D01*
X133220523Y-57317619D01*
X133296714Y-57393809D01*
X133411000Y-57431904D01*
X133601476Y-57431904D01*
X134763380Y-54891904D02*
X135030047Y-54510952D01*
X135220523Y-54891904D02*
X135220523Y-54091904D01*
X134915761Y-54091904D01*
X134839571Y-54130000D01*
X134801476Y-54168095D01*
X134763380Y-54244285D01*
X134763380Y-54358571D01*
X134801476Y-54434761D01*
X134839571Y-54472857D01*
X134915761Y-54510952D01*
X135220523Y-54510952D01*
X134458619Y-54663333D02*
X134077666Y-54663333D01*
X134534809Y-54891904D02*
X134268142Y-54091904D01*
X134001476Y-54891904D01*
X133811000Y-54091904D02*
X133620523Y-54891904D01*
X133468142Y-54320476D01*
X133315761Y-54891904D01*
X133125285Y-54091904D01*
X134477666Y-67172857D02*
X134744333Y-67172857D01*
X134744333Y-67591904D02*
X134744333Y-66791904D01*
X134363380Y-66791904D01*
X133677666Y-66791904D02*
X134058619Y-66791904D01*
X134096714Y-67172857D01*
X134058619Y-67134761D01*
X133982428Y-67096666D01*
X133791952Y-67096666D01*
X133715761Y-67134761D01*
X133677666Y-67172857D01*
X133639571Y-67249047D01*
X133639571Y-67439523D01*
X133677666Y-67515714D01*
X133715761Y-67553809D01*
X133791952Y-67591904D01*
X133982428Y-67591904D01*
X134058619Y-67553809D01*
X134096714Y-67515714D01*
X134477666Y-69712857D02*
X134744333Y-69712857D01*
X134744333Y-70131904D02*
X134744333Y-69331904D01*
X134363380Y-69331904D01*
X133715761Y-69331904D02*
X133868142Y-69331904D01*
X133944333Y-69370000D01*
X133982428Y-69408095D01*
X134058619Y-69522380D01*
X134096714Y-69674761D01*
X134096714Y-69979523D01*
X134058619Y-70055714D01*
X134020523Y-70093809D01*
X133944333Y-70131904D01*
X133791952Y-70131904D01*
X133715761Y-70093809D01*
X133677666Y-70055714D01*
X133639571Y-69979523D01*
X133639571Y-69789047D01*
X133677666Y-69712857D01*
X133715761Y-69674761D01*
X133791952Y-69636666D01*
X133944333Y-69636666D01*
X134020523Y-69674761D01*
X134058619Y-69712857D01*
X134096714Y-69789047D01*
X134477666Y-72252857D02*
X134744333Y-72252857D01*
X134744333Y-72671904D02*
X134744333Y-71871904D01*
X134363380Y-71871904D01*
X134134809Y-71871904D02*
X133601476Y-71871904D01*
X133944333Y-72671904D01*
X134534809Y-79872857D02*
X134420523Y-79910952D01*
X134382428Y-79949047D01*
X134344333Y-80025238D01*
X134344333Y-80139523D01*
X134382428Y-80215714D01*
X134420523Y-80253809D01*
X134496714Y-80291904D01*
X134801476Y-80291904D01*
X134801476Y-79491904D01*
X134534809Y-79491904D01*
X134458619Y-79530000D01*
X134420523Y-79568095D01*
X134382428Y-79644285D01*
X134382428Y-79720476D01*
X134420523Y-79796666D01*
X134458619Y-79834761D01*
X134534809Y-79872857D01*
X134801476Y-79872857D01*
X134039571Y-79568095D02*
X134001476Y-79530000D01*
X133925285Y-79491904D01*
X133734809Y-79491904D01*
X133658619Y-79530000D01*
X133620523Y-79568095D01*
X133582428Y-79644285D01*
X133582428Y-79720476D01*
X133620523Y-79834761D01*
X134077666Y-80291904D01*
X133582428Y-80291904D01*
X127368604Y-54091904D02*
X126911461Y-54091904D01*
X127140032Y-54891904D02*
X127140032Y-54091904D01*
X126720985Y-54091904D02*
X126187651Y-54891904D01*
X126187651Y-54091904D02*
X126720985Y-54891904D01*
X125730508Y-54091904D02*
X125654318Y-54091904D01*
X125578128Y-54130000D01*
X125540032Y-54168095D01*
X125501937Y-54244285D01*
X125463842Y-54396666D01*
X125463842Y-54587142D01*
X125501937Y-54739523D01*
X125540032Y-54815714D01*
X125578128Y-54853809D01*
X125654318Y-54891904D01*
X125730508Y-54891904D01*
X125806699Y-54853809D01*
X125844794Y-54815714D01*
X125882889Y-54739523D01*
X125920985Y-54587142D01*
X125920985Y-54396666D01*
X125882889Y-54244285D01*
X125844794Y-54168095D01*
X125806699Y-54130000D01*
X125730508Y-54091904D01*
X124549556Y-54053809D02*
X125235270Y-55082380D01*
X124282889Y-54891904D02*
X124282889Y-54091904D01*
X124092413Y-54091904D01*
X123978128Y-54130000D01*
X123901937Y-54206190D01*
X123863842Y-54282380D01*
X123825747Y-54434761D01*
X123825747Y-54549047D01*
X123863842Y-54701428D01*
X123901937Y-54777619D01*
X123978128Y-54853809D01*
X124092413Y-54891904D01*
X124282889Y-54891904D01*
X123559080Y-54091904D02*
X123063842Y-54091904D01*
X123330508Y-54396666D01*
X123216223Y-54396666D01*
X123140032Y-54434761D01*
X123101937Y-54472857D01*
X123063842Y-54549047D01*
X123063842Y-54739523D01*
X123101937Y-54815714D01*
X123140032Y-54853809D01*
X123216223Y-54891904D01*
X123444794Y-54891904D01*
X123520985Y-54853809D01*
X123559080Y-54815714D01*
X134323333Y-59913809D02*
X134209047Y-59951904D01*
X134018571Y-59951904D01*
X133942380Y-59913809D01*
X133904285Y-59875714D01*
X133866190Y-59799523D01*
X133866190Y-59723333D01*
X133904285Y-59647142D01*
X133942380Y-59609047D01*
X134018571Y-59570952D01*
X134170952Y-59532857D01*
X134247142Y-59494761D01*
X134285238Y-59456666D01*
X134323333Y-59380476D01*
X134323333Y-59304285D01*
X134285238Y-59228095D01*
X134247142Y-59190000D01*
X134170952Y-59151904D01*
X133980476Y-59151904D01*
X133866190Y-59190000D01*
X133637619Y-59151904D02*
X133180476Y-59151904D01*
X133409047Y-59951904D02*
X133409047Y-59151904D01*
X165274404Y-59321623D02*
X164474404Y-59321623D01*
X164474404Y-59512100D01*
X164512500Y-59626385D01*
X164588690Y-59702576D01*
X164664880Y-59740671D01*
X164817261Y-59778766D01*
X164931547Y-59778766D01*
X165083928Y-59740671D01*
X165160119Y-59702576D01*
X165236309Y-59626385D01*
X165274404Y-59512100D01*
X165274404Y-59321623D01*
X165274404Y-60540671D02*
X165274404Y-60083528D01*
X165274404Y-60312100D02*
X164474404Y-60312100D01*
X164588690Y-60235909D01*
X164664880Y-60159719D01*
X164702976Y-60083528D01*
X184361904Y-59284123D02*
X183561904Y-59284123D01*
X183561904Y-59474600D01*
X183600000Y-59588885D01*
X183676190Y-59665076D01*
X183752380Y-59703171D01*
X183904761Y-59741266D01*
X184019047Y-59741266D01*
X184171428Y-59703171D01*
X184247619Y-59665076D01*
X184323809Y-59588885D01*
X184361904Y-59474600D01*
X184361904Y-59284123D01*
X183638095Y-60046028D02*
X183600000Y-60084123D01*
X183561904Y-60160314D01*
X183561904Y-60350790D01*
X183600000Y-60426980D01*
X183638095Y-60465076D01*
X183714285Y-60503171D01*
X183790476Y-60503171D01*
X183904761Y-60465076D01*
X184361904Y-60007933D01*
X184361904Y-60503171D01*
X203374404Y-59384123D02*
X202574404Y-59384123D01*
X202574404Y-59574600D01*
X202612500Y-59688885D01*
X202688690Y-59765076D01*
X202764880Y-59803171D01*
X202917261Y-59841266D01*
X203031547Y-59841266D01*
X203183928Y-59803171D01*
X203260119Y-59765076D01*
X203336309Y-59688885D01*
X203374404Y-59574600D01*
X203374404Y-59384123D01*
X202574404Y-60107933D02*
X202574404Y-60603171D01*
X202879166Y-60336504D01*
X202879166Y-60450790D01*
X202917261Y-60526980D01*
X202955357Y-60565076D01*
X203031547Y-60603171D01*
X203222023Y-60603171D01*
X203298214Y-60565076D01*
X203336309Y-60526980D01*
X203374404Y-60450790D01*
X203374404Y-60222219D01*
X203336309Y-60146028D01*
X203298214Y-60107933D01*
X165274404Y-78376623D02*
X164474404Y-78376623D01*
X164474404Y-78567100D01*
X164512500Y-78681385D01*
X164588690Y-78757576D01*
X164664880Y-78795671D01*
X164817261Y-78833766D01*
X164931547Y-78833766D01*
X165083928Y-78795671D01*
X165160119Y-78757576D01*
X165236309Y-78681385D01*
X165274404Y-78567100D01*
X165274404Y-78376623D01*
X164741071Y-79519480D02*
X165274404Y-79519480D01*
X164436309Y-79329004D02*
X165007738Y-79138528D01*
X165007738Y-79633766D01*
X184324404Y-78384123D02*
X183524404Y-78384123D01*
X183524404Y-78574600D01*
X183562500Y-78688885D01*
X183638690Y-78765076D01*
X183714880Y-78803171D01*
X183867261Y-78841266D01*
X183981547Y-78841266D01*
X184133928Y-78803171D01*
X184210119Y-78765076D01*
X184286309Y-78688885D01*
X184324404Y-78574600D01*
X184324404Y-78384123D01*
X183524404Y-79565076D02*
X183524404Y-79184123D01*
X183905357Y-79146028D01*
X183867261Y-79184123D01*
X183829166Y-79260314D01*
X183829166Y-79450790D01*
X183867261Y-79526980D01*
X183905357Y-79565076D01*
X183981547Y-79603171D01*
X184172023Y-79603171D01*
X184248214Y-79565076D01*
X184286309Y-79526980D01*
X184324404Y-79450790D01*
X184324404Y-79260314D01*
X184286309Y-79184123D01*
X184248214Y-79146028D01*
X203374404Y-78376623D02*
X202574404Y-78376623D01*
X202574404Y-78567100D01*
X202612500Y-78681385D01*
X202688690Y-78757576D01*
X202764880Y-78795671D01*
X202917261Y-78833766D01*
X203031547Y-78833766D01*
X203183928Y-78795671D01*
X203260119Y-78757576D01*
X203336309Y-78681385D01*
X203374404Y-78567100D01*
X203374404Y-78376623D01*
X202574404Y-79519480D02*
X202574404Y-79367100D01*
X202612500Y-79290909D01*
X202650595Y-79252814D01*
X202764880Y-79176623D01*
X202917261Y-79138528D01*
X203222023Y-79138528D01*
X203298214Y-79176623D01*
X203336309Y-79214719D01*
X203374404Y-79290909D01*
X203374404Y-79443290D01*
X203336309Y-79519480D01*
X203298214Y-79557576D01*
X203222023Y-79595671D01*
X203031547Y-79595671D01*
X202955357Y-79557576D01*
X202917261Y-79519480D01*
X202879166Y-79443290D01*
X202879166Y-79290909D01*
X202917261Y-79214719D01*
X202955357Y-79176623D01*
X203031547Y-79138528D01*
X165274404Y-97426623D02*
X164474404Y-97426623D01*
X164474404Y-97617100D01*
X164512500Y-97731385D01*
X164588690Y-97807576D01*
X164664880Y-97845671D01*
X164817261Y-97883766D01*
X164931547Y-97883766D01*
X165083928Y-97845671D01*
X165160119Y-97807576D01*
X165236309Y-97731385D01*
X165274404Y-97617100D01*
X165274404Y-97426623D01*
X164474404Y-98150433D02*
X164474404Y-98683766D01*
X165274404Y-98340909D01*
X184324404Y-97426623D02*
X183524404Y-97426623D01*
X183524404Y-97617100D01*
X183562500Y-97731385D01*
X183638690Y-97807576D01*
X183714880Y-97845671D01*
X183867261Y-97883766D01*
X183981547Y-97883766D01*
X184133928Y-97845671D01*
X184210119Y-97807576D01*
X184286309Y-97731385D01*
X184324404Y-97617100D01*
X184324404Y-97426623D01*
X183867261Y-98340909D02*
X183829166Y-98264719D01*
X183791071Y-98226623D01*
X183714880Y-98188528D01*
X183676785Y-98188528D01*
X183600595Y-98226623D01*
X183562500Y-98264719D01*
X183524404Y-98340909D01*
X183524404Y-98493290D01*
X183562500Y-98569480D01*
X183600595Y-98607576D01*
X183676785Y-98645671D01*
X183714880Y-98645671D01*
X183791071Y-98607576D01*
X183829166Y-98569480D01*
X183867261Y-98493290D01*
X183867261Y-98340909D01*
X183905357Y-98264719D01*
X183943452Y-98226623D01*
X184019642Y-98188528D01*
X184172023Y-98188528D01*
X184248214Y-98226623D01*
X184286309Y-98264719D01*
X184324404Y-98340909D01*
X184324404Y-98493290D01*
X184286309Y-98569480D01*
X184248214Y-98607576D01*
X184172023Y-98645671D01*
X184019642Y-98645671D01*
X183943452Y-98607576D01*
X183905357Y-98569480D01*
X183867261Y-98493290D01*
X203374404Y-97426623D02*
X202574404Y-97426623D01*
X202574404Y-97617100D01*
X202612500Y-97731385D01*
X202688690Y-97807576D01*
X202764880Y-97845671D01*
X202917261Y-97883766D01*
X203031547Y-97883766D01*
X203183928Y-97845671D01*
X203260119Y-97807576D01*
X203336309Y-97731385D01*
X203374404Y-97617100D01*
X203374404Y-97426623D01*
X203374404Y-98264719D02*
X203374404Y-98417100D01*
X203336309Y-98493290D01*
X203298214Y-98531385D01*
X203183928Y-98607576D01*
X203031547Y-98645671D01*
X202726785Y-98645671D01*
X202650595Y-98607576D01*
X202612500Y-98569480D01*
X202574404Y-98493290D01*
X202574404Y-98340909D01*
X202612500Y-98264719D01*
X202650595Y-98226623D01*
X202726785Y-98188528D01*
X202917261Y-98188528D01*
X202993452Y-98226623D01*
X203031547Y-98264719D01*
X203069642Y-98340909D01*
X203069642Y-98493290D01*
X203031547Y-98569480D01*
X202993452Y-98607576D01*
X202917261Y-98645671D01*
X165274404Y-115753171D02*
X164474404Y-115753171D01*
X164474404Y-115943647D01*
X164512500Y-116057933D01*
X164588690Y-116134123D01*
X164664880Y-116172219D01*
X164817261Y-116210314D01*
X164931547Y-116210314D01*
X165083928Y-116172219D01*
X165160119Y-116134123D01*
X165236309Y-116057933D01*
X165274404Y-115943647D01*
X165274404Y-115753171D01*
X165274404Y-116972219D02*
X165274404Y-116515076D01*
X165274404Y-116743647D02*
X164474404Y-116743647D01*
X164588690Y-116667457D01*
X164664880Y-116591266D01*
X164702976Y-116515076D01*
X164474404Y-117467457D02*
X164474404Y-117543647D01*
X164512500Y-117619838D01*
X164550595Y-117657933D01*
X164626785Y-117696028D01*
X164779166Y-117734123D01*
X164969642Y-117734123D01*
X165122023Y-117696028D01*
X165198214Y-117657933D01*
X165236309Y-117619838D01*
X165274404Y-117543647D01*
X165274404Y-117467457D01*
X165236309Y-117391266D01*
X165198214Y-117353171D01*
X165122023Y-117315076D01*
X164969642Y-117276980D01*
X164779166Y-117276980D01*
X164626785Y-117315076D01*
X164550595Y-117353171D01*
X164512500Y-117391266D01*
X164474404Y-117467457D01*
X184324404Y-115753171D02*
X183524404Y-115753171D01*
X183524404Y-115943647D01*
X183562500Y-116057933D01*
X183638690Y-116134123D01*
X183714880Y-116172219D01*
X183867261Y-116210314D01*
X183981547Y-116210314D01*
X184133928Y-116172219D01*
X184210119Y-116134123D01*
X184286309Y-116057933D01*
X184324404Y-115943647D01*
X184324404Y-115753171D01*
X184324404Y-116972219D02*
X184324404Y-116515076D01*
X184324404Y-116743647D02*
X183524404Y-116743647D01*
X183638690Y-116667457D01*
X183714880Y-116591266D01*
X183752976Y-116515076D01*
X184324404Y-117734123D02*
X184324404Y-117276980D01*
X184324404Y-117505552D02*
X183524404Y-117505552D01*
X183638690Y-117429361D01*
X183714880Y-117353171D01*
X183752976Y-117276980D01*
X203374404Y-115803171D02*
X202574404Y-115803171D01*
X202574404Y-115993647D01*
X202612500Y-116107933D01*
X202688690Y-116184123D01*
X202764880Y-116222219D01*
X202917261Y-116260314D01*
X203031547Y-116260314D01*
X203183928Y-116222219D01*
X203260119Y-116184123D01*
X203336309Y-116107933D01*
X203374404Y-115993647D01*
X203374404Y-115803171D01*
X203374404Y-117022219D02*
X203374404Y-116565076D01*
X203374404Y-116793647D02*
X202574404Y-116793647D01*
X202688690Y-116717457D01*
X202764880Y-116641266D01*
X202802976Y-116565076D01*
X202650595Y-117326980D02*
X202612500Y-117365076D01*
X202574404Y-117441266D01*
X202574404Y-117631742D01*
X202612500Y-117707933D01*
X202650595Y-117746028D01*
X202726785Y-117784123D01*
X202802976Y-117784123D01*
X202917261Y-117746028D01*
X203374404Y-117288885D01*
X203374404Y-117784123D01*
%LPC*%
D12*
X157520000Y-93210000D03*
D13*
X157500000Y-93500000D02*
X157540000Y-92920000D01*
D12*
X157540000Y-92920000D03*
X151845001Y-94730000D03*
D13*
X151190000Y-95460000D02*
X152500002Y-94000000D01*
D14*
X155000000Y-98000000D03*
D12*
X152500000Y-94000000D03*
D15*
X149920000Y-98000000D03*
X160080000Y-98000000D03*
X160080000Y-117000000D03*
X149920000Y-117000000D03*
D12*
X152500000Y-113000000D03*
D14*
X155000000Y-117000000D03*
D12*
X151845001Y-113730000D03*
D13*
X151190000Y-114460000D02*
X152500002Y-113000000D01*
D12*
X157540000Y-111920000D03*
X157520000Y-112210000D03*
D13*
X157500000Y-112500000D02*
X157540000Y-111920000D01*
D12*
X195520000Y-74210000D03*
D13*
X195500000Y-74500000D02*
X195540000Y-73920000D01*
D12*
X195540000Y-73920000D03*
X189845001Y-75730000D03*
D13*
X189190000Y-76460000D02*
X190500002Y-75000000D01*
D14*
X193000000Y-79000000D03*
D12*
X190500000Y-75000000D03*
D15*
X187920000Y-79000000D03*
X198080000Y-79000000D03*
X179080000Y-98000000D03*
X168920000Y-98000000D03*
D12*
X171500000Y-94000000D03*
D14*
X174000000Y-98000000D03*
D12*
X170845001Y-94730000D03*
D13*
X170190000Y-95460000D02*
X171500002Y-94000000D01*
D12*
X176540000Y-92920000D03*
X176520000Y-93210000D03*
D13*
X176500000Y-93500000D02*
X176540000Y-92920000D01*
D12*
X176520000Y-112210000D03*
D13*
X176500000Y-112500000D02*
X176540000Y-111920000D01*
D12*
X176540000Y-111920000D03*
X170845001Y-113730000D03*
D13*
X170190000Y-114460000D02*
X171500002Y-113000000D01*
D14*
X174000000Y-117000000D03*
D12*
X171500000Y-113000000D03*
D15*
X168920000Y-117000000D03*
X179080000Y-117000000D03*
D12*
X176520000Y-55210000D03*
D13*
X176500000Y-55500000D02*
X176540000Y-54920000D01*
D12*
X176540000Y-54920000D03*
X170845001Y-56730000D03*
D13*
X170190000Y-57460000D02*
X171500002Y-56000000D01*
D14*
X174000000Y-60000000D03*
D12*
X171500000Y-56000000D03*
D15*
X168920000Y-60000000D03*
X179080000Y-60000000D03*
X160080000Y-79000000D03*
X149920000Y-79000000D03*
D12*
X152500000Y-75000000D03*
D14*
X155000000Y-79000000D03*
D12*
X151845001Y-75730000D03*
D13*
X151190000Y-76460000D02*
X152500002Y-75000000D01*
D12*
X157540000Y-73920000D03*
X157520000Y-74210000D03*
D13*
X157500000Y-74500000D02*
X157540000Y-73920000D01*
D12*
X157520000Y-55210000D03*
D13*
X157500000Y-55500000D02*
X157540000Y-54920000D01*
D12*
X157540000Y-54920000D03*
X151845001Y-56730000D03*
D13*
X151190000Y-57460000D02*
X152500002Y-56000000D01*
D14*
X155000000Y-60000000D03*
D12*
X152500000Y-56000000D03*
D15*
X149920000Y-60000000D03*
X160080000Y-60000000D03*
X198080000Y-60000000D03*
X187920000Y-60000000D03*
D12*
X190500000Y-56000000D03*
D14*
X193000000Y-60000000D03*
D12*
X189845001Y-56730000D03*
D13*
X189190000Y-57460000D02*
X190500002Y-56000000D01*
D12*
X195540000Y-54920000D03*
X195520000Y-55210000D03*
D13*
X195500000Y-55500000D02*
X195540000Y-54920000D01*
D15*
X179080000Y-79000000D03*
X168920000Y-79000000D03*
D12*
X171500000Y-75000000D03*
D14*
X174000000Y-79000000D03*
D12*
X170845001Y-75730000D03*
D13*
X170190000Y-76460000D02*
X171500002Y-75000000D01*
D12*
X176540000Y-73920000D03*
X176520000Y-74210000D03*
D13*
X176500000Y-74500000D02*
X176540000Y-73920000D01*
D12*
X195520000Y-93210000D03*
D13*
X195500000Y-93500000D02*
X195540000Y-92920000D01*
D12*
X195540000Y-92920000D03*
X189845001Y-94730000D03*
D13*
X189190000Y-95460000D02*
X190500002Y-94000000D01*
D14*
X193000000Y-98000000D03*
D12*
X190500000Y-94000000D03*
D15*
X187920000Y-98000000D03*
X198080000Y-98000000D03*
X198080000Y-117000000D03*
X187920000Y-117000000D03*
D12*
X190500000Y-113000000D03*
D14*
X193000000Y-117000000D03*
D12*
X189845001Y-113730000D03*
D13*
X189190000Y-114460000D02*
X190500002Y-113000000D01*
D12*
X195540000Y-111920000D03*
X195520000Y-112210000D03*
D13*
X195500000Y-112500000D02*
X195540000Y-111920000D01*
D16*
X121130000Y-54530000D03*
D17*
X121130000Y-57070000D03*
X121130000Y-59610000D03*
X121130000Y-62150000D03*
X121130000Y-64690000D03*
X121130000Y-67230000D03*
X121130000Y-69770000D03*
X121130000Y-72310000D03*
X121130000Y-74850000D03*
X121130000Y-77390000D03*
X121130000Y-79930000D03*
X136370000Y-82470000D03*
X136370000Y-79930000D03*
X136370000Y-77390000D03*
X136370000Y-74850000D03*
X136370000Y-72310000D03*
X136370000Y-69770000D03*
X136370000Y-67230000D03*
X136370000Y-64690000D03*
X136370000Y-62150000D03*
X136370000Y-59610000D03*
X136370000Y-57070000D03*
X121130000Y-82470000D03*
X136370000Y-54530000D03*
D18*
X163512500Y-63837500D03*
D19*
X163512500Y-56037500D03*
D20*
X163512500Y-58537500D03*
X163512500Y-61337500D03*
X182600000Y-61300000D03*
X182600000Y-58500000D03*
D19*
X182600000Y-56000000D03*
D18*
X182600000Y-63800000D03*
X201612500Y-63900000D03*
D19*
X201612500Y-56100000D03*
D20*
X201612500Y-58600000D03*
X201612500Y-61400000D03*
X163512500Y-80392500D03*
X163512500Y-77592500D03*
D19*
X163512500Y-75092500D03*
D18*
X163512500Y-82892500D03*
X182562500Y-82900000D03*
D19*
X182562500Y-75100000D03*
D20*
X182562500Y-77600000D03*
X182562500Y-80400000D03*
X201612500Y-80392500D03*
X201612500Y-77592500D03*
D19*
X201612500Y-75092500D03*
D18*
X201612500Y-82892500D03*
X163512500Y-101942500D03*
D19*
X163512500Y-94142500D03*
D20*
X163512500Y-96642500D03*
X163512500Y-99442500D03*
X182562500Y-99442500D03*
X182562500Y-96642500D03*
D19*
X182562500Y-94142500D03*
D18*
X182562500Y-101942500D03*
X201612500Y-101942500D03*
D19*
X201612500Y-94142500D03*
D20*
X201612500Y-96642500D03*
X201612500Y-99442500D03*
X163512500Y-118150000D03*
X163512500Y-115350000D03*
D19*
X163512500Y-112850000D03*
D18*
X163512500Y-120650000D03*
X182562500Y-120650000D03*
D19*
X182562500Y-112850000D03*
D20*
X182562500Y-115350000D03*
X182562500Y-118150000D03*
X201612500Y-118200000D03*
X201612500Y-115400000D03*
D19*
X201612500Y-112900000D03*
D18*
X201612500Y-120700000D03*
M02*
