M48
; DRILL file {KiCad (5.1.4)-1} date 08/22/20 19:17:24
; FORMAT={-:-/ absolute / inch / decimal}
; #@! TF.CreationDate,2020-08-22T19:17:24-06:00
; #@! TF.GenerationSoftware,Kicad,Pcbnew,(5.1.4)-1
; #@! TF.FileFunction,Plated,1,2,PTH
FMAT,2
INCH
T1C0.0157
T2C0.0394
T3C0.0430
T4C0.0579
%
G90
G05
T1
X5.9524Y-2.6846
X6.7004Y-2.8028
X7.4484Y-2.8665
T2
X6.4375Y-2.9564
X6.4375Y-3.2635
X6.4375Y-2.2062
X6.4375Y-2.5133
X7.1875Y-3.7064
X7.1875Y-4.0135
X7.9375Y-3.7064
X7.9375Y-4.0135
X7.9375Y-2.9564
X7.9375Y-3.2635
X7.1875Y-2.9567
X7.1875Y-3.2638
X6.4375Y-4.4429
X6.4375Y-4.75
X7.1875Y-4.4429
X7.1875Y-4.75
X7.9375Y-4.4449
X7.9375Y-4.752
X7.189Y-2.2047
X7.189Y-2.5118
X7.9375Y-2.2087
X7.9375Y-2.5157
X6.4375Y-3.7064
X6.4375Y-4.0135
T3
X4.7689Y-2.1469
X4.7689Y-2.2469
X4.7689Y-2.3469
X4.7689Y-2.4469
X4.7689Y-2.5469
X4.7689Y-2.6469
X4.7689Y-2.7469
X4.7689Y-2.8469
X4.7689Y-2.9469
X4.7689Y-3.0469
X4.7689Y-3.1469
X4.7689Y-3.2469
X5.3689Y-2.1469
X5.3689Y-2.2469
X5.3689Y-2.3469
X5.3689Y-2.4469
X5.3689Y-2.5469
X5.3689Y-2.6469
X5.3689Y-2.7469
X5.3689Y-2.8469
X5.3689Y-2.9469
X5.3689Y-3.0469
X5.3689Y-3.1469
X5.3689Y-3.2469
T4
X5.9524Y-3.0102
X6.0039Y-2.9528
X6.2008Y-2.9331
X6.2024Y-2.9102
X6.7004Y-3.0102
X6.752Y-2.9528
X6.9488Y-2.9331
X6.9504Y-2.9102
X7.4484Y-3.7583
X7.5Y-3.7008
X7.6969Y-3.6811
X7.6984Y-3.6583
X5.9524Y-4.5063
X6.0039Y-4.4488
X6.2008Y-4.4291
X6.2024Y-4.4063
X6.7004Y-3.7583
X6.752Y-3.7008
X6.9488Y-3.6811
X6.9504Y-3.6583
X7.4484Y-3.0102
X7.5Y-2.9528
X7.6969Y-2.9331
X7.6984Y-2.9102
X6.7004Y-2.2622
X6.752Y-2.2047
X6.9488Y-2.185
X6.9504Y-2.1622
X6.7004Y-4.5063
X6.752Y-4.4488
X6.9488Y-4.4291
X6.9504Y-4.4063
X5.9524Y-2.2622
X6.0039Y-2.2047
X6.2008Y-2.185
X6.2024Y-2.1622
X7.4484Y-4.5063
X7.5Y-4.4488
X7.6969Y-4.4291
X7.6984Y-4.4063
X5.9524Y-3.7583
X6.0039Y-3.7008
X6.2008Y-3.6811
X6.2024Y-3.6583
X7.4484Y-2.2622
X7.5Y-2.2047
X7.6969Y-2.185
X7.6984Y-2.1622
T0
M30
