G04 #@! TF.GenerationSoftware,KiCad,Pcbnew,(5.1.4)-1*
G04 #@! TF.CreationDate,2020-08-22T19:17:11-06:00*
G04 #@! TF.ProjectId,smolPad,736d6f6c-5061-4642-9e6b-696361645f70,rev?*
G04 #@! TF.SameCoordinates,Original*
G04 #@! TF.FileFunction,Soldermask,Bot*
G04 #@! TF.FilePolarity,Negative*
%FSLAX46Y46*%
G04 Gerber Fmt 4.6, Leading zero omitted, Abs format (unit mm)*
G04 Created by KiCad (PCBNEW (5.1.4)-1) date 2020-08-22 19:17:11*
%MOMM*%
%LPD*%
G04 APERTURE LIST*
%ADD10C,0.020000*%
G04 APERTURE END LIST*
D10*
G36*
X202463500Y-121551000D02*
G01*
X200761500Y-121551000D01*
X200761500Y-119849000D01*
X202463500Y-119849000D01*
X202463500Y-121551000D01*
X202463500Y-121551000D01*
G37*
G36*
X183413500Y-121501000D02*
G01*
X181711500Y-121501000D01*
X181711500Y-119799000D01*
X183413500Y-119799000D01*
X183413500Y-121501000D01*
X183413500Y-121501000D01*
G37*
G36*
X164363500Y-121501000D02*
G01*
X162661500Y-121501000D01*
X162661500Y-119799000D01*
X164363500Y-119799000D01*
X164363500Y-121501000D01*
X164363500Y-121501000D01*
G37*
G36*
X202263500Y-119051000D02*
G01*
X200961500Y-119051000D01*
X200961500Y-117349000D01*
X202263500Y-117349000D01*
X202263500Y-119051000D01*
X202263500Y-119051000D01*
G37*
G36*
X193596474Y-115033684D02*
G01*
X193814474Y-115123983D01*
X193968623Y-115187833D01*
X194303548Y-115411623D01*
X194588377Y-115696452D01*
X194812167Y-116031377D01*
X194844562Y-116109586D01*
X194966316Y-116403526D01*
X195044900Y-116798594D01*
X195044900Y-117201406D01*
X194966316Y-117596474D01*
X194915451Y-117719272D01*
X194812167Y-117968623D01*
X194588377Y-118303548D01*
X194303548Y-118588377D01*
X193968623Y-118812167D01*
X193814474Y-118876017D01*
X193596474Y-118966316D01*
X193201406Y-119044900D01*
X192798594Y-119044900D01*
X192403526Y-118966316D01*
X192185526Y-118876017D01*
X192031377Y-118812167D01*
X191696452Y-118588377D01*
X191411623Y-118303548D01*
X191187833Y-117968623D01*
X191084549Y-117719272D01*
X191033684Y-117596474D01*
X190955100Y-117201406D01*
X190955100Y-116798594D01*
X191033684Y-116403526D01*
X191155438Y-116109586D01*
X191187833Y-116031377D01*
X191411623Y-115696452D01*
X191696452Y-115411623D01*
X192031377Y-115187833D01*
X192185526Y-115123983D01*
X192403526Y-115033684D01*
X192798594Y-114955100D01*
X193201406Y-114955100D01*
X193596474Y-115033684D01*
X193596474Y-115033684D01*
G37*
G36*
X174596474Y-115033684D02*
G01*
X174814474Y-115123983D01*
X174968623Y-115187833D01*
X175303548Y-115411623D01*
X175588377Y-115696452D01*
X175812167Y-116031377D01*
X175844562Y-116109586D01*
X175966316Y-116403526D01*
X176044900Y-116798594D01*
X176044900Y-117201406D01*
X175966316Y-117596474D01*
X175915451Y-117719272D01*
X175812167Y-117968623D01*
X175588377Y-118303548D01*
X175303548Y-118588377D01*
X174968623Y-118812167D01*
X174814474Y-118876017D01*
X174596474Y-118966316D01*
X174201406Y-119044900D01*
X173798594Y-119044900D01*
X173403526Y-118966316D01*
X173185526Y-118876017D01*
X173031377Y-118812167D01*
X172696452Y-118588377D01*
X172411623Y-118303548D01*
X172187833Y-117968623D01*
X172084549Y-117719272D01*
X172033684Y-117596474D01*
X171955100Y-117201406D01*
X171955100Y-116798594D01*
X172033684Y-116403526D01*
X172155438Y-116109586D01*
X172187833Y-116031377D01*
X172411623Y-115696452D01*
X172696452Y-115411623D01*
X173031377Y-115187833D01*
X173185526Y-115123983D01*
X173403526Y-115033684D01*
X173798594Y-114955100D01*
X174201406Y-114955100D01*
X174596474Y-115033684D01*
X174596474Y-115033684D01*
G37*
G36*
X155596474Y-115033684D02*
G01*
X155814474Y-115123983D01*
X155968623Y-115187833D01*
X156303548Y-115411623D01*
X156588377Y-115696452D01*
X156812167Y-116031377D01*
X156844562Y-116109586D01*
X156966316Y-116403526D01*
X157044900Y-116798594D01*
X157044900Y-117201406D01*
X156966316Y-117596474D01*
X156915451Y-117719272D01*
X156812167Y-117968623D01*
X156588377Y-118303548D01*
X156303548Y-118588377D01*
X155968623Y-118812167D01*
X155814474Y-118876017D01*
X155596474Y-118966316D01*
X155201406Y-119044900D01*
X154798594Y-119044900D01*
X154403526Y-118966316D01*
X154185526Y-118876017D01*
X154031377Y-118812167D01*
X153696452Y-118588377D01*
X153411623Y-118303548D01*
X153187833Y-117968623D01*
X153084549Y-117719272D01*
X153033684Y-117596474D01*
X152955100Y-117201406D01*
X152955100Y-116798594D01*
X153033684Y-116403526D01*
X153155438Y-116109586D01*
X153187833Y-116031377D01*
X153411623Y-115696452D01*
X153696452Y-115411623D01*
X154031377Y-115187833D01*
X154185526Y-115123983D01*
X154403526Y-115033684D01*
X154798594Y-114955100D01*
X155201406Y-114955100D01*
X155596474Y-115033684D01*
X155596474Y-115033684D01*
G37*
G36*
X183213500Y-119001000D02*
G01*
X181911500Y-119001000D01*
X181911500Y-117299000D01*
X183213500Y-117299000D01*
X183213500Y-119001000D01*
X183213500Y-119001000D01*
G37*
G36*
X164163500Y-119001000D02*
G01*
X162861500Y-119001000D01*
X162861500Y-117299000D01*
X164163500Y-117299000D01*
X164163500Y-119001000D01*
X164163500Y-119001000D01*
G37*
G36*
X150190104Y-116109585D02*
G01*
X150358626Y-116179389D01*
X150510291Y-116280728D01*
X150639272Y-116409709D01*
X150740611Y-116561374D01*
X150810415Y-116729896D01*
X150846000Y-116908797D01*
X150846000Y-117091203D01*
X150810415Y-117270104D01*
X150740611Y-117438626D01*
X150639272Y-117590291D01*
X150510291Y-117719272D01*
X150358626Y-117820611D01*
X150190104Y-117890415D01*
X150011203Y-117926000D01*
X149828797Y-117926000D01*
X149649896Y-117890415D01*
X149481374Y-117820611D01*
X149329709Y-117719272D01*
X149200728Y-117590291D01*
X149099389Y-117438626D01*
X149029585Y-117270104D01*
X148994000Y-117091203D01*
X148994000Y-116908797D01*
X149029585Y-116729896D01*
X149099389Y-116561374D01*
X149200728Y-116409709D01*
X149329709Y-116280728D01*
X149481374Y-116179389D01*
X149649896Y-116109585D01*
X149828797Y-116074000D01*
X150011203Y-116074000D01*
X150190104Y-116109585D01*
X150190104Y-116109585D01*
G37*
G36*
X198350104Y-116109585D02*
G01*
X198518626Y-116179389D01*
X198670291Y-116280728D01*
X198799272Y-116409709D01*
X198900611Y-116561374D01*
X198970415Y-116729896D01*
X199006000Y-116908797D01*
X199006000Y-117091203D01*
X198970415Y-117270104D01*
X198900611Y-117438626D01*
X198799272Y-117590291D01*
X198670291Y-117719272D01*
X198518626Y-117820611D01*
X198350104Y-117890415D01*
X198171203Y-117926000D01*
X197988797Y-117926000D01*
X197809896Y-117890415D01*
X197641374Y-117820611D01*
X197489709Y-117719272D01*
X197360728Y-117590291D01*
X197259389Y-117438626D01*
X197189585Y-117270104D01*
X197154000Y-117091203D01*
X197154000Y-116908797D01*
X197189585Y-116729896D01*
X197259389Y-116561374D01*
X197360728Y-116409709D01*
X197489709Y-116280728D01*
X197641374Y-116179389D01*
X197809896Y-116109585D01*
X197988797Y-116074000D01*
X198171203Y-116074000D01*
X198350104Y-116109585D01*
X198350104Y-116109585D01*
G37*
G36*
X188190104Y-116109585D02*
G01*
X188358626Y-116179389D01*
X188510291Y-116280728D01*
X188639272Y-116409709D01*
X188740611Y-116561374D01*
X188810415Y-116729896D01*
X188846000Y-116908797D01*
X188846000Y-117091203D01*
X188810415Y-117270104D01*
X188740611Y-117438626D01*
X188639272Y-117590291D01*
X188510291Y-117719272D01*
X188358626Y-117820611D01*
X188190104Y-117890415D01*
X188011203Y-117926000D01*
X187828797Y-117926000D01*
X187649896Y-117890415D01*
X187481374Y-117820611D01*
X187329709Y-117719272D01*
X187200728Y-117590291D01*
X187099389Y-117438626D01*
X187029585Y-117270104D01*
X186994000Y-117091203D01*
X186994000Y-116908797D01*
X187029585Y-116729896D01*
X187099389Y-116561374D01*
X187200728Y-116409709D01*
X187329709Y-116280728D01*
X187481374Y-116179389D01*
X187649896Y-116109585D01*
X187828797Y-116074000D01*
X188011203Y-116074000D01*
X188190104Y-116109585D01*
X188190104Y-116109585D01*
G37*
G36*
X179350104Y-116109585D02*
G01*
X179518626Y-116179389D01*
X179670291Y-116280728D01*
X179799272Y-116409709D01*
X179900611Y-116561374D01*
X179970415Y-116729896D01*
X180006000Y-116908797D01*
X180006000Y-117091203D01*
X179970415Y-117270104D01*
X179900611Y-117438626D01*
X179799272Y-117590291D01*
X179670291Y-117719272D01*
X179518626Y-117820611D01*
X179350104Y-117890415D01*
X179171203Y-117926000D01*
X178988797Y-117926000D01*
X178809896Y-117890415D01*
X178641374Y-117820611D01*
X178489709Y-117719272D01*
X178360728Y-117590291D01*
X178259389Y-117438626D01*
X178189585Y-117270104D01*
X178154000Y-117091203D01*
X178154000Y-116908797D01*
X178189585Y-116729896D01*
X178259389Y-116561374D01*
X178360728Y-116409709D01*
X178489709Y-116280728D01*
X178641374Y-116179389D01*
X178809896Y-116109585D01*
X178988797Y-116074000D01*
X179171203Y-116074000D01*
X179350104Y-116109585D01*
X179350104Y-116109585D01*
G37*
G36*
X169190104Y-116109585D02*
G01*
X169358626Y-116179389D01*
X169510291Y-116280728D01*
X169639272Y-116409709D01*
X169740611Y-116561374D01*
X169810415Y-116729896D01*
X169846000Y-116908797D01*
X169846000Y-117091203D01*
X169810415Y-117270104D01*
X169740611Y-117438626D01*
X169639272Y-117590291D01*
X169510291Y-117719272D01*
X169358626Y-117820611D01*
X169190104Y-117890415D01*
X169011203Y-117926000D01*
X168828797Y-117926000D01*
X168649896Y-117890415D01*
X168481374Y-117820611D01*
X168329709Y-117719272D01*
X168200728Y-117590291D01*
X168099389Y-117438626D01*
X168029585Y-117270104D01*
X167994000Y-117091203D01*
X167994000Y-116908797D01*
X168029585Y-116729896D01*
X168099389Y-116561374D01*
X168200728Y-116409709D01*
X168329709Y-116280728D01*
X168481374Y-116179389D01*
X168649896Y-116109585D01*
X168828797Y-116074000D01*
X169011203Y-116074000D01*
X169190104Y-116109585D01*
X169190104Y-116109585D01*
G37*
G36*
X160350104Y-116109585D02*
G01*
X160518626Y-116179389D01*
X160670291Y-116280728D01*
X160799272Y-116409709D01*
X160900611Y-116561374D01*
X160970415Y-116729896D01*
X161006000Y-116908797D01*
X161006000Y-117091203D01*
X160970415Y-117270104D01*
X160900611Y-117438626D01*
X160799272Y-117590291D01*
X160670291Y-117719272D01*
X160518626Y-117820611D01*
X160350104Y-117890415D01*
X160171203Y-117926000D01*
X159988797Y-117926000D01*
X159809896Y-117890415D01*
X159641374Y-117820611D01*
X159489709Y-117719272D01*
X159360728Y-117590291D01*
X159259389Y-117438626D01*
X159189585Y-117270104D01*
X159154000Y-117091203D01*
X159154000Y-116908797D01*
X159189585Y-116729896D01*
X159259389Y-116561374D01*
X159360728Y-116409709D01*
X159489709Y-116280728D01*
X159641374Y-116179389D01*
X159809896Y-116109585D01*
X159988797Y-116074000D01*
X160171203Y-116074000D01*
X160350104Y-116109585D01*
X160350104Y-116109585D01*
G37*
G36*
X202263500Y-116251000D02*
G01*
X200961500Y-116251000D01*
X200961500Y-114549000D01*
X202263500Y-114549000D01*
X202263500Y-116251000D01*
X202263500Y-116251000D01*
G37*
G36*
X183213500Y-116201000D02*
G01*
X181911500Y-116201000D01*
X181911500Y-114499000D01*
X183213500Y-114499000D01*
X183213500Y-116201000D01*
X183213500Y-116201000D01*
G37*
G36*
X164163500Y-116201000D02*
G01*
X162861500Y-116201000D01*
X162861500Y-114499000D01*
X164163500Y-114499000D01*
X164163500Y-116201000D01*
X164163500Y-116201000D01*
G37*
G36*
X190523205Y-111823881D02*
G01*
X190528645Y-111824000D01*
X190615828Y-111824000D01*
X190632097Y-111827236D01*
X190650956Y-111829515D01*
X190667532Y-111830246D01*
X190752223Y-111851010D01*
X190757518Y-111852184D01*
X190843027Y-111869193D01*
X190858362Y-111875545D01*
X190876401Y-111881455D01*
X190892521Y-111885407D01*
X190971504Y-111922280D01*
X190976494Y-111924477D01*
X191057045Y-111957842D01*
X191070841Y-111967060D01*
X191087393Y-111976382D01*
X191102426Y-111983400D01*
X191172694Y-112034971D01*
X191177192Y-112038122D01*
X191249656Y-112086541D01*
X191261383Y-112098268D01*
X191275809Y-112110648D01*
X191289179Y-112120461D01*
X191289180Y-112120462D01*
X191348021Y-112184733D01*
X191351829Y-112188714D01*
X191413459Y-112250344D01*
X191422674Y-112264135D01*
X191434396Y-112279078D01*
X191445605Y-112291321D01*
X191490799Y-112365874D01*
X191493746Y-112370501D01*
X191542158Y-112442955D01*
X191548505Y-112458277D01*
X191557092Y-112475231D01*
X191565691Y-112489417D01*
X191595478Y-112571368D01*
X191597452Y-112576448D01*
X191630807Y-112656973D01*
X191630807Y-112656974D01*
X191634041Y-112673233D01*
X191639158Y-112691542D01*
X191644825Y-112707134D01*
X191658055Y-112793345D01*
X191659001Y-112798713D01*
X191676000Y-112884173D01*
X191676000Y-112900752D01*
X191677444Y-112919692D01*
X191679963Y-112936104D01*
X191676120Y-113023249D01*
X191676000Y-113028689D01*
X191676000Y-113115825D01*
X191672766Y-113132083D01*
X191670488Y-113150941D01*
X191669756Y-113167531D01*
X191648988Y-113252237D01*
X191647812Y-113257537D01*
X191630807Y-113343027D01*
X191624457Y-113358357D01*
X191618549Y-113376393D01*
X191614595Y-113392520D01*
X191577711Y-113471526D01*
X191575511Y-113476523D01*
X191542158Y-113557045D01*
X191532944Y-113570835D01*
X191523622Y-113587387D01*
X191516602Y-113602424D01*
X191465011Y-113672720D01*
X191461866Y-113677210D01*
X191413461Y-113749654D01*
X191356460Y-113806655D01*
X191351811Y-113811563D01*
X190920311Y-114292470D01*
X190026723Y-115288376D01*
X189898679Y-115405602D01*
X189799630Y-115465646D01*
X189700583Y-115525689D01*
X189482866Y-115604823D01*
X189253895Y-115639961D01*
X189022470Y-115629754D01*
X188797481Y-115574593D01*
X188692727Y-115525689D01*
X188587579Y-115476602D01*
X188490838Y-115405602D01*
X188400823Y-115339539D01*
X188326394Y-115258241D01*
X188244398Y-115168679D01*
X188162564Y-115033685D01*
X188124311Y-114970583D01*
X188045177Y-114752866D01*
X188010039Y-114523895D01*
X188020246Y-114292470D01*
X188075407Y-114067481D01*
X188126972Y-113957028D01*
X188173398Y-113857580D01*
X188173400Y-113857577D01*
X188276114Y-113717622D01*
X189031245Y-112876027D01*
X189562787Y-112283621D01*
X189573681Y-112269589D01*
X189586539Y-112250346D01*
X189643573Y-112193312D01*
X189648223Y-112188403D01*
X189663278Y-112171624D01*
X189684701Y-112152011D01*
X189688682Y-112148203D01*
X189750346Y-112086539D01*
X189764143Y-112077320D01*
X189779102Y-112065585D01*
X189791321Y-112054398D01*
X189828756Y-112031705D01*
X189865830Y-112009231D01*
X189870421Y-112006308D01*
X189942955Y-111957842D01*
X189958300Y-111951486D01*
X189975248Y-111942901D01*
X189989416Y-111934312D01*
X189989417Y-111934312D01*
X189989418Y-111934311D01*
X190071312Y-111904545D01*
X190076410Y-111902563D01*
X190156973Y-111869193D01*
X190173252Y-111865955D01*
X190191542Y-111860844D01*
X190207135Y-111855177D01*
X190293300Y-111841954D01*
X190298663Y-111841009D01*
X190384173Y-111824000D01*
X190400766Y-111824000D01*
X190419709Y-111822555D01*
X190436106Y-111820039D01*
X190523205Y-111823881D01*
X190523205Y-111823881D01*
G37*
G36*
X152523205Y-111823881D02*
G01*
X152528645Y-111824000D01*
X152615828Y-111824000D01*
X152632097Y-111827236D01*
X152650956Y-111829515D01*
X152667532Y-111830246D01*
X152752223Y-111851010D01*
X152757518Y-111852184D01*
X152843027Y-111869193D01*
X152858362Y-111875545D01*
X152876401Y-111881455D01*
X152892521Y-111885407D01*
X152971504Y-111922280D01*
X152976494Y-111924477D01*
X153057045Y-111957842D01*
X153070841Y-111967060D01*
X153087393Y-111976382D01*
X153102426Y-111983400D01*
X153172694Y-112034971D01*
X153177192Y-112038122D01*
X153249656Y-112086541D01*
X153261383Y-112098268D01*
X153275809Y-112110648D01*
X153289179Y-112120461D01*
X153289180Y-112120462D01*
X153348021Y-112184733D01*
X153351829Y-112188714D01*
X153413459Y-112250344D01*
X153422674Y-112264135D01*
X153434396Y-112279078D01*
X153445605Y-112291321D01*
X153490799Y-112365874D01*
X153493746Y-112370501D01*
X153542158Y-112442955D01*
X153548505Y-112458277D01*
X153557092Y-112475231D01*
X153565691Y-112489417D01*
X153595478Y-112571368D01*
X153597452Y-112576448D01*
X153630807Y-112656973D01*
X153630807Y-112656974D01*
X153634041Y-112673233D01*
X153639158Y-112691542D01*
X153644825Y-112707134D01*
X153658055Y-112793345D01*
X153659001Y-112798713D01*
X153676000Y-112884173D01*
X153676000Y-112900752D01*
X153677444Y-112919692D01*
X153679963Y-112936104D01*
X153676120Y-113023249D01*
X153676000Y-113028689D01*
X153676000Y-113115825D01*
X153672766Y-113132083D01*
X153670488Y-113150941D01*
X153669756Y-113167531D01*
X153648988Y-113252237D01*
X153647812Y-113257537D01*
X153630807Y-113343027D01*
X153624457Y-113358357D01*
X153618549Y-113376393D01*
X153614595Y-113392520D01*
X153577711Y-113471526D01*
X153575511Y-113476523D01*
X153542158Y-113557045D01*
X153532944Y-113570835D01*
X153523622Y-113587387D01*
X153516602Y-113602424D01*
X153465011Y-113672720D01*
X153461866Y-113677210D01*
X153413461Y-113749654D01*
X153356460Y-113806655D01*
X153351811Y-113811563D01*
X152920311Y-114292470D01*
X152026723Y-115288376D01*
X151898679Y-115405602D01*
X151799630Y-115465646D01*
X151700583Y-115525689D01*
X151482866Y-115604823D01*
X151253895Y-115639961D01*
X151022470Y-115629754D01*
X150797481Y-115574593D01*
X150692727Y-115525689D01*
X150587579Y-115476602D01*
X150490838Y-115405602D01*
X150400823Y-115339539D01*
X150326394Y-115258241D01*
X150244398Y-115168679D01*
X150162564Y-115033685D01*
X150124311Y-114970583D01*
X150045177Y-114752866D01*
X150010039Y-114523895D01*
X150020246Y-114292470D01*
X150075407Y-114067481D01*
X150126972Y-113957028D01*
X150173398Y-113857580D01*
X150173400Y-113857577D01*
X150276114Y-113717622D01*
X151031245Y-112876027D01*
X151562787Y-112283621D01*
X151573681Y-112269589D01*
X151586539Y-112250346D01*
X151643573Y-112193312D01*
X151648223Y-112188403D01*
X151663278Y-112171624D01*
X151684701Y-112152011D01*
X151688682Y-112148203D01*
X151750346Y-112086539D01*
X151764143Y-112077320D01*
X151779102Y-112065585D01*
X151791321Y-112054398D01*
X151828756Y-112031705D01*
X151865830Y-112009231D01*
X151870421Y-112006308D01*
X151942955Y-111957842D01*
X151958300Y-111951486D01*
X151975248Y-111942901D01*
X151989416Y-111934312D01*
X151989417Y-111934312D01*
X151989418Y-111934311D01*
X152071312Y-111904545D01*
X152076410Y-111902563D01*
X152156973Y-111869193D01*
X152173252Y-111865955D01*
X152191542Y-111860844D01*
X152207135Y-111855177D01*
X152293300Y-111841954D01*
X152298663Y-111841009D01*
X152384173Y-111824000D01*
X152400766Y-111824000D01*
X152419709Y-111822555D01*
X152436106Y-111820039D01*
X152523205Y-111823881D01*
X152523205Y-111823881D01*
G37*
G36*
X171523205Y-111823881D02*
G01*
X171528645Y-111824000D01*
X171615828Y-111824000D01*
X171632097Y-111827236D01*
X171650956Y-111829515D01*
X171667532Y-111830246D01*
X171752223Y-111851010D01*
X171757518Y-111852184D01*
X171843027Y-111869193D01*
X171858362Y-111875545D01*
X171876401Y-111881455D01*
X171892521Y-111885407D01*
X171971504Y-111922280D01*
X171976494Y-111924477D01*
X172057045Y-111957842D01*
X172070841Y-111967060D01*
X172087393Y-111976382D01*
X172102426Y-111983400D01*
X172172694Y-112034971D01*
X172177192Y-112038122D01*
X172249656Y-112086541D01*
X172261383Y-112098268D01*
X172275809Y-112110648D01*
X172289179Y-112120461D01*
X172289180Y-112120462D01*
X172348021Y-112184733D01*
X172351829Y-112188714D01*
X172413459Y-112250344D01*
X172422674Y-112264135D01*
X172434396Y-112279078D01*
X172445605Y-112291321D01*
X172490799Y-112365874D01*
X172493746Y-112370501D01*
X172542158Y-112442955D01*
X172548505Y-112458277D01*
X172557092Y-112475231D01*
X172565691Y-112489417D01*
X172595478Y-112571368D01*
X172597452Y-112576448D01*
X172630807Y-112656973D01*
X172630807Y-112656974D01*
X172634041Y-112673233D01*
X172639158Y-112691542D01*
X172644825Y-112707134D01*
X172658055Y-112793345D01*
X172659001Y-112798713D01*
X172676000Y-112884173D01*
X172676000Y-112900752D01*
X172677444Y-112919692D01*
X172679963Y-112936104D01*
X172676120Y-113023249D01*
X172676000Y-113028689D01*
X172676000Y-113115825D01*
X172672766Y-113132083D01*
X172670488Y-113150941D01*
X172669756Y-113167531D01*
X172648988Y-113252237D01*
X172647812Y-113257537D01*
X172630807Y-113343027D01*
X172624457Y-113358357D01*
X172618549Y-113376393D01*
X172614595Y-113392520D01*
X172577711Y-113471526D01*
X172575511Y-113476523D01*
X172542158Y-113557045D01*
X172532944Y-113570835D01*
X172523622Y-113587387D01*
X172516602Y-113602424D01*
X172465011Y-113672720D01*
X172461866Y-113677210D01*
X172413461Y-113749654D01*
X172356460Y-113806655D01*
X172351811Y-113811563D01*
X171920311Y-114292470D01*
X171026723Y-115288376D01*
X170898679Y-115405602D01*
X170799630Y-115465646D01*
X170700583Y-115525689D01*
X170482866Y-115604823D01*
X170253895Y-115639961D01*
X170022470Y-115629754D01*
X169797481Y-115574593D01*
X169692727Y-115525689D01*
X169587579Y-115476602D01*
X169490838Y-115405602D01*
X169400823Y-115339539D01*
X169326394Y-115258241D01*
X169244398Y-115168679D01*
X169162564Y-115033685D01*
X169124311Y-114970583D01*
X169045177Y-114752866D01*
X169010039Y-114523895D01*
X169020246Y-114292470D01*
X169075407Y-114067481D01*
X169126972Y-113957028D01*
X169173398Y-113857580D01*
X169173400Y-113857577D01*
X169276114Y-113717622D01*
X170031245Y-112876027D01*
X170562787Y-112283621D01*
X170573681Y-112269589D01*
X170586539Y-112250346D01*
X170643573Y-112193312D01*
X170648223Y-112188403D01*
X170663278Y-112171624D01*
X170684701Y-112152011D01*
X170688682Y-112148203D01*
X170750346Y-112086539D01*
X170764143Y-112077320D01*
X170779102Y-112065585D01*
X170791321Y-112054398D01*
X170828756Y-112031705D01*
X170865830Y-112009231D01*
X170870421Y-112006308D01*
X170942955Y-111957842D01*
X170958300Y-111951486D01*
X170975248Y-111942901D01*
X170989416Y-111934312D01*
X170989417Y-111934312D01*
X170989418Y-111934311D01*
X171071312Y-111904545D01*
X171076410Y-111902563D01*
X171156973Y-111869193D01*
X171173252Y-111865955D01*
X171191542Y-111860844D01*
X171207135Y-111855177D01*
X171293300Y-111841954D01*
X171298663Y-111841009D01*
X171384173Y-111824000D01*
X171400766Y-111824000D01*
X171419709Y-111822555D01*
X171436106Y-111820039D01*
X171523205Y-111823881D01*
X171523205Y-111823881D01*
G37*
G36*
X201860728Y-112081703D02*
G01*
X202015600Y-112145853D01*
X202154981Y-112238985D01*
X202273515Y-112357519D01*
X202366647Y-112496900D01*
X202430797Y-112651772D01*
X202463500Y-112816184D01*
X202463500Y-112983816D01*
X202430797Y-113148228D01*
X202366647Y-113303100D01*
X202273515Y-113442481D01*
X202154981Y-113561015D01*
X202015600Y-113654147D01*
X201860728Y-113718297D01*
X201696316Y-113751000D01*
X201528684Y-113751000D01*
X201364272Y-113718297D01*
X201209400Y-113654147D01*
X201070019Y-113561015D01*
X200951485Y-113442481D01*
X200858353Y-113303100D01*
X200794203Y-113148228D01*
X200761500Y-112983816D01*
X200761500Y-112816184D01*
X200794203Y-112651772D01*
X200858353Y-112496900D01*
X200951485Y-112357519D01*
X201070019Y-112238985D01*
X201209400Y-112145853D01*
X201364272Y-112081703D01*
X201528684Y-112049000D01*
X201696316Y-112049000D01*
X201860728Y-112081703D01*
X201860728Y-112081703D01*
G37*
G36*
X163760728Y-112031703D02*
G01*
X163915600Y-112095853D01*
X164054981Y-112188985D01*
X164173515Y-112307519D01*
X164266647Y-112446900D01*
X164330797Y-112601772D01*
X164363500Y-112766184D01*
X164363500Y-112933816D01*
X164330797Y-113098228D01*
X164266647Y-113253100D01*
X164173515Y-113392481D01*
X164054981Y-113511015D01*
X163915600Y-113604147D01*
X163760728Y-113668297D01*
X163596316Y-113701000D01*
X163428684Y-113701000D01*
X163264272Y-113668297D01*
X163109400Y-113604147D01*
X162970019Y-113511015D01*
X162851485Y-113392481D01*
X162758353Y-113253100D01*
X162694203Y-113098228D01*
X162661500Y-112933816D01*
X162661500Y-112766184D01*
X162694203Y-112601772D01*
X162758353Y-112446900D01*
X162851485Y-112307519D01*
X162970019Y-112188985D01*
X163109400Y-112095853D01*
X163264272Y-112031703D01*
X163428684Y-111999000D01*
X163596316Y-111999000D01*
X163760728Y-112031703D01*
X163760728Y-112031703D01*
G37*
G36*
X182810728Y-112031703D02*
G01*
X182965600Y-112095853D01*
X183104981Y-112188985D01*
X183223515Y-112307519D01*
X183316647Y-112446900D01*
X183380797Y-112601772D01*
X183413500Y-112766184D01*
X183413500Y-112933816D01*
X183380797Y-113098228D01*
X183316647Y-113253100D01*
X183223515Y-113392481D01*
X183104981Y-113511015D01*
X182965600Y-113604147D01*
X182810728Y-113668297D01*
X182646316Y-113701000D01*
X182478684Y-113701000D01*
X182314272Y-113668297D01*
X182159400Y-113604147D01*
X182020019Y-113511015D01*
X181901485Y-113392481D01*
X181808353Y-113253100D01*
X181744203Y-113098228D01*
X181711500Y-112933816D01*
X181711500Y-112766184D01*
X181744203Y-112601772D01*
X181808353Y-112446900D01*
X181901485Y-112307519D01*
X182020019Y-112188985D01*
X182159400Y-112095853D01*
X182314272Y-112031703D01*
X182478684Y-111999000D01*
X182646316Y-111999000D01*
X182810728Y-112031703D01*
X182810728Y-112031703D01*
G37*
G36*
X195628127Y-110742261D02*
G01*
X195648900Y-110744000D01*
X195655827Y-110744000D01*
X195750754Y-110762882D01*
X195754348Y-110763542D01*
X195849730Y-110779624D01*
X195856203Y-110782085D01*
X195876228Y-110787841D01*
X195883027Y-110789193D01*
X195945414Y-110815034D01*
X195972443Y-110826230D01*
X195975844Y-110827581D01*
X196066255Y-110861961D01*
X196072127Y-110865640D01*
X196090636Y-110875187D01*
X196097045Y-110877842D01*
X196177563Y-110931642D01*
X196180554Y-110933578D01*
X196262557Y-110984959D01*
X196267584Y-110989700D01*
X196283896Y-111002691D01*
X196289652Y-111006537D01*
X196358110Y-111074995D01*
X196360689Y-111077499D01*
X196431090Y-111143889D01*
X196435095Y-111149519D01*
X196448559Y-111165444D01*
X196453459Y-111170344D01*
X196507244Y-111250839D01*
X196509291Y-111253807D01*
X196565380Y-111332645D01*
X196568214Y-111338958D01*
X196578308Y-111357193D01*
X196582158Y-111362955D01*
X196619220Y-111452430D01*
X196620624Y-111455685D01*
X196660265Y-111543973D01*
X196661815Y-111550725D01*
X196668152Y-111570562D01*
X196670807Y-111576973D01*
X196689692Y-111671917D01*
X196690438Y-111675401D01*
X196712098Y-111769751D01*
X196712098Y-111769754D01*
X196712300Y-111776654D01*
X196714647Y-111797370D01*
X196716000Y-111804174D01*
X196716000Y-111900986D01*
X196716053Y-111904584D01*
X196717188Y-111943277D01*
X196716295Y-111956225D01*
X196716000Y-111964797D01*
X196716000Y-112035826D01*
X196710081Y-112065585D01*
X196709604Y-112067979D01*
X196707500Y-112083750D01*
X196669238Y-112638545D01*
X196640376Y-112809730D01*
X196558038Y-113026255D01*
X196435041Y-113222557D01*
X196276111Y-113391090D01*
X196087355Y-113525380D01*
X195876027Y-113620265D01*
X195650249Y-113672098D01*
X195418698Y-113678889D01*
X195418697Y-113678889D01*
X195355863Y-113668295D01*
X195190270Y-113640376D01*
X194973745Y-113558038D01*
X194777443Y-113435041D01*
X194608910Y-113276111D01*
X194474620Y-113087355D01*
X194379735Y-112876027D01*
X194327902Y-112650249D01*
X194322812Y-112476723D01*
X194363704Y-111883794D01*
X194364000Y-111875196D01*
X194364000Y-111804175D01*
X194382882Y-111709250D01*
X194383544Y-111705645D01*
X194389231Y-111671917D01*
X194399624Y-111610270D01*
X194402085Y-111603799D01*
X194407842Y-111583767D01*
X194409193Y-111576974D01*
X194411843Y-111570576D01*
X194446264Y-111487476D01*
X194447553Y-111484230D01*
X194481962Y-111393745D01*
X194485636Y-111387881D01*
X194495187Y-111369365D01*
X194497842Y-111362955D01*
X194551657Y-111282415D01*
X194553577Y-111279449D01*
X194604959Y-111197443D01*
X194609711Y-111192404D01*
X194622689Y-111176107D01*
X194626537Y-111170348D01*
X194694993Y-111101892D01*
X194697546Y-111099262D01*
X194718023Y-111077548D01*
X194763889Y-111028910D01*
X194769521Y-111024903D01*
X194785447Y-111011438D01*
X194790346Y-111006539D01*
X194870824Y-110952766D01*
X194873806Y-110950710D01*
X194952645Y-110894620D01*
X194958955Y-110891787D01*
X194977194Y-110881691D01*
X194982951Y-110877844D01*
X194982954Y-110877843D01*
X194982955Y-110877842D01*
X195072429Y-110840781D01*
X195075687Y-110839375D01*
X195163973Y-110799735D01*
X195170725Y-110798185D01*
X195190562Y-110791848D01*
X195196973Y-110789193D01*
X195291899Y-110770311D01*
X195295446Y-110769551D01*
X195389751Y-110747901D01*
X195392130Y-110747831D01*
X195396665Y-110747698D01*
X195417381Y-110745351D01*
X195424174Y-110744000D01*
X195520959Y-110744000D01*
X195524584Y-110743947D01*
X195621302Y-110741110D01*
X195628127Y-110742261D01*
X195628127Y-110742261D01*
G37*
G36*
X176628127Y-110742261D02*
G01*
X176648900Y-110744000D01*
X176655827Y-110744000D01*
X176750754Y-110762882D01*
X176754348Y-110763542D01*
X176849730Y-110779624D01*
X176856203Y-110782085D01*
X176876228Y-110787841D01*
X176883027Y-110789193D01*
X176945414Y-110815034D01*
X176972443Y-110826230D01*
X176975844Y-110827581D01*
X177066255Y-110861961D01*
X177072127Y-110865640D01*
X177090636Y-110875187D01*
X177097045Y-110877842D01*
X177177563Y-110931642D01*
X177180554Y-110933578D01*
X177262557Y-110984959D01*
X177267584Y-110989700D01*
X177283896Y-111002691D01*
X177289652Y-111006537D01*
X177358110Y-111074995D01*
X177360689Y-111077499D01*
X177431090Y-111143889D01*
X177435095Y-111149519D01*
X177448559Y-111165444D01*
X177453459Y-111170344D01*
X177507244Y-111250839D01*
X177509291Y-111253807D01*
X177565380Y-111332645D01*
X177568214Y-111338958D01*
X177578308Y-111357193D01*
X177582158Y-111362955D01*
X177619220Y-111452430D01*
X177620624Y-111455685D01*
X177660265Y-111543973D01*
X177661815Y-111550725D01*
X177668152Y-111570562D01*
X177670807Y-111576973D01*
X177689692Y-111671917D01*
X177690438Y-111675401D01*
X177712098Y-111769751D01*
X177712098Y-111769754D01*
X177712300Y-111776654D01*
X177714647Y-111797370D01*
X177716000Y-111804174D01*
X177716000Y-111900986D01*
X177716053Y-111904584D01*
X177717188Y-111943277D01*
X177716295Y-111956225D01*
X177716000Y-111964797D01*
X177716000Y-112035826D01*
X177710081Y-112065585D01*
X177709604Y-112067979D01*
X177707500Y-112083750D01*
X177669238Y-112638545D01*
X177640376Y-112809730D01*
X177558038Y-113026255D01*
X177435041Y-113222557D01*
X177276111Y-113391090D01*
X177087355Y-113525380D01*
X176876027Y-113620265D01*
X176650249Y-113672098D01*
X176418698Y-113678889D01*
X176418697Y-113678889D01*
X176355863Y-113668295D01*
X176190270Y-113640376D01*
X175973745Y-113558038D01*
X175777443Y-113435041D01*
X175608910Y-113276111D01*
X175474620Y-113087355D01*
X175379735Y-112876027D01*
X175327902Y-112650249D01*
X175322812Y-112476723D01*
X175363704Y-111883794D01*
X175364000Y-111875196D01*
X175364000Y-111804175D01*
X175382882Y-111709250D01*
X175383544Y-111705645D01*
X175389231Y-111671917D01*
X175399624Y-111610270D01*
X175402085Y-111603799D01*
X175407842Y-111583767D01*
X175409193Y-111576974D01*
X175411843Y-111570576D01*
X175446264Y-111487476D01*
X175447553Y-111484230D01*
X175481962Y-111393745D01*
X175485636Y-111387881D01*
X175495187Y-111369365D01*
X175497842Y-111362955D01*
X175551657Y-111282415D01*
X175553577Y-111279449D01*
X175604959Y-111197443D01*
X175609711Y-111192404D01*
X175622689Y-111176107D01*
X175626537Y-111170348D01*
X175694993Y-111101892D01*
X175697546Y-111099262D01*
X175718023Y-111077548D01*
X175763889Y-111028910D01*
X175769521Y-111024903D01*
X175785447Y-111011438D01*
X175790346Y-111006539D01*
X175870824Y-110952766D01*
X175873806Y-110950710D01*
X175952645Y-110894620D01*
X175958955Y-110891787D01*
X175977194Y-110881691D01*
X175982951Y-110877844D01*
X175982954Y-110877843D01*
X175982955Y-110877842D01*
X176072429Y-110840781D01*
X176075687Y-110839375D01*
X176163973Y-110799735D01*
X176170725Y-110798185D01*
X176190562Y-110791848D01*
X176196973Y-110789193D01*
X176291899Y-110770311D01*
X176295446Y-110769551D01*
X176389751Y-110747901D01*
X176392130Y-110747831D01*
X176396665Y-110747698D01*
X176417381Y-110745351D01*
X176424174Y-110744000D01*
X176520959Y-110744000D01*
X176524584Y-110743947D01*
X176621302Y-110741110D01*
X176628127Y-110742261D01*
X176628127Y-110742261D01*
G37*
G36*
X157628127Y-110742261D02*
G01*
X157648900Y-110744000D01*
X157655827Y-110744000D01*
X157750754Y-110762882D01*
X157754348Y-110763542D01*
X157849730Y-110779624D01*
X157856203Y-110782085D01*
X157876228Y-110787841D01*
X157883027Y-110789193D01*
X157945414Y-110815034D01*
X157972443Y-110826230D01*
X157975844Y-110827581D01*
X158066255Y-110861961D01*
X158072127Y-110865640D01*
X158090636Y-110875187D01*
X158097045Y-110877842D01*
X158177563Y-110931642D01*
X158180554Y-110933578D01*
X158262557Y-110984959D01*
X158267584Y-110989700D01*
X158283896Y-111002691D01*
X158289652Y-111006537D01*
X158358110Y-111074995D01*
X158360689Y-111077499D01*
X158431090Y-111143889D01*
X158435095Y-111149519D01*
X158448559Y-111165444D01*
X158453459Y-111170344D01*
X158507244Y-111250839D01*
X158509291Y-111253807D01*
X158565380Y-111332645D01*
X158568214Y-111338958D01*
X158578308Y-111357193D01*
X158582158Y-111362955D01*
X158619220Y-111452430D01*
X158620624Y-111455685D01*
X158660265Y-111543973D01*
X158661815Y-111550725D01*
X158668152Y-111570562D01*
X158670807Y-111576973D01*
X158689692Y-111671917D01*
X158690438Y-111675401D01*
X158712098Y-111769751D01*
X158712098Y-111769754D01*
X158712300Y-111776654D01*
X158714647Y-111797370D01*
X158716000Y-111804174D01*
X158716000Y-111900986D01*
X158716053Y-111904584D01*
X158717188Y-111943277D01*
X158716295Y-111956225D01*
X158716000Y-111964797D01*
X158716000Y-112035826D01*
X158710081Y-112065585D01*
X158709604Y-112067979D01*
X158707500Y-112083750D01*
X158669238Y-112638545D01*
X158640376Y-112809730D01*
X158558038Y-113026255D01*
X158435041Y-113222557D01*
X158276111Y-113391090D01*
X158087355Y-113525380D01*
X157876027Y-113620265D01*
X157650249Y-113672098D01*
X157418698Y-113678889D01*
X157418697Y-113678889D01*
X157355863Y-113668295D01*
X157190270Y-113640376D01*
X156973745Y-113558038D01*
X156777443Y-113435041D01*
X156608910Y-113276111D01*
X156474620Y-113087355D01*
X156379735Y-112876027D01*
X156327902Y-112650249D01*
X156322812Y-112476723D01*
X156363704Y-111883794D01*
X156364000Y-111875196D01*
X156364000Y-111804175D01*
X156382882Y-111709250D01*
X156383544Y-111705645D01*
X156389231Y-111671917D01*
X156399624Y-111610270D01*
X156402085Y-111603799D01*
X156407842Y-111583767D01*
X156409193Y-111576974D01*
X156411843Y-111570576D01*
X156446264Y-111487476D01*
X156447553Y-111484230D01*
X156481962Y-111393745D01*
X156485636Y-111387881D01*
X156495187Y-111369365D01*
X156497842Y-111362955D01*
X156551657Y-111282415D01*
X156553577Y-111279449D01*
X156604959Y-111197443D01*
X156609711Y-111192404D01*
X156622689Y-111176107D01*
X156626537Y-111170348D01*
X156694993Y-111101892D01*
X156697546Y-111099262D01*
X156718023Y-111077548D01*
X156763889Y-111028910D01*
X156769521Y-111024903D01*
X156785447Y-111011438D01*
X156790346Y-111006539D01*
X156870824Y-110952766D01*
X156873806Y-110950710D01*
X156952645Y-110894620D01*
X156958955Y-110891787D01*
X156977194Y-110881691D01*
X156982951Y-110877844D01*
X156982954Y-110877843D01*
X156982955Y-110877842D01*
X157072429Y-110840781D01*
X157075687Y-110839375D01*
X157163973Y-110799735D01*
X157170725Y-110798185D01*
X157190562Y-110791848D01*
X157196973Y-110789193D01*
X157291899Y-110770311D01*
X157295446Y-110769551D01*
X157389751Y-110747901D01*
X157392130Y-110747831D01*
X157396665Y-110747698D01*
X157417381Y-110745351D01*
X157424174Y-110744000D01*
X157520959Y-110744000D01*
X157524584Y-110743947D01*
X157621302Y-110741110D01*
X157628127Y-110742261D01*
X157628127Y-110742261D01*
G37*
G36*
X202463500Y-102793500D02*
G01*
X200761500Y-102793500D01*
X200761500Y-101091500D01*
X202463500Y-101091500D01*
X202463500Y-102793500D01*
X202463500Y-102793500D01*
G37*
G36*
X183413500Y-102793500D02*
G01*
X181711500Y-102793500D01*
X181711500Y-101091500D01*
X183413500Y-101091500D01*
X183413500Y-102793500D01*
X183413500Y-102793500D01*
G37*
G36*
X164363500Y-102793500D02*
G01*
X162661500Y-102793500D01*
X162661500Y-101091500D01*
X164363500Y-101091500D01*
X164363500Y-102793500D01*
X164363500Y-102793500D01*
G37*
G36*
X164163500Y-100293500D02*
G01*
X162861500Y-100293500D01*
X162861500Y-98591500D01*
X164163500Y-98591500D01*
X164163500Y-100293500D01*
X164163500Y-100293500D01*
G37*
G36*
X183213500Y-100293500D02*
G01*
X181911500Y-100293500D01*
X181911500Y-98591500D01*
X183213500Y-98591500D01*
X183213500Y-100293500D01*
X183213500Y-100293500D01*
G37*
G36*
X202263500Y-100293500D02*
G01*
X200961500Y-100293500D01*
X200961500Y-98591500D01*
X202263500Y-98591500D01*
X202263500Y-100293500D01*
X202263500Y-100293500D01*
G37*
G36*
X155596474Y-96033684D02*
G01*
X155814474Y-96123983D01*
X155968623Y-96187833D01*
X156303548Y-96411623D01*
X156588377Y-96696452D01*
X156812167Y-97031377D01*
X156844562Y-97109586D01*
X156966316Y-97403526D01*
X157044900Y-97798594D01*
X157044900Y-98201406D01*
X156966316Y-98596474D01*
X156915451Y-98719272D01*
X156812167Y-98968623D01*
X156588377Y-99303548D01*
X156303548Y-99588377D01*
X155968623Y-99812167D01*
X155814474Y-99876017D01*
X155596474Y-99966316D01*
X155201406Y-100044900D01*
X154798594Y-100044900D01*
X154403526Y-99966316D01*
X154185526Y-99876017D01*
X154031377Y-99812167D01*
X153696452Y-99588377D01*
X153411623Y-99303548D01*
X153187833Y-98968623D01*
X153084549Y-98719272D01*
X153033684Y-98596474D01*
X152955100Y-98201406D01*
X152955100Y-97798594D01*
X153033684Y-97403526D01*
X153155438Y-97109586D01*
X153187833Y-97031377D01*
X153411623Y-96696452D01*
X153696452Y-96411623D01*
X154031377Y-96187833D01*
X154185526Y-96123983D01*
X154403526Y-96033684D01*
X154798594Y-95955100D01*
X155201406Y-95955100D01*
X155596474Y-96033684D01*
X155596474Y-96033684D01*
G37*
G36*
X174596474Y-96033684D02*
G01*
X174814474Y-96123983D01*
X174968623Y-96187833D01*
X175303548Y-96411623D01*
X175588377Y-96696452D01*
X175812167Y-97031377D01*
X175844562Y-97109586D01*
X175966316Y-97403526D01*
X176044900Y-97798594D01*
X176044900Y-98201406D01*
X175966316Y-98596474D01*
X175915451Y-98719272D01*
X175812167Y-98968623D01*
X175588377Y-99303548D01*
X175303548Y-99588377D01*
X174968623Y-99812167D01*
X174814474Y-99876017D01*
X174596474Y-99966316D01*
X174201406Y-100044900D01*
X173798594Y-100044900D01*
X173403526Y-99966316D01*
X173185526Y-99876017D01*
X173031377Y-99812167D01*
X172696452Y-99588377D01*
X172411623Y-99303548D01*
X172187833Y-98968623D01*
X172084549Y-98719272D01*
X172033684Y-98596474D01*
X171955100Y-98201406D01*
X171955100Y-97798594D01*
X172033684Y-97403526D01*
X172155438Y-97109586D01*
X172187833Y-97031377D01*
X172411623Y-96696452D01*
X172696452Y-96411623D01*
X173031377Y-96187833D01*
X173185526Y-96123983D01*
X173403526Y-96033684D01*
X173798594Y-95955100D01*
X174201406Y-95955100D01*
X174596474Y-96033684D01*
X174596474Y-96033684D01*
G37*
G36*
X193596474Y-96033684D02*
G01*
X193814474Y-96123983D01*
X193968623Y-96187833D01*
X194303548Y-96411623D01*
X194588377Y-96696452D01*
X194812167Y-97031377D01*
X194844562Y-97109586D01*
X194966316Y-97403526D01*
X195044900Y-97798594D01*
X195044900Y-98201406D01*
X194966316Y-98596474D01*
X194915451Y-98719272D01*
X194812167Y-98968623D01*
X194588377Y-99303548D01*
X194303548Y-99588377D01*
X193968623Y-99812167D01*
X193814474Y-99876017D01*
X193596474Y-99966316D01*
X193201406Y-100044900D01*
X192798594Y-100044900D01*
X192403526Y-99966316D01*
X192185526Y-99876017D01*
X192031377Y-99812167D01*
X191696452Y-99588377D01*
X191411623Y-99303548D01*
X191187833Y-98968623D01*
X191084549Y-98719272D01*
X191033684Y-98596474D01*
X190955100Y-98201406D01*
X190955100Y-97798594D01*
X191033684Y-97403526D01*
X191155438Y-97109586D01*
X191187833Y-97031377D01*
X191411623Y-96696452D01*
X191696452Y-96411623D01*
X192031377Y-96187833D01*
X192185526Y-96123983D01*
X192403526Y-96033684D01*
X192798594Y-95955100D01*
X193201406Y-95955100D01*
X193596474Y-96033684D01*
X193596474Y-96033684D01*
G37*
G36*
X150190104Y-97109585D02*
G01*
X150358626Y-97179389D01*
X150510291Y-97280728D01*
X150639272Y-97409709D01*
X150740611Y-97561374D01*
X150810415Y-97729896D01*
X150846000Y-97908797D01*
X150846000Y-98091203D01*
X150810415Y-98270104D01*
X150740611Y-98438626D01*
X150639272Y-98590291D01*
X150510291Y-98719272D01*
X150358626Y-98820611D01*
X150190104Y-98890415D01*
X150011203Y-98926000D01*
X149828797Y-98926000D01*
X149649896Y-98890415D01*
X149481374Y-98820611D01*
X149329709Y-98719272D01*
X149200728Y-98590291D01*
X149099389Y-98438626D01*
X149029585Y-98270104D01*
X148994000Y-98091203D01*
X148994000Y-97908797D01*
X149029585Y-97729896D01*
X149099389Y-97561374D01*
X149200728Y-97409709D01*
X149329709Y-97280728D01*
X149481374Y-97179389D01*
X149649896Y-97109585D01*
X149828797Y-97074000D01*
X150011203Y-97074000D01*
X150190104Y-97109585D01*
X150190104Y-97109585D01*
G37*
G36*
X160350104Y-97109585D02*
G01*
X160518626Y-97179389D01*
X160670291Y-97280728D01*
X160799272Y-97409709D01*
X160900611Y-97561374D01*
X160970415Y-97729896D01*
X161006000Y-97908797D01*
X161006000Y-98091203D01*
X160970415Y-98270104D01*
X160900611Y-98438626D01*
X160799272Y-98590291D01*
X160670291Y-98719272D01*
X160518626Y-98820611D01*
X160350104Y-98890415D01*
X160171203Y-98926000D01*
X159988797Y-98926000D01*
X159809896Y-98890415D01*
X159641374Y-98820611D01*
X159489709Y-98719272D01*
X159360728Y-98590291D01*
X159259389Y-98438626D01*
X159189585Y-98270104D01*
X159154000Y-98091203D01*
X159154000Y-97908797D01*
X159189585Y-97729896D01*
X159259389Y-97561374D01*
X159360728Y-97409709D01*
X159489709Y-97280728D01*
X159641374Y-97179389D01*
X159809896Y-97109585D01*
X159988797Y-97074000D01*
X160171203Y-97074000D01*
X160350104Y-97109585D01*
X160350104Y-97109585D01*
G37*
G36*
X198350104Y-97109585D02*
G01*
X198518626Y-97179389D01*
X198670291Y-97280728D01*
X198799272Y-97409709D01*
X198900611Y-97561374D01*
X198970415Y-97729896D01*
X199006000Y-97908797D01*
X199006000Y-98091203D01*
X198970415Y-98270104D01*
X198900611Y-98438626D01*
X198799272Y-98590291D01*
X198670291Y-98719272D01*
X198518626Y-98820611D01*
X198350104Y-98890415D01*
X198171203Y-98926000D01*
X197988797Y-98926000D01*
X197809896Y-98890415D01*
X197641374Y-98820611D01*
X197489709Y-98719272D01*
X197360728Y-98590291D01*
X197259389Y-98438626D01*
X197189585Y-98270104D01*
X197154000Y-98091203D01*
X197154000Y-97908797D01*
X197189585Y-97729896D01*
X197259389Y-97561374D01*
X197360728Y-97409709D01*
X197489709Y-97280728D01*
X197641374Y-97179389D01*
X197809896Y-97109585D01*
X197988797Y-97074000D01*
X198171203Y-97074000D01*
X198350104Y-97109585D01*
X198350104Y-97109585D01*
G37*
G36*
X188190104Y-97109585D02*
G01*
X188358626Y-97179389D01*
X188510291Y-97280728D01*
X188639272Y-97409709D01*
X188740611Y-97561374D01*
X188810415Y-97729896D01*
X188846000Y-97908797D01*
X188846000Y-98091203D01*
X188810415Y-98270104D01*
X188740611Y-98438626D01*
X188639272Y-98590291D01*
X188510291Y-98719272D01*
X188358626Y-98820611D01*
X188190104Y-98890415D01*
X188011203Y-98926000D01*
X187828797Y-98926000D01*
X187649896Y-98890415D01*
X187481374Y-98820611D01*
X187329709Y-98719272D01*
X187200728Y-98590291D01*
X187099389Y-98438626D01*
X187029585Y-98270104D01*
X186994000Y-98091203D01*
X186994000Y-97908797D01*
X187029585Y-97729896D01*
X187099389Y-97561374D01*
X187200728Y-97409709D01*
X187329709Y-97280728D01*
X187481374Y-97179389D01*
X187649896Y-97109585D01*
X187828797Y-97074000D01*
X188011203Y-97074000D01*
X188190104Y-97109585D01*
X188190104Y-97109585D01*
G37*
G36*
X169190104Y-97109585D02*
G01*
X169358626Y-97179389D01*
X169510291Y-97280728D01*
X169639272Y-97409709D01*
X169740611Y-97561374D01*
X169810415Y-97729896D01*
X169846000Y-97908797D01*
X169846000Y-98091203D01*
X169810415Y-98270104D01*
X169740611Y-98438626D01*
X169639272Y-98590291D01*
X169510291Y-98719272D01*
X169358626Y-98820611D01*
X169190104Y-98890415D01*
X169011203Y-98926000D01*
X168828797Y-98926000D01*
X168649896Y-98890415D01*
X168481374Y-98820611D01*
X168329709Y-98719272D01*
X168200728Y-98590291D01*
X168099389Y-98438626D01*
X168029585Y-98270104D01*
X167994000Y-98091203D01*
X167994000Y-97908797D01*
X168029585Y-97729896D01*
X168099389Y-97561374D01*
X168200728Y-97409709D01*
X168329709Y-97280728D01*
X168481374Y-97179389D01*
X168649896Y-97109585D01*
X168828797Y-97074000D01*
X169011203Y-97074000D01*
X169190104Y-97109585D01*
X169190104Y-97109585D01*
G37*
G36*
X179350104Y-97109585D02*
G01*
X179518626Y-97179389D01*
X179670291Y-97280728D01*
X179799272Y-97409709D01*
X179900611Y-97561374D01*
X179970415Y-97729896D01*
X180006000Y-97908797D01*
X180006000Y-98091203D01*
X179970415Y-98270104D01*
X179900611Y-98438626D01*
X179799272Y-98590291D01*
X179670291Y-98719272D01*
X179518626Y-98820611D01*
X179350104Y-98890415D01*
X179171203Y-98926000D01*
X178988797Y-98926000D01*
X178809896Y-98890415D01*
X178641374Y-98820611D01*
X178489709Y-98719272D01*
X178360728Y-98590291D01*
X178259389Y-98438626D01*
X178189585Y-98270104D01*
X178154000Y-98091203D01*
X178154000Y-97908797D01*
X178189585Y-97729896D01*
X178259389Y-97561374D01*
X178360728Y-97409709D01*
X178489709Y-97280728D01*
X178641374Y-97179389D01*
X178809896Y-97109585D01*
X178988797Y-97074000D01*
X179171203Y-97074000D01*
X179350104Y-97109585D01*
X179350104Y-97109585D01*
G37*
G36*
X202263500Y-97493500D02*
G01*
X200961500Y-97493500D01*
X200961500Y-95791500D01*
X202263500Y-95791500D01*
X202263500Y-97493500D01*
X202263500Y-97493500D01*
G37*
G36*
X164163500Y-97493500D02*
G01*
X162861500Y-97493500D01*
X162861500Y-95791500D01*
X164163500Y-95791500D01*
X164163500Y-97493500D01*
X164163500Y-97493500D01*
G37*
G36*
X183213500Y-97493500D02*
G01*
X181911500Y-97493500D01*
X181911500Y-95791500D01*
X183213500Y-95791500D01*
X183213500Y-97493500D01*
X183213500Y-97493500D01*
G37*
G36*
X152523205Y-92823881D02*
G01*
X152528645Y-92824000D01*
X152615828Y-92824000D01*
X152632097Y-92827236D01*
X152650956Y-92829515D01*
X152667532Y-92830246D01*
X152752223Y-92851010D01*
X152757518Y-92852184D01*
X152843027Y-92869193D01*
X152858362Y-92875545D01*
X152876401Y-92881455D01*
X152892521Y-92885407D01*
X152971504Y-92922280D01*
X152976494Y-92924477D01*
X153057045Y-92957842D01*
X153070841Y-92967060D01*
X153087393Y-92976382D01*
X153102426Y-92983400D01*
X153172694Y-93034971D01*
X153177192Y-93038122D01*
X153249656Y-93086541D01*
X153261383Y-93098268D01*
X153275809Y-93110648D01*
X153289179Y-93120461D01*
X153289180Y-93120462D01*
X153348021Y-93184733D01*
X153351829Y-93188714D01*
X153413459Y-93250344D01*
X153422674Y-93264135D01*
X153434396Y-93279078D01*
X153445605Y-93291321D01*
X153490799Y-93365874D01*
X153493746Y-93370501D01*
X153505674Y-93388353D01*
X153542158Y-93442955D01*
X153548505Y-93458277D01*
X153557092Y-93475231D01*
X153565691Y-93489417D01*
X153595478Y-93571368D01*
X153597452Y-93576448D01*
X153630807Y-93656973D01*
X153630807Y-93656974D01*
X153634041Y-93673233D01*
X153639158Y-93691542D01*
X153644825Y-93707134D01*
X153658055Y-93793345D01*
X153659001Y-93798713D01*
X153676000Y-93884173D01*
X153676000Y-93900752D01*
X153677444Y-93919692D01*
X153679963Y-93936104D01*
X153676120Y-94023249D01*
X153676000Y-94028689D01*
X153676000Y-94115825D01*
X153672766Y-94132083D01*
X153670488Y-94150941D01*
X153669756Y-94167531D01*
X153648988Y-94252237D01*
X153647812Y-94257537D01*
X153630807Y-94343027D01*
X153624457Y-94358357D01*
X153618549Y-94376393D01*
X153614595Y-94392520D01*
X153577711Y-94471526D01*
X153575511Y-94476523D01*
X153542158Y-94557045D01*
X153532944Y-94570835D01*
X153523622Y-94587387D01*
X153516602Y-94602424D01*
X153465011Y-94672720D01*
X153461866Y-94677210D01*
X153413461Y-94749654D01*
X153356460Y-94806655D01*
X153351811Y-94811563D01*
X152920311Y-95292470D01*
X152026723Y-96288376D01*
X151898679Y-96405602D01*
X151799630Y-96465646D01*
X151700583Y-96525689D01*
X151482866Y-96604823D01*
X151253895Y-96639961D01*
X151022470Y-96629754D01*
X150797481Y-96574593D01*
X150692727Y-96525689D01*
X150587579Y-96476602D01*
X150490838Y-96405602D01*
X150400823Y-96339539D01*
X150326394Y-96258241D01*
X150244398Y-96168679D01*
X150162564Y-96033685D01*
X150124311Y-95970583D01*
X150045177Y-95752866D01*
X150010039Y-95523895D01*
X150020246Y-95292470D01*
X150075407Y-95067481D01*
X150126972Y-94957028D01*
X150173398Y-94857580D01*
X150173400Y-94857577D01*
X150276114Y-94717622D01*
X151009060Y-93900752D01*
X151562787Y-93283621D01*
X151573681Y-93269589D01*
X151586539Y-93250346D01*
X151643573Y-93193312D01*
X151648223Y-93188403D01*
X151663278Y-93171624D01*
X151684701Y-93152011D01*
X151688682Y-93148203D01*
X151750346Y-93086539D01*
X151764143Y-93077320D01*
X151779102Y-93065585D01*
X151791321Y-93054398D01*
X151823385Y-93034961D01*
X151865830Y-93009231D01*
X151870421Y-93006308D01*
X151942955Y-92957842D01*
X151958300Y-92951486D01*
X151975248Y-92942901D01*
X151989416Y-92934312D01*
X151989417Y-92934312D01*
X151989418Y-92934311D01*
X152071312Y-92904545D01*
X152076410Y-92902563D01*
X152156973Y-92869193D01*
X152173252Y-92865955D01*
X152191542Y-92860844D01*
X152207135Y-92855177D01*
X152293300Y-92841954D01*
X152298663Y-92841009D01*
X152384173Y-92824000D01*
X152400766Y-92824000D01*
X152419709Y-92822555D01*
X152436106Y-92820039D01*
X152523205Y-92823881D01*
X152523205Y-92823881D01*
G37*
G36*
X171523205Y-92823881D02*
G01*
X171528645Y-92824000D01*
X171615828Y-92824000D01*
X171632097Y-92827236D01*
X171650956Y-92829515D01*
X171667532Y-92830246D01*
X171752223Y-92851010D01*
X171757518Y-92852184D01*
X171843027Y-92869193D01*
X171858362Y-92875545D01*
X171876401Y-92881455D01*
X171892521Y-92885407D01*
X171971504Y-92922280D01*
X171976494Y-92924477D01*
X172057045Y-92957842D01*
X172070841Y-92967060D01*
X172087393Y-92976382D01*
X172102426Y-92983400D01*
X172172694Y-93034971D01*
X172177192Y-93038122D01*
X172249656Y-93086541D01*
X172261383Y-93098268D01*
X172275809Y-93110648D01*
X172289179Y-93120461D01*
X172289180Y-93120462D01*
X172348021Y-93184733D01*
X172351829Y-93188714D01*
X172413459Y-93250344D01*
X172422674Y-93264135D01*
X172434396Y-93279078D01*
X172445605Y-93291321D01*
X172490799Y-93365874D01*
X172493746Y-93370501D01*
X172505674Y-93388353D01*
X172542158Y-93442955D01*
X172548505Y-93458277D01*
X172557092Y-93475231D01*
X172565691Y-93489417D01*
X172595478Y-93571368D01*
X172597452Y-93576448D01*
X172630807Y-93656973D01*
X172630807Y-93656974D01*
X172634041Y-93673233D01*
X172639158Y-93691542D01*
X172644825Y-93707134D01*
X172658055Y-93793345D01*
X172659001Y-93798713D01*
X172676000Y-93884173D01*
X172676000Y-93900752D01*
X172677444Y-93919692D01*
X172679963Y-93936104D01*
X172676120Y-94023249D01*
X172676000Y-94028689D01*
X172676000Y-94115825D01*
X172672766Y-94132083D01*
X172670488Y-94150941D01*
X172669756Y-94167531D01*
X172648988Y-94252237D01*
X172647812Y-94257537D01*
X172630807Y-94343027D01*
X172624457Y-94358357D01*
X172618549Y-94376393D01*
X172614595Y-94392520D01*
X172577711Y-94471526D01*
X172575511Y-94476523D01*
X172542158Y-94557045D01*
X172532944Y-94570835D01*
X172523622Y-94587387D01*
X172516602Y-94602424D01*
X172465011Y-94672720D01*
X172461866Y-94677210D01*
X172413461Y-94749654D01*
X172356460Y-94806655D01*
X172351811Y-94811563D01*
X171920311Y-95292470D01*
X171026723Y-96288376D01*
X170898679Y-96405602D01*
X170799630Y-96465646D01*
X170700583Y-96525689D01*
X170482866Y-96604823D01*
X170253895Y-96639961D01*
X170022470Y-96629754D01*
X169797481Y-96574593D01*
X169692727Y-96525689D01*
X169587579Y-96476602D01*
X169490838Y-96405602D01*
X169400823Y-96339539D01*
X169326394Y-96258241D01*
X169244398Y-96168679D01*
X169162564Y-96033685D01*
X169124311Y-95970583D01*
X169045177Y-95752866D01*
X169010039Y-95523895D01*
X169020246Y-95292470D01*
X169075407Y-95067481D01*
X169126972Y-94957028D01*
X169173398Y-94857580D01*
X169173400Y-94857577D01*
X169276114Y-94717622D01*
X170009060Y-93900752D01*
X170562787Y-93283621D01*
X170573681Y-93269589D01*
X170586539Y-93250346D01*
X170643573Y-93193312D01*
X170648223Y-93188403D01*
X170663278Y-93171624D01*
X170684701Y-93152011D01*
X170688682Y-93148203D01*
X170750346Y-93086539D01*
X170764143Y-93077320D01*
X170779102Y-93065585D01*
X170791321Y-93054398D01*
X170823385Y-93034961D01*
X170865830Y-93009231D01*
X170870421Y-93006308D01*
X170942955Y-92957842D01*
X170958300Y-92951486D01*
X170975248Y-92942901D01*
X170989416Y-92934312D01*
X170989417Y-92934312D01*
X170989418Y-92934311D01*
X171071312Y-92904545D01*
X171076410Y-92902563D01*
X171156973Y-92869193D01*
X171173252Y-92865955D01*
X171191542Y-92860844D01*
X171207135Y-92855177D01*
X171293300Y-92841954D01*
X171298663Y-92841009D01*
X171384173Y-92824000D01*
X171400766Y-92824000D01*
X171419709Y-92822555D01*
X171436106Y-92820039D01*
X171523205Y-92823881D01*
X171523205Y-92823881D01*
G37*
G36*
X190523205Y-92823881D02*
G01*
X190528645Y-92824000D01*
X190615828Y-92824000D01*
X190632097Y-92827236D01*
X190650956Y-92829515D01*
X190667532Y-92830246D01*
X190752223Y-92851010D01*
X190757518Y-92852184D01*
X190843027Y-92869193D01*
X190858362Y-92875545D01*
X190876401Y-92881455D01*
X190892521Y-92885407D01*
X190971504Y-92922280D01*
X190976494Y-92924477D01*
X191057045Y-92957842D01*
X191070841Y-92967060D01*
X191087393Y-92976382D01*
X191102426Y-92983400D01*
X191172694Y-93034971D01*
X191177192Y-93038122D01*
X191249656Y-93086541D01*
X191261383Y-93098268D01*
X191275809Y-93110648D01*
X191289179Y-93120461D01*
X191289180Y-93120462D01*
X191348021Y-93184733D01*
X191351829Y-93188714D01*
X191413459Y-93250344D01*
X191422674Y-93264135D01*
X191434396Y-93279078D01*
X191445605Y-93291321D01*
X191490799Y-93365874D01*
X191493746Y-93370501D01*
X191505674Y-93388353D01*
X191542158Y-93442955D01*
X191548505Y-93458277D01*
X191557092Y-93475231D01*
X191565691Y-93489417D01*
X191595478Y-93571368D01*
X191597452Y-93576448D01*
X191630807Y-93656973D01*
X191630807Y-93656974D01*
X191634041Y-93673233D01*
X191639158Y-93691542D01*
X191644825Y-93707134D01*
X191658055Y-93793345D01*
X191659001Y-93798713D01*
X191676000Y-93884173D01*
X191676000Y-93900752D01*
X191677444Y-93919692D01*
X191679963Y-93936104D01*
X191676120Y-94023249D01*
X191676000Y-94028689D01*
X191676000Y-94115825D01*
X191672766Y-94132083D01*
X191670488Y-94150941D01*
X191669756Y-94167531D01*
X191648988Y-94252237D01*
X191647812Y-94257537D01*
X191630807Y-94343027D01*
X191624457Y-94358357D01*
X191618549Y-94376393D01*
X191614595Y-94392520D01*
X191577711Y-94471526D01*
X191575511Y-94476523D01*
X191542158Y-94557045D01*
X191532944Y-94570835D01*
X191523622Y-94587387D01*
X191516602Y-94602424D01*
X191465011Y-94672720D01*
X191461866Y-94677210D01*
X191413461Y-94749654D01*
X191356460Y-94806655D01*
X191351811Y-94811563D01*
X190920311Y-95292470D01*
X190026723Y-96288376D01*
X189898679Y-96405602D01*
X189799630Y-96465646D01*
X189700583Y-96525689D01*
X189482866Y-96604823D01*
X189253895Y-96639961D01*
X189022470Y-96629754D01*
X188797481Y-96574593D01*
X188692727Y-96525689D01*
X188587579Y-96476602D01*
X188490838Y-96405602D01*
X188400823Y-96339539D01*
X188326394Y-96258241D01*
X188244398Y-96168679D01*
X188162564Y-96033685D01*
X188124311Y-95970583D01*
X188045177Y-95752866D01*
X188010039Y-95523895D01*
X188020246Y-95292470D01*
X188075407Y-95067481D01*
X188126972Y-94957028D01*
X188173398Y-94857580D01*
X188173400Y-94857577D01*
X188276114Y-94717622D01*
X189009060Y-93900752D01*
X189562787Y-93283621D01*
X189573681Y-93269589D01*
X189586539Y-93250346D01*
X189643573Y-93193312D01*
X189648223Y-93188403D01*
X189663278Y-93171624D01*
X189684701Y-93152011D01*
X189688682Y-93148203D01*
X189750346Y-93086539D01*
X189764143Y-93077320D01*
X189779102Y-93065585D01*
X189791321Y-93054398D01*
X189823385Y-93034961D01*
X189865830Y-93009231D01*
X189870421Y-93006308D01*
X189942955Y-92957842D01*
X189958300Y-92951486D01*
X189975248Y-92942901D01*
X189989416Y-92934312D01*
X189989417Y-92934312D01*
X189989418Y-92934311D01*
X190071312Y-92904545D01*
X190076410Y-92902563D01*
X190156973Y-92869193D01*
X190173252Y-92865955D01*
X190191542Y-92860844D01*
X190207135Y-92855177D01*
X190293300Y-92841954D01*
X190298663Y-92841009D01*
X190384173Y-92824000D01*
X190400766Y-92824000D01*
X190419709Y-92822555D01*
X190436106Y-92820039D01*
X190523205Y-92823881D01*
X190523205Y-92823881D01*
G37*
G36*
X182810728Y-93324203D02*
G01*
X182965600Y-93388353D01*
X183104981Y-93481485D01*
X183223515Y-93600019D01*
X183316647Y-93739400D01*
X183380797Y-93894272D01*
X183413500Y-94058684D01*
X183413500Y-94226316D01*
X183380797Y-94390728D01*
X183316647Y-94545600D01*
X183223515Y-94684981D01*
X183104981Y-94803515D01*
X182965600Y-94896647D01*
X182810728Y-94960797D01*
X182646316Y-94993500D01*
X182478684Y-94993500D01*
X182314272Y-94960797D01*
X182159400Y-94896647D01*
X182020019Y-94803515D01*
X181901485Y-94684981D01*
X181808353Y-94545600D01*
X181744203Y-94390728D01*
X181711500Y-94226316D01*
X181711500Y-94058684D01*
X181744203Y-93894272D01*
X181808353Y-93739400D01*
X181901485Y-93600019D01*
X182020019Y-93481485D01*
X182159400Y-93388353D01*
X182314272Y-93324203D01*
X182478684Y-93291500D01*
X182646316Y-93291500D01*
X182810728Y-93324203D01*
X182810728Y-93324203D01*
G37*
G36*
X163760728Y-93324203D02*
G01*
X163915600Y-93388353D01*
X164054981Y-93481485D01*
X164173515Y-93600019D01*
X164266647Y-93739400D01*
X164330797Y-93894272D01*
X164363500Y-94058684D01*
X164363500Y-94226316D01*
X164330797Y-94390728D01*
X164266647Y-94545600D01*
X164173515Y-94684981D01*
X164054981Y-94803515D01*
X163915600Y-94896647D01*
X163760728Y-94960797D01*
X163596316Y-94993500D01*
X163428684Y-94993500D01*
X163264272Y-94960797D01*
X163109400Y-94896647D01*
X162970019Y-94803515D01*
X162851485Y-94684981D01*
X162758353Y-94545600D01*
X162694203Y-94390728D01*
X162661500Y-94226316D01*
X162661500Y-94058684D01*
X162694203Y-93894272D01*
X162758353Y-93739400D01*
X162851485Y-93600019D01*
X162970019Y-93481485D01*
X163109400Y-93388353D01*
X163264272Y-93324203D01*
X163428684Y-93291500D01*
X163596316Y-93291500D01*
X163760728Y-93324203D01*
X163760728Y-93324203D01*
G37*
G36*
X201860728Y-93324203D02*
G01*
X202015600Y-93388353D01*
X202154981Y-93481485D01*
X202273515Y-93600019D01*
X202366647Y-93739400D01*
X202430797Y-93894272D01*
X202463500Y-94058684D01*
X202463500Y-94226316D01*
X202430797Y-94390728D01*
X202366647Y-94545600D01*
X202273515Y-94684981D01*
X202154981Y-94803515D01*
X202015600Y-94896647D01*
X201860728Y-94960797D01*
X201696316Y-94993500D01*
X201528684Y-94993500D01*
X201364272Y-94960797D01*
X201209400Y-94896647D01*
X201070019Y-94803515D01*
X200951485Y-94684981D01*
X200858353Y-94545600D01*
X200794203Y-94390728D01*
X200761500Y-94226316D01*
X200761500Y-94058684D01*
X200794203Y-93894272D01*
X200858353Y-93739400D01*
X200951485Y-93600019D01*
X201070019Y-93481485D01*
X201209400Y-93388353D01*
X201364272Y-93324203D01*
X201528684Y-93291500D01*
X201696316Y-93291500D01*
X201860728Y-93324203D01*
X201860728Y-93324203D01*
G37*
G36*
X176628127Y-91742261D02*
G01*
X176648900Y-91744000D01*
X176655827Y-91744000D01*
X176750754Y-91762882D01*
X176754348Y-91763542D01*
X176849730Y-91779624D01*
X176856203Y-91782085D01*
X176876228Y-91787841D01*
X176883027Y-91789193D01*
X176945414Y-91815034D01*
X176972443Y-91826230D01*
X176975844Y-91827581D01*
X177066255Y-91861961D01*
X177072127Y-91865640D01*
X177090636Y-91875187D01*
X177097045Y-91877842D01*
X177177563Y-91931642D01*
X177180554Y-91933578D01*
X177262557Y-91984959D01*
X177267584Y-91989700D01*
X177283896Y-92002691D01*
X177289652Y-92006537D01*
X177358110Y-92074995D01*
X177360689Y-92077499D01*
X177431090Y-92143889D01*
X177435095Y-92149519D01*
X177448559Y-92165444D01*
X177453459Y-92170344D01*
X177507244Y-92250839D01*
X177509291Y-92253807D01*
X177565380Y-92332645D01*
X177568214Y-92338958D01*
X177578308Y-92357193D01*
X177582158Y-92362955D01*
X177619220Y-92452430D01*
X177620624Y-92455685D01*
X177660265Y-92543973D01*
X177661815Y-92550725D01*
X177668152Y-92570562D01*
X177670807Y-92576973D01*
X177689692Y-92671917D01*
X177690438Y-92675401D01*
X177712098Y-92769751D01*
X177712098Y-92769754D01*
X177712300Y-92776654D01*
X177714647Y-92797370D01*
X177716000Y-92804174D01*
X177716000Y-92900986D01*
X177716053Y-92904584D01*
X177717188Y-92943277D01*
X177716295Y-92956225D01*
X177716000Y-92964797D01*
X177716000Y-93035826D01*
X177710081Y-93065585D01*
X177709604Y-93067979D01*
X177707500Y-93083750D01*
X177669238Y-93638545D01*
X177640376Y-93809730D01*
X177558038Y-94026255D01*
X177435041Y-94222557D01*
X177276111Y-94391090D01*
X177087355Y-94525380D01*
X176876027Y-94620265D01*
X176650249Y-94672098D01*
X176418698Y-94678889D01*
X176418697Y-94678889D01*
X176373012Y-94671186D01*
X176190270Y-94640376D01*
X175973745Y-94558038D01*
X175777443Y-94435041D01*
X175608910Y-94276111D01*
X175474620Y-94087355D01*
X175379735Y-93876027D01*
X175327902Y-93650249D01*
X175322812Y-93476723D01*
X175363704Y-92883794D01*
X175364000Y-92875196D01*
X175364000Y-92804175D01*
X175382882Y-92709250D01*
X175383544Y-92705645D01*
X175389231Y-92671917D01*
X175399624Y-92610270D01*
X175402085Y-92603799D01*
X175407842Y-92583767D01*
X175409193Y-92576974D01*
X175411843Y-92570576D01*
X175446264Y-92487476D01*
X175447553Y-92484230D01*
X175481962Y-92393745D01*
X175485636Y-92387881D01*
X175495187Y-92369365D01*
X175497842Y-92362955D01*
X175551657Y-92282415D01*
X175553577Y-92279449D01*
X175604959Y-92197443D01*
X175609711Y-92192404D01*
X175622689Y-92176107D01*
X175626537Y-92170348D01*
X175694993Y-92101892D01*
X175697546Y-92099262D01*
X175718023Y-92077548D01*
X175763889Y-92028910D01*
X175769521Y-92024903D01*
X175785447Y-92011438D01*
X175790346Y-92006539D01*
X175870824Y-91952766D01*
X175873806Y-91950710D01*
X175952645Y-91894620D01*
X175958955Y-91891787D01*
X175977194Y-91881691D01*
X175982951Y-91877844D01*
X175982954Y-91877843D01*
X175982955Y-91877842D01*
X176072429Y-91840781D01*
X176075687Y-91839375D01*
X176163973Y-91799735D01*
X176170725Y-91798185D01*
X176190562Y-91791848D01*
X176196973Y-91789193D01*
X176291899Y-91770311D01*
X176295446Y-91769551D01*
X176389751Y-91747901D01*
X176392130Y-91747831D01*
X176396665Y-91747698D01*
X176417381Y-91745351D01*
X176424174Y-91744000D01*
X176520959Y-91744000D01*
X176524584Y-91743947D01*
X176621302Y-91741110D01*
X176628127Y-91742261D01*
X176628127Y-91742261D01*
G37*
G36*
X195628127Y-91742261D02*
G01*
X195648900Y-91744000D01*
X195655827Y-91744000D01*
X195750754Y-91762882D01*
X195754348Y-91763542D01*
X195849730Y-91779624D01*
X195856203Y-91782085D01*
X195876228Y-91787841D01*
X195883027Y-91789193D01*
X195945414Y-91815034D01*
X195972443Y-91826230D01*
X195975844Y-91827581D01*
X196066255Y-91861961D01*
X196072127Y-91865640D01*
X196090636Y-91875187D01*
X196097045Y-91877842D01*
X196177563Y-91931642D01*
X196180554Y-91933578D01*
X196262557Y-91984959D01*
X196267584Y-91989700D01*
X196283896Y-92002691D01*
X196289652Y-92006537D01*
X196358110Y-92074995D01*
X196360689Y-92077499D01*
X196431090Y-92143889D01*
X196435095Y-92149519D01*
X196448559Y-92165444D01*
X196453459Y-92170344D01*
X196507244Y-92250839D01*
X196509291Y-92253807D01*
X196565380Y-92332645D01*
X196568214Y-92338958D01*
X196578308Y-92357193D01*
X196582158Y-92362955D01*
X196619220Y-92452430D01*
X196620624Y-92455685D01*
X196660265Y-92543973D01*
X196661815Y-92550725D01*
X196668152Y-92570562D01*
X196670807Y-92576973D01*
X196689692Y-92671917D01*
X196690438Y-92675401D01*
X196712098Y-92769751D01*
X196712098Y-92769754D01*
X196712300Y-92776654D01*
X196714647Y-92797370D01*
X196716000Y-92804174D01*
X196716000Y-92900986D01*
X196716053Y-92904584D01*
X196717188Y-92943277D01*
X196716295Y-92956225D01*
X196716000Y-92964797D01*
X196716000Y-93035826D01*
X196710081Y-93065585D01*
X196709604Y-93067979D01*
X196707500Y-93083750D01*
X196669238Y-93638545D01*
X196640376Y-93809730D01*
X196558038Y-94026255D01*
X196435041Y-94222557D01*
X196276111Y-94391090D01*
X196087355Y-94525380D01*
X195876027Y-94620265D01*
X195650249Y-94672098D01*
X195418698Y-94678889D01*
X195418697Y-94678889D01*
X195373012Y-94671186D01*
X195190270Y-94640376D01*
X194973745Y-94558038D01*
X194777443Y-94435041D01*
X194608910Y-94276111D01*
X194474620Y-94087355D01*
X194379735Y-93876027D01*
X194327902Y-93650249D01*
X194322812Y-93476723D01*
X194363704Y-92883794D01*
X194364000Y-92875196D01*
X194364000Y-92804175D01*
X194382882Y-92709250D01*
X194383544Y-92705645D01*
X194389231Y-92671917D01*
X194399624Y-92610270D01*
X194402085Y-92603799D01*
X194407842Y-92583767D01*
X194409193Y-92576974D01*
X194411843Y-92570576D01*
X194446264Y-92487476D01*
X194447553Y-92484230D01*
X194481962Y-92393745D01*
X194485636Y-92387881D01*
X194495187Y-92369365D01*
X194497842Y-92362955D01*
X194551657Y-92282415D01*
X194553577Y-92279449D01*
X194604959Y-92197443D01*
X194609711Y-92192404D01*
X194622689Y-92176107D01*
X194626537Y-92170348D01*
X194694993Y-92101892D01*
X194697546Y-92099262D01*
X194718023Y-92077548D01*
X194763889Y-92028910D01*
X194769521Y-92024903D01*
X194785447Y-92011438D01*
X194790346Y-92006539D01*
X194870824Y-91952766D01*
X194873806Y-91950710D01*
X194952645Y-91894620D01*
X194958955Y-91891787D01*
X194977194Y-91881691D01*
X194982951Y-91877844D01*
X194982954Y-91877843D01*
X194982955Y-91877842D01*
X195072429Y-91840781D01*
X195075687Y-91839375D01*
X195163973Y-91799735D01*
X195170725Y-91798185D01*
X195190562Y-91791848D01*
X195196973Y-91789193D01*
X195291899Y-91770311D01*
X195295446Y-91769551D01*
X195389751Y-91747901D01*
X195392130Y-91747831D01*
X195396665Y-91747698D01*
X195417381Y-91745351D01*
X195424174Y-91744000D01*
X195520959Y-91744000D01*
X195524584Y-91743947D01*
X195621302Y-91741110D01*
X195628127Y-91742261D01*
X195628127Y-91742261D01*
G37*
G36*
X157628127Y-91742261D02*
G01*
X157648900Y-91744000D01*
X157655827Y-91744000D01*
X157750754Y-91762882D01*
X157754348Y-91763542D01*
X157849730Y-91779624D01*
X157856203Y-91782085D01*
X157876228Y-91787841D01*
X157883027Y-91789193D01*
X157945414Y-91815034D01*
X157972443Y-91826230D01*
X157975844Y-91827581D01*
X158066255Y-91861961D01*
X158072127Y-91865640D01*
X158090636Y-91875187D01*
X158097045Y-91877842D01*
X158177563Y-91931642D01*
X158180554Y-91933578D01*
X158262557Y-91984959D01*
X158267584Y-91989700D01*
X158283896Y-92002691D01*
X158289652Y-92006537D01*
X158358110Y-92074995D01*
X158360689Y-92077499D01*
X158431090Y-92143889D01*
X158435095Y-92149519D01*
X158448559Y-92165444D01*
X158453459Y-92170344D01*
X158507244Y-92250839D01*
X158509291Y-92253807D01*
X158565380Y-92332645D01*
X158568214Y-92338958D01*
X158578308Y-92357193D01*
X158582158Y-92362955D01*
X158619220Y-92452430D01*
X158620624Y-92455685D01*
X158660265Y-92543973D01*
X158661815Y-92550725D01*
X158668152Y-92570562D01*
X158670807Y-92576973D01*
X158689692Y-92671917D01*
X158690438Y-92675401D01*
X158712098Y-92769751D01*
X158712098Y-92769754D01*
X158712300Y-92776654D01*
X158714647Y-92797370D01*
X158716000Y-92804174D01*
X158716000Y-92900986D01*
X158716053Y-92904584D01*
X158717188Y-92943277D01*
X158716295Y-92956225D01*
X158716000Y-92964797D01*
X158716000Y-93035826D01*
X158710081Y-93065585D01*
X158709604Y-93067979D01*
X158707500Y-93083750D01*
X158669238Y-93638545D01*
X158640376Y-93809730D01*
X158558038Y-94026255D01*
X158435041Y-94222557D01*
X158276111Y-94391090D01*
X158087355Y-94525380D01*
X157876027Y-94620265D01*
X157650249Y-94672098D01*
X157418698Y-94678889D01*
X157418697Y-94678889D01*
X157373012Y-94671186D01*
X157190270Y-94640376D01*
X156973745Y-94558038D01*
X156777443Y-94435041D01*
X156608910Y-94276111D01*
X156474620Y-94087355D01*
X156379735Y-93876027D01*
X156327902Y-93650249D01*
X156322812Y-93476723D01*
X156363704Y-92883794D01*
X156364000Y-92875196D01*
X156364000Y-92804175D01*
X156382882Y-92709250D01*
X156383544Y-92705645D01*
X156389231Y-92671917D01*
X156399624Y-92610270D01*
X156402085Y-92603799D01*
X156407842Y-92583767D01*
X156409193Y-92576974D01*
X156411843Y-92570576D01*
X156446264Y-92487476D01*
X156447553Y-92484230D01*
X156481962Y-92393745D01*
X156485636Y-92387881D01*
X156495187Y-92369365D01*
X156497842Y-92362955D01*
X156551657Y-92282415D01*
X156553577Y-92279449D01*
X156604959Y-92197443D01*
X156609711Y-92192404D01*
X156622689Y-92176107D01*
X156626537Y-92170348D01*
X156694993Y-92101892D01*
X156697546Y-92099262D01*
X156718023Y-92077548D01*
X156763889Y-92028910D01*
X156769521Y-92024903D01*
X156785447Y-92011438D01*
X156790346Y-92006539D01*
X156870824Y-91952766D01*
X156873806Y-91950710D01*
X156952645Y-91894620D01*
X156958955Y-91891787D01*
X156977194Y-91881691D01*
X156982951Y-91877844D01*
X156982954Y-91877843D01*
X156982955Y-91877842D01*
X157072429Y-91840781D01*
X157075687Y-91839375D01*
X157163973Y-91799735D01*
X157170725Y-91798185D01*
X157190562Y-91791848D01*
X157196973Y-91789193D01*
X157291899Y-91770311D01*
X157295446Y-91769551D01*
X157389751Y-91747901D01*
X157392130Y-91747831D01*
X157396665Y-91747698D01*
X157417381Y-91745351D01*
X157424174Y-91744000D01*
X157520959Y-91744000D01*
X157524584Y-91743947D01*
X157621302Y-91741110D01*
X157628127Y-91742261D01*
X157628127Y-91742261D01*
G37*
G36*
X183413500Y-83751000D02*
G01*
X181711500Y-83751000D01*
X181711500Y-82049000D01*
X183413500Y-82049000D01*
X183413500Y-83751000D01*
X183413500Y-83751000D01*
G37*
G36*
X164363500Y-83743500D02*
G01*
X162661500Y-83743500D01*
X162661500Y-82041500D01*
X164363500Y-82041500D01*
X164363500Y-83743500D01*
X164363500Y-83743500D01*
G37*
G36*
X202463500Y-83743500D02*
G01*
X200761500Y-83743500D01*
X200761500Y-82041500D01*
X202463500Y-82041500D01*
X202463500Y-83743500D01*
X202463500Y-83743500D01*
G37*
G36*
X136640483Y-81578335D02*
G01*
X136809240Y-81648236D01*
X136961118Y-81749718D01*
X137090282Y-81878882D01*
X137191764Y-82030760D01*
X137261665Y-82199517D01*
X137297300Y-82378668D01*
X137297300Y-82561332D01*
X137261665Y-82740483D01*
X137191764Y-82909240D01*
X137090282Y-83061118D01*
X136961118Y-83190282D01*
X136809240Y-83291764D01*
X136640483Y-83361665D01*
X136461332Y-83397300D01*
X136278668Y-83397300D01*
X136099517Y-83361665D01*
X135930760Y-83291764D01*
X135778882Y-83190282D01*
X135649718Y-83061118D01*
X135548236Y-82909240D01*
X135478335Y-82740483D01*
X135442700Y-82561332D01*
X135442700Y-82378668D01*
X135478335Y-82199517D01*
X135548236Y-82030760D01*
X135649718Y-81878882D01*
X135778882Y-81749718D01*
X135930760Y-81648236D01*
X136099517Y-81578335D01*
X136278668Y-81542700D01*
X136461332Y-81542700D01*
X136640483Y-81578335D01*
X136640483Y-81578335D01*
G37*
G36*
X121400483Y-81578335D02*
G01*
X121569240Y-81648236D01*
X121721118Y-81749718D01*
X121850282Y-81878882D01*
X121951764Y-82030760D01*
X122021665Y-82199517D01*
X122057300Y-82378668D01*
X122057300Y-82561332D01*
X122021665Y-82740483D01*
X121951764Y-82909240D01*
X121850282Y-83061118D01*
X121721118Y-83190282D01*
X121569240Y-83291764D01*
X121400483Y-83361665D01*
X121221332Y-83397300D01*
X121038668Y-83397300D01*
X120859517Y-83361665D01*
X120690760Y-83291764D01*
X120538882Y-83190282D01*
X120409718Y-83061118D01*
X120308236Y-82909240D01*
X120238335Y-82740483D01*
X120202700Y-82561332D01*
X120202700Y-82378668D01*
X120238335Y-82199517D01*
X120308236Y-82030760D01*
X120409718Y-81878882D01*
X120538882Y-81749718D01*
X120690760Y-81648236D01*
X120859517Y-81578335D01*
X121038668Y-81542700D01*
X121221332Y-81542700D01*
X121400483Y-81578335D01*
X121400483Y-81578335D01*
G37*
G36*
X183213500Y-81251000D02*
G01*
X181911500Y-81251000D01*
X181911500Y-79549000D01*
X183213500Y-79549000D01*
X183213500Y-81251000D01*
X183213500Y-81251000D01*
G37*
G36*
X202263500Y-81243500D02*
G01*
X200961500Y-81243500D01*
X200961500Y-79541500D01*
X202263500Y-79541500D01*
X202263500Y-81243500D01*
X202263500Y-81243500D01*
G37*
G36*
X164163500Y-81243500D02*
G01*
X162861500Y-81243500D01*
X162861500Y-79541500D01*
X164163500Y-79541500D01*
X164163500Y-81243500D01*
X164163500Y-81243500D01*
G37*
G36*
X193596474Y-77033684D02*
G01*
X193803693Y-77119517D01*
X193968623Y-77187833D01*
X194303548Y-77411623D01*
X194588377Y-77696452D01*
X194812167Y-78031377D01*
X194844562Y-78109586D01*
X194966316Y-78403526D01*
X195044900Y-78798594D01*
X195044900Y-79201406D01*
X194966316Y-79596474D01*
X194915451Y-79719272D01*
X194812167Y-79968623D01*
X194588377Y-80303548D01*
X194303548Y-80588377D01*
X193968623Y-80812167D01*
X193814474Y-80876017D01*
X193596474Y-80966316D01*
X193201406Y-81044900D01*
X192798594Y-81044900D01*
X192403526Y-80966316D01*
X192185526Y-80876017D01*
X192031377Y-80812167D01*
X191696452Y-80588377D01*
X191411623Y-80303548D01*
X191187833Y-79968623D01*
X191084549Y-79719272D01*
X191033684Y-79596474D01*
X190955100Y-79201406D01*
X190955100Y-78798594D01*
X191033684Y-78403526D01*
X191155438Y-78109586D01*
X191187833Y-78031377D01*
X191411623Y-77696452D01*
X191696452Y-77411623D01*
X192031377Y-77187833D01*
X192196307Y-77119517D01*
X192403526Y-77033684D01*
X192798594Y-76955100D01*
X193201406Y-76955100D01*
X193596474Y-77033684D01*
X193596474Y-77033684D01*
G37*
G36*
X174596474Y-77033684D02*
G01*
X174803693Y-77119517D01*
X174968623Y-77187833D01*
X175303548Y-77411623D01*
X175588377Y-77696452D01*
X175812167Y-78031377D01*
X175844562Y-78109586D01*
X175966316Y-78403526D01*
X176044900Y-78798594D01*
X176044900Y-79201406D01*
X175966316Y-79596474D01*
X175915451Y-79719272D01*
X175812167Y-79968623D01*
X175588377Y-80303548D01*
X175303548Y-80588377D01*
X174968623Y-80812167D01*
X174814474Y-80876017D01*
X174596474Y-80966316D01*
X174201406Y-81044900D01*
X173798594Y-81044900D01*
X173403526Y-80966316D01*
X173185526Y-80876017D01*
X173031377Y-80812167D01*
X172696452Y-80588377D01*
X172411623Y-80303548D01*
X172187833Y-79968623D01*
X172084549Y-79719272D01*
X172033684Y-79596474D01*
X171955100Y-79201406D01*
X171955100Y-78798594D01*
X172033684Y-78403526D01*
X172155438Y-78109586D01*
X172187833Y-78031377D01*
X172411623Y-77696452D01*
X172696452Y-77411623D01*
X173031377Y-77187833D01*
X173196307Y-77119517D01*
X173403526Y-77033684D01*
X173798594Y-76955100D01*
X174201406Y-76955100D01*
X174596474Y-77033684D01*
X174596474Y-77033684D01*
G37*
G36*
X155596474Y-77033684D02*
G01*
X155803693Y-77119517D01*
X155968623Y-77187833D01*
X156303548Y-77411623D01*
X156588377Y-77696452D01*
X156812167Y-78031377D01*
X156844562Y-78109586D01*
X156966316Y-78403526D01*
X157044900Y-78798594D01*
X157044900Y-79201406D01*
X156966316Y-79596474D01*
X156915451Y-79719272D01*
X156812167Y-79968623D01*
X156588377Y-80303548D01*
X156303548Y-80588377D01*
X155968623Y-80812167D01*
X155814474Y-80876017D01*
X155596474Y-80966316D01*
X155201406Y-81044900D01*
X154798594Y-81044900D01*
X154403526Y-80966316D01*
X154185526Y-80876017D01*
X154031377Y-80812167D01*
X153696452Y-80588377D01*
X153411623Y-80303548D01*
X153187833Y-79968623D01*
X153084549Y-79719272D01*
X153033684Y-79596474D01*
X152955100Y-79201406D01*
X152955100Y-78798594D01*
X153033684Y-78403526D01*
X153155438Y-78109586D01*
X153187833Y-78031377D01*
X153411623Y-77696452D01*
X153696452Y-77411623D01*
X154031377Y-77187833D01*
X154196307Y-77119517D01*
X154403526Y-77033684D01*
X154798594Y-76955100D01*
X155201406Y-76955100D01*
X155596474Y-77033684D01*
X155596474Y-77033684D01*
G37*
G36*
X136640483Y-79038335D02*
G01*
X136809240Y-79108236D01*
X136961118Y-79209718D01*
X137090282Y-79338882D01*
X137191764Y-79490760D01*
X137261665Y-79659517D01*
X137297300Y-79838668D01*
X137297300Y-80021332D01*
X137261665Y-80200483D01*
X137191764Y-80369240D01*
X137090282Y-80521118D01*
X136961118Y-80650282D01*
X136809240Y-80751764D01*
X136640483Y-80821665D01*
X136461332Y-80857300D01*
X136278668Y-80857300D01*
X136099517Y-80821665D01*
X135930760Y-80751764D01*
X135778882Y-80650282D01*
X135649718Y-80521118D01*
X135548236Y-80369240D01*
X135478335Y-80200483D01*
X135442700Y-80021332D01*
X135442700Y-79838668D01*
X135478335Y-79659517D01*
X135548236Y-79490760D01*
X135649718Y-79338882D01*
X135778882Y-79209718D01*
X135930760Y-79108236D01*
X136099517Y-79038335D01*
X136278668Y-79002700D01*
X136461332Y-79002700D01*
X136640483Y-79038335D01*
X136640483Y-79038335D01*
G37*
G36*
X121400483Y-79038335D02*
G01*
X121569240Y-79108236D01*
X121721118Y-79209718D01*
X121850282Y-79338882D01*
X121951764Y-79490760D01*
X122021665Y-79659517D01*
X122057300Y-79838668D01*
X122057300Y-80021332D01*
X122021665Y-80200483D01*
X121951764Y-80369240D01*
X121850282Y-80521118D01*
X121721118Y-80650282D01*
X121569240Y-80751764D01*
X121400483Y-80821665D01*
X121221332Y-80857300D01*
X121038668Y-80857300D01*
X120859517Y-80821665D01*
X120690760Y-80751764D01*
X120538882Y-80650282D01*
X120409718Y-80521118D01*
X120308236Y-80369240D01*
X120238335Y-80200483D01*
X120202700Y-80021332D01*
X120202700Y-79838668D01*
X120238335Y-79659517D01*
X120308236Y-79490760D01*
X120409718Y-79338882D01*
X120538882Y-79209718D01*
X120690760Y-79108236D01*
X120859517Y-79038335D01*
X121038668Y-79002700D01*
X121221332Y-79002700D01*
X121400483Y-79038335D01*
X121400483Y-79038335D01*
G37*
G36*
X198350104Y-78109585D02*
G01*
X198518626Y-78179389D01*
X198670291Y-78280728D01*
X198799272Y-78409709D01*
X198900611Y-78561374D01*
X198970415Y-78729896D01*
X199006000Y-78908797D01*
X199006000Y-79091203D01*
X198970415Y-79270104D01*
X198900611Y-79438626D01*
X198799272Y-79590291D01*
X198670291Y-79719272D01*
X198518626Y-79820611D01*
X198350104Y-79890415D01*
X198171203Y-79926000D01*
X197988797Y-79926000D01*
X197809896Y-79890415D01*
X197641374Y-79820611D01*
X197489709Y-79719272D01*
X197360728Y-79590291D01*
X197259389Y-79438626D01*
X197189585Y-79270104D01*
X197154000Y-79091203D01*
X197154000Y-78908797D01*
X197189585Y-78729896D01*
X197259389Y-78561374D01*
X197360728Y-78409709D01*
X197489709Y-78280728D01*
X197641374Y-78179389D01*
X197809896Y-78109585D01*
X197988797Y-78074000D01*
X198171203Y-78074000D01*
X198350104Y-78109585D01*
X198350104Y-78109585D01*
G37*
G36*
X188190104Y-78109585D02*
G01*
X188358626Y-78179389D01*
X188510291Y-78280728D01*
X188639272Y-78409709D01*
X188740611Y-78561374D01*
X188810415Y-78729896D01*
X188846000Y-78908797D01*
X188846000Y-79091203D01*
X188810415Y-79270104D01*
X188740611Y-79438626D01*
X188639272Y-79590291D01*
X188510291Y-79719272D01*
X188358626Y-79820611D01*
X188190104Y-79890415D01*
X188011203Y-79926000D01*
X187828797Y-79926000D01*
X187649896Y-79890415D01*
X187481374Y-79820611D01*
X187329709Y-79719272D01*
X187200728Y-79590291D01*
X187099389Y-79438626D01*
X187029585Y-79270104D01*
X186994000Y-79091203D01*
X186994000Y-78908797D01*
X187029585Y-78729896D01*
X187099389Y-78561374D01*
X187200728Y-78409709D01*
X187329709Y-78280728D01*
X187481374Y-78179389D01*
X187649896Y-78109585D01*
X187828797Y-78074000D01*
X188011203Y-78074000D01*
X188190104Y-78109585D01*
X188190104Y-78109585D01*
G37*
G36*
X150190104Y-78109585D02*
G01*
X150358626Y-78179389D01*
X150510291Y-78280728D01*
X150639272Y-78409709D01*
X150740611Y-78561374D01*
X150810415Y-78729896D01*
X150846000Y-78908797D01*
X150846000Y-79091203D01*
X150810415Y-79270104D01*
X150740611Y-79438626D01*
X150639272Y-79590291D01*
X150510291Y-79719272D01*
X150358626Y-79820611D01*
X150190104Y-79890415D01*
X150011203Y-79926000D01*
X149828797Y-79926000D01*
X149649896Y-79890415D01*
X149481374Y-79820611D01*
X149329709Y-79719272D01*
X149200728Y-79590291D01*
X149099389Y-79438626D01*
X149029585Y-79270104D01*
X148994000Y-79091203D01*
X148994000Y-78908797D01*
X149029585Y-78729896D01*
X149099389Y-78561374D01*
X149200728Y-78409709D01*
X149329709Y-78280728D01*
X149481374Y-78179389D01*
X149649896Y-78109585D01*
X149828797Y-78074000D01*
X150011203Y-78074000D01*
X150190104Y-78109585D01*
X150190104Y-78109585D01*
G37*
G36*
X169190104Y-78109585D02*
G01*
X169358626Y-78179389D01*
X169510291Y-78280728D01*
X169639272Y-78409709D01*
X169740611Y-78561374D01*
X169810415Y-78729896D01*
X169846000Y-78908797D01*
X169846000Y-79091203D01*
X169810415Y-79270104D01*
X169740611Y-79438626D01*
X169639272Y-79590291D01*
X169510291Y-79719272D01*
X169358626Y-79820611D01*
X169190104Y-79890415D01*
X169011203Y-79926000D01*
X168828797Y-79926000D01*
X168649896Y-79890415D01*
X168481374Y-79820611D01*
X168329709Y-79719272D01*
X168200728Y-79590291D01*
X168099389Y-79438626D01*
X168029585Y-79270104D01*
X167994000Y-79091203D01*
X167994000Y-78908797D01*
X168029585Y-78729896D01*
X168099389Y-78561374D01*
X168200728Y-78409709D01*
X168329709Y-78280728D01*
X168481374Y-78179389D01*
X168649896Y-78109585D01*
X168828797Y-78074000D01*
X169011203Y-78074000D01*
X169190104Y-78109585D01*
X169190104Y-78109585D01*
G37*
G36*
X160350104Y-78109585D02*
G01*
X160518626Y-78179389D01*
X160670291Y-78280728D01*
X160799272Y-78409709D01*
X160900611Y-78561374D01*
X160970415Y-78729896D01*
X161006000Y-78908797D01*
X161006000Y-79091203D01*
X160970415Y-79270104D01*
X160900611Y-79438626D01*
X160799272Y-79590291D01*
X160670291Y-79719272D01*
X160518626Y-79820611D01*
X160350104Y-79890415D01*
X160171203Y-79926000D01*
X159988797Y-79926000D01*
X159809896Y-79890415D01*
X159641374Y-79820611D01*
X159489709Y-79719272D01*
X159360728Y-79590291D01*
X159259389Y-79438626D01*
X159189585Y-79270104D01*
X159154000Y-79091203D01*
X159154000Y-78908797D01*
X159189585Y-78729896D01*
X159259389Y-78561374D01*
X159360728Y-78409709D01*
X159489709Y-78280728D01*
X159641374Y-78179389D01*
X159809896Y-78109585D01*
X159988797Y-78074000D01*
X160171203Y-78074000D01*
X160350104Y-78109585D01*
X160350104Y-78109585D01*
G37*
G36*
X179350104Y-78109585D02*
G01*
X179518626Y-78179389D01*
X179670291Y-78280728D01*
X179799272Y-78409709D01*
X179900611Y-78561374D01*
X179970415Y-78729896D01*
X180006000Y-78908797D01*
X180006000Y-79091203D01*
X179970415Y-79270104D01*
X179900611Y-79438626D01*
X179799272Y-79590291D01*
X179670291Y-79719272D01*
X179518626Y-79820611D01*
X179350104Y-79890415D01*
X179171203Y-79926000D01*
X178988797Y-79926000D01*
X178809896Y-79890415D01*
X178641374Y-79820611D01*
X178489709Y-79719272D01*
X178360728Y-79590291D01*
X178259389Y-79438626D01*
X178189585Y-79270104D01*
X178154000Y-79091203D01*
X178154000Y-78908797D01*
X178189585Y-78729896D01*
X178259389Y-78561374D01*
X178360728Y-78409709D01*
X178489709Y-78280728D01*
X178641374Y-78179389D01*
X178809896Y-78109585D01*
X178988797Y-78074000D01*
X179171203Y-78074000D01*
X179350104Y-78109585D01*
X179350104Y-78109585D01*
G37*
G36*
X183213500Y-78451000D02*
G01*
X181911500Y-78451000D01*
X181911500Y-76749000D01*
X183213500Y-76749000D01*
X183213500Y-78451000D01*
X183213500Y-78451000D01*
G37*
G36*
X202263500Y-78443500D02*
G01*
X200961500Y-78443500D01*
X200961500Y-76741500D01*
X202263500Y-76741500D01*
X202263500Y-78443500D01*
X202263500Y-78443500D01*
G37*
G36*
X164163500Y-78443500D02*
G01*
X162861500Y-78443500D01*
X162861500Y-76741500D01*
X164163500Y-76741500D01*
X164163500Y-78443500D01*
X164163500Y-78443500D01*
G37*
G36*
X121400483Y-76498335D02*
G01*
X121569240Y-76568236D01*
X121721118Y-76669718D01*
X121850282Y-76798882D01*
X121951764Y-76950760D01*
X122021665Y-77119517D01*
X122057300Y-77298668D01*
X122057300Y-77481332D01*
X122021665Y-77660483D01*
X121951764Y-77829240D01*
X121850282Y-77981118D01*
X121721118Y-78110282D01*
X121569240Y-78211764D01*
X121400483Y-78281665D01*
X121221332Y-78317300D01*
X121038668Y-78317300D01*
X120859517Y-78281665D01*
X120690760Y-78211764D01*
X120538882Y-78110282D01*
X120409718Y-77981118D01*
X120308236Y-77829240D01*
X120238335Y-77660483D01*
X120202700Y-77481332D01*
X120202700Y-77298668D01*
X120238335Y-77119517D01*
X120308236Y-76950760D01*
X120409718Y-76798882D01*
X120538882Y-76669718D01*
X120690760Y-76568236D01*
X120859517Y-76498335D01*
X121038668Y-76462700D01*
X121221332Y-76462700D01*
X121400483Y-76498335D01*
X121400483Y-76498335D01*
G37*
G36*
X136640483Y-76498335D02*
G01*
X136809240Y-76568236D01*
X136961118Y-76669718D01*
X137090282Y-76798882D01*
X137191764Y-76950760D01*
X137261665Y-77119517D01*
X137297300Y-77298668D01*
X137297300Y-77481332D01*
X137261665Y-77660483D01*
X137191764Y-77829240D01*
X137090282Y-77981118D01*
X136961118Y-78110282D01*
X136809240Y-78211764D01*
X136640483Y-78281665D01*
X136461332Y-78317300D01*
X136278668Y-78317300D01*
X136099517Y-78281665D01*
X135930760Y-78211764D01*
X135778882Y-78110282D01*
X135649718Y-77981118D01*
X135548236Y-77829240D01*
X135478335Y-77660483D01*
X135442700Y-77481332D01*
X135442700Y-77298668D01*
X135478335Y-77119517D01*
X135548236Y-76950760D01*
X135649718Y-76798882D01*
X135778882Y-76669718D01*
X135930760Y-76568236D01*
X136099517Y-76498335D01*
X136278668Y-76462700D01*
X136461332Y-76462700D01*
X136640483Y-76498335D01*
X136640483Y-76498335D01*
G37*
G36*
X190523205Y-73823881D02*
G01*
X190528645Y-73824000D01*
X190615828Y-73824000D01*
X190632097Y-73827236D01*
X190650956Y-73829515D01*
X190667532Y-73830246D01*
X190752223Y-73851010D01*
X190757518Y-73852184D01*
X190843027Y-73869193D01*
X190858362Y-73875545D01*
X190876401Y-73881455D01*
X190892521Y-73885407D01*
X190971504Y-73922280D01*
X190976494Y-73924477D01*
X191057045Y-73957842D01*
X191070841Y-73967060D01*
X191087393Y-73976382D01*
X191102426Y-73983400D01*
X191172694Y-74034971D01*
X191177192Y-74038122D01*
X191249656Y-74086541D01*
X191261383Y-74098268D01*
X191275809Y-74110648D01*
X191289179Y-74120461D01*
X191289180Y-74120462D01*
X191348021Y-74184733D01*
X191351829Y-74188714D01*
X191413459Y-74250344D01*
X191422674Y-74264135D01*
X191434396Y-74279078D01*
X191445605Y-74291321D01*
X191490799Y-74365874D01*
X191493746Y-74370501D01*
X191542158Y-74442955D01*
X191548505Y-74458277D01*
X191557092Y-74475231D01*
X191565691Y-74489417D01*
X191595478Y-74571368D01*
X191597452Y-74576448D01*
X191630807Y-74656973D01*
X191630807Y-74656974D01*
X191634041Y-74673233D01*
X191639158Y-74691542D01*
X191644825Y-74707134D01*
X191658055Y-74793345D01*
X191659001Y-74798713D01*
X191676000Y-74884173D01*
X191676000Y-74900752D01*
X191677444Y-74919692D01*
X191679963Y-74936104D01*
X191676120Y-75023249D01*
X191676000Y-75028689D01*
X191676000Y-75115826D01*
X191675074Y-75120483D01*
X191672766Y-75132083D01*
X191670488Y-75150941D01*
X191669756Y-75167531D01*
X191648988Y-75252237D01*
X191647812Y-75257537D01*
X191630807Y-75343027D01*
X191624457Y-75358357D01*
X191618549Y-75376393D01*
X191614595Y-75392520D01*
X191577711Y-75471526D01*
X191575511Y-75476523D01*
X191542158Y-75557045D01*
X191532944Y-75570835D01*
X191523622Y-75587387D01*
X191516602Y-75602424D01*
X191465011Y-75672720D01*
X191461866Y-75677210D01*
X191413461Y-75749654D01*
X191356460Y-75806655D01*
X191351811Y-75811563D01*
X190920311Y-76292470D01*
X190026723Y-77288376D01*
X189898679Y-77405602D01*
X189799631Y-77465645D01*
X189700583Y-77525689D01*
X189482866Y-77604823D01*
X189253895Y-77639961D01*
X189022470Y-77629754D01*
X188797481Y-77574593D01*
X188692727Y-77525689D01*
X188587579Y-77476602D01*
X188490838Y-77405602D01*
X188400823Y-77339539D01*
X188326394Y-77258241D01*
X188244398Y-77168679D01*
X188162564Y-77033685D01*
X188124311Y-76970583D01*
X188045177Y-76752866D01*
X188010039Y-76523895D01*
X188020246Y-76292470D01*
X188075407Y-76067481D01*
X188145054Y-75918295D01*
X188173398Y-75857580D01*
X188175917Y-75854148D01*
X188276114Y-75717622D01*
X189053009Y-74851771D01*
X189562787Y-74283621D01*
X189573681Y-74269589D01*
X189586539Y-74250346D01*
X189643573Y-74193312D01*
X189648223Y-74188403D01*
X189663278Y-74171624D01*
X189684701Y-74152011D01*
X189688682Y-74148203D01*
X189750346Y-74086539D01*
X189764143Y-74077320D01*
X189779102Y-74065585D01*
X189791321Y-74054398D01*
X189834477Y-74028237D01*
X189865830Y-74009231D01*
X189870421Y-74006308D01*
X189942955Y-73957842D01*
X189958300Y-73951486D01*
X189975248Y-73942901D01*
X189989416Y-73934312D01*
X189989417Y-73934312D01*
X189989418Y-73934311D01*
X190071312Y-73904545D01*
X190076410Y-73902563D01*
X190156973Y-73869193D01*
X190173252Y-73865955D01*
X190191542Y-73860844D01*
X190207135Y-73855177D01*
X190293300Y-73841954D01*
X190298663Y-73841009D01*
X190384173Y-73824000D01*
X190400766Y-73824000D01*
X190419709Y-73822555D01*
X190436106Y-73820039D01*
X190523205Y-73823881D01*
X190523205Y-73823881D01*
G37*
G36*
X171523205Y-73823881D02*
G01*
X171528645Y-73824000D01*
X171615828Y-73824000D01*
X171632097Y-73827236D01*
X171650956Y-73829515D01*
X171667532Y-73830246D01*
X171752223Y-73851010D01*
X171757518Y-73852184D01*
X171843027Y-73869193D01*
X171858362Y-73875545D01*
X171876401Y-73881455D01*
X171892521Y-73885407D01*
X171971504Y-73922280D01*
X171976494Y-73924477D01*
X172057045Y-73957842D01*
X172070841Y-73967060D01*
X172087393Y-73976382D01*
X172102426Y-73983400D01*
X172172694Y-74034971D01*
X172177192Y-74038122D01*
X172249656Y-74086541D01*
X172261383Y-74098268D01*
X172275809Y-74110648D01*
X172289179Y-74120461D01*
X172289180Y-74120462D01*
X172348021Y-74184733D01*
X172351829Y-74188714D01*
X172413459Y-74250344D01*
X172422674Y-74264135D01*
X172434396Y-74279078D01*
X172445605Y-74291321D01*
X172490799Y-74365874D01*
X172493746Y-74370501D01*
X172542158Y-74442955D01*
X172548505Y-74458277D01*
X172557092Y-74475231D01*
X172565691Y-74489417D01*
X172595478Y-74571368D01*
X172597452Y-74576448D01*
X172630807Y-74656973D01*
X172630807Y-74656974D01*
X172634041Y-74673233D01*
X172639158Y-74691542D01*
X172644825Y-74707134D01*
X172658055Y-74793345D01*
X172659001Y-74798713D01*
X172676000Y-74884173D01*
X172676000Y-74900752D01*
X172677444Y-74919692D01*
X172679963Y-74936104D01*
X172676120Y-75023249D01*
X172676000Y-75028689D01*
X172676000Y-75115826D01*
X172675074Y-75120483D01*
X172672766Y-75132083D01*
X172670488Y-75150941D01*
X172669756Y-75167531D01*
X172648988Y-75252237D01*
X172647812Y-75257537D01*
X172630807Y-75343027D01*
X172624457Y-75358357D01*
X172618549Y-75376393D01*
X172614595Y-75392520D01*
X172577711Y-75471526D01*
X172575511Y-75476523D01*
X172542158Y-75557045D01*
X172532944Y-75570835D01*
X172523622Y-75587387D01*
X172516602Y-75602424D01*
X172465011Y-75672720D01*
X172461866Y-75677210D01*
X172413461Y-75749654D01*
X172356460Y-75806655D01*
X172351811Y-75811563D01*
X171920311Y-76292470D01*
X171026723Y-77288376D01*
X170898679Y-77405602D01*
X170799631Y-77465645D01*
X170700583Y-77525689D01*
X170482866Y-77604823D01*
X170253895Y-77639961D01*
X170022470Y-77629754D01*
X169797481Y-77574593D01*
X169692727Y-77525689D01*
X169587579Y-77476602D01*
X169490838Y-77405602D01*
X169400823Y-77339539D01*
X169326394Y-77258241D01*
X169244398Y-77168679D01*
X169162564Y-77033685D01*
X169124311Y-76970583D01*
X169045177Y-76752866D01*
X169010039Y-76523895D01*
X169020246Y-76292470D01*
X169075407Y-76067481D01*
X169145054Y-75918295D01*
X169173398Y-75857580D01*
X169175917Y-75854148D01*
X169276114Y-75717622D01*
X170053009Y-74851771D01*
X170562787Y-74283621D01*
X170573681Y-74269589D01*
X170586539Y-74250346D01*
X170643573Y-74193312D01*
X170648223Y-74188403D01*
X170663278Y-74171624D01*
X170684701Y-74152011D01*
X170688682Y-74148203D01*
X170750346Y-74086539D01*
X170764143Y-74077320D01*
X170779102Y-74065585D01*
X170791321Y-74054398D01*
X170834477Y-74028237D01*
X170865830Y-74009231D01*
X170870421Y-74006308D01*
X170942955Y-73957842D01*
X170958300Y-73951486D01*
X170975248Y-73942901D01*
X170989416Y-73934312D01*
X170989417Y-73934312D01*
X170989418Y-73934311D01*
X171071312Y-73904545D01*
X171076410Y-73902563D01*
X171156973Y-73869193D01*
X171173252Y-73865955D01*
X171191542Y-73860844D01*
X171207135Y-73855177D01*
X171293300Y-73841954D01*
X171298663Y-73841009D01*
X171384173Y-73824000D01*
X171400766Y-73824000D01*
X171419709Y-73822555D01*
X171436106Y-73820039D01*
X171523205Y-73823881D01*
X171523205Y-73823881D01*
G37*
G36*
X152523205Y-73823881D02*
G01*
X152528645Y-73824000D01*
X152615828Y-73824000D01*
X152632097Y-73827236D01*
X152650956Y-73829515D01*
X152667532Y-73830246D01*
X152752223Y-73851010D01*
X152757518Y-73852184D01*
X152843027Y-73869193D01*
X152858362Y-73875545D01*
X152876401Y-73881455D01*
X152892521Y-73885407D01*
X152971504Y-73922280D01*
X152976494Y-73924477D01*
X153057045Y-73957842D01*
X153070841Y-73967060D01*
X153087393Y-73976382D01*
X153102426Y-73983400D01*
X153172694Y-74034971D01*
X153177192Y-74038122D01*
X153249656Y-74086541D01*
X153261383Y-74098268D01*
X153275809Y-74110648D01*
X153289179Y-74120461D01*
X153289180Y-74120462D01*
X153348021Y-74184733D01*
X153351829Y-74188714D01*
X153413459Y-74250344D01*
X153422674Y-74264135D01*
X153434396Y-74279078D01*
X153445605Y-74291321D01*
X153490799Y-74365874D01*
X153493746Y-74370501D01*
X153542158Y-74442955D01*
X153548505Y-74458277D01*
X153557092Y-74475231D01*
X153565691Y-74489417D01*
X153595478Y-74571368D01*
X153597452Y-74576448D01*
X153630807Y-74656973D01*
X153630807Y-74656974D01*
X153634041Y-74673233D01*
X153639158Y-74691542D01*
X153644825Y-74707134D01*
X153658055Y-74793345D01*
X153659001Y-74798713D01*
X153676000Y-74884173D01*
X153676000Y-74900752D01*
X153677444Y-74919692D01*
X153679963Y-74936104D01*
X153676120Y-75023249D01*
X153676000Y-75028689D01*
X153676000Y-75115826D01*
X153675074Y-75120483D01*
X153672766Y-75132083D01*
X153670488Y-75150941D01*
X153669756Y-75167531D01*
X153648988Y-75252237D01*
X153647812Y-75257537D01*
X153630807Y-75343027D01*
X153624457Y-75358357D01*
X153618549Y-75376393D01*
X153614595Y-75392520D01*
X153577711Y-75471526D01*
X153575511Y-75476523D01*
X153542158Y-75557045D01*
X153532944Y-75570835D01*
X153523622Y-75587387D01*
X153516602Y-75602424D01*
X153465011Y-75672720D01*
X153461866Y-75677210D01*
X153413461Y-75749654D01*
X153356460Y-75806655D01*
X153351811Y-75811563D01*
X152920311Y-76292470D01*
X152026723Y-77288376D01*
X151898679Y-77405602D01*
X151799631Y-77465645D01*
X151700583Y-77525689D01*
X151482866Y-77604823D01*
X151253895Y-77639961D01*
X151022470Y-77629754D01*
X150797481Y-77574593D01*
X150692727Y-77525689D01*
X150587579Y-77476602D01*
X150490838Y-77405602D01*
X150400823Y-77339539D01*
X150326394Y-77258241D01*
X150244398Y-77168679D01*
X150162564Y-77033685D01*
X150124311Y-76970583D01*
X150045177Y-76752866D01*
X150010039Y-76523895D01*
X150020246Y-76292470D01*
X150075407Y-76067481D01*
X150145054Y-75918295D01*
X150173398Y-75857580D01*
X150175917Y-75854148D01*
X150276114Y-75717622D01*
X151053009Y-74851771D01*
X151562787Y-74283621D01*
X151573681Y-74269589D01*
X151586539Y-74250346D01*
X151643573Y-74193312D01*
X151648223Y-74188403D01*
X151663278Y-74171624D01*
X151684701Y-74152011D01*
X151688682Y-74148203D01*
X151750346Y-74086539D01*
X151764143Y-74077320D01*
X151779102Y-74065585D01*
X151791321Y-74054398D01*
X151834477Y-74028237D01*
X151865830Y-74009231D01*
X151870421Y-74006308D01*
X151942955Y-73957842D01*
X151958300Y-73951486D01*
X151975248Y-73942901D01*
X151989416Y-73934312D01*
X151989417Y-73934312D01*
X151989418Y-73934311D01*
X152071312Y-73904545D01*
X152076410Y-73902563D01*
X152156973Y-73869193D01*
X152173252Y-73865955D01*
X152191542Y-73860844D01*
X152207135Y-73855177D01*
X152293300Y-73841954D01*
X152298663Y-73841009D01*
X152384173Y-73824000D01*
X152400766Y-73824000D01*
X152419709Y-73822555D01*
X152436106Y-73820039D01*
X152523205Y-73823881D01*
X152523205Y-73823881D01*
G37*
G36*
X182810728Y-74281703D02*
G01*
X182965600Y-74345853D01*
X183104981Y-74438985D01*
X183223515Y-74557519D01*
X183316647Y-74696900D01*
X183380797Y-74851772D01*
X183413500Y-75016184D01*
X183413500Y-75183816D01*
X183380797Y-75348228D01*
X183316647Y-75503100D01*
X183223515Y-75642481D01*
X183104981Y-75761015D01*
X182965600Y-75854147D01*
X182810728Y-75918297D01*
X182646316Y-75951000D01*
X182478684Y-75951000D01*
X182314272Y-75918297D01*
X182159400Y-75854147D01*
X182020019Y-75761015D01*
X181901485Y-75642481D01*
X181808353Y-75503100D01*
X181744203Y-75348228D01*
X181711500Y-75183816D01*
X181711500Y-75016184D01*
X181744203Y-74851772D01*
X181808353Y-74696900D01*
X181901485Y-74557519D01*
X182020019Y-74438985D01*
X182159400Y-74345853D01*
X182314272Y-74281703D01*
X182478684Y-74249000D01*
X182646316Y-74249000D01*
X182810728Y-74281703D01*
X182810728Y-74281703D01*
G37*
G36*
X163760728Y-74274203D02*
G01*
X163915600Y-74338353D01*
X164054981Y-74431485D01*
X164173515Y-74550019D01*
X164266647Y-74689400D01*
X164330797Y-74844272D01*
X164363500Y-75008684D01*
X164363500Y-75176316D01*
X164330797Y-75340728D01*
X164266647Y-75495600D01*
X164173515Y-75634981D01*
X164054981Y-75753515D01*
X163915600Y-75846647D01*
X163760728Y-75910797D01*
X163596316Y-75943500D01*
X163428684Y-75943500D01*
X163264272Y-75910797D01*
X163109400Y-75846647D01*
X162970019Y-75753515D01*
X162851485Y-75634981D01*
X162758353Y-75495600D01*
X162694203Y-75340728D01*
X162661500Y-75176316D01*
X162661500Y-75008684D01*
X162694203Y-74844272D01*
X162758353Y-74689400D01*
X162851485Y-74550019D01*
X162970019Y-74431485D01*
X163109400Y-74338353D01*
X163264272Y-74274203D01*
X163428684Y-74241500D01*
X163596316Y-74241500D01*
X163760728Y-74274203D01*
X163760728Y-74274203D01*
G37*
G36*
X201860728Y-74274203D02*
G01*
X202015600Y-74338353D01*
X202154981Y-74431485D01*
X202273515Y-74550019D01*
X202366647Y-74689400D01*
X202430797Y-74844272D01*
X202463500Y-75008684D01*
X202463500Y-75176316D01*
X202430797Y-75340728D01*
X202366647Y-75495600D01*
X202273515Y-75634981D01*
X202154981Y-75753515D01*
X202015600Y-75846647D01*
X201860728Y-75910797D01*
X201696316Y-75943500D01*
X201528684Y-75943500D01*
X201364272Y-75910797D01*
X201209400Y-75846647D01*
X201070019Y-75753515D01*
X200951485Y-75634981D01*
X200858353Y-75495600D01*
X200794203Y-75340728D01*
X200761500Y-75176316D01*
X200761500Y-75008684D01*
X200794203Y-74844272D01*
X200858353Y-74689400D01*
X200951485Y-74550019D01*
X201070019Y-74431485D01*
X201209400Y-74338353D01*
X201364272Y-74274203D01*
X201528684Y-74241500D01*
X201696316Y-74241500D01*
X201860728Y-74274203D01*
X201860728Y-74274203D01*
G37*
G36*
X121400483Y-73958335D02*
G01*
X121569240Y-74028236D01*
X121721118Y-74129718D01*
X121850282Y-74258882D01*
X121951764Y-74410760D01*
X122021665Y-74579517D01*
X122057300Y-74758668D01*
X122057300Y-74941332D01*
X122021665Y-75120483D01*
X121951764Y-75289240D01*
X121850282Y-75441118D01*
X121721118Y-75570282D01*
X121569240Y-75671764D01*
X121400483Y-75741665D01*
X121221332Y-75777300D01*
X121038668Y-75777300D01*
X120859517Y-75741665D01*
X120690760Y-75671764D01*
X120538882Y-75570282D01*
X120409718Y-75441118D01*
X120308236Y-75289240D01*
X120238335Y-75120483D01*
X120202700Y-74941332D01*
X120202700Y-74758668D01*
X120238335Y-74579517D01*
X120308236Y-74410760D01*
X120409718Y-74258882D01*
X120538882Y-74129718D01*
X120690760Y-74028236D01*
X120859517Y-73958335D01*
X121038668Y-73922700D01*
X121221332Y-73922700D01*
X121400483Y-73958335D01*
X121400483Y-73958335D01*
G37*
G36*
X136640483Y-73958335D02*
G01*
X136809240Y-74028236D01*
X136961118Y-74129718D01*
X137090282Y-74258882D01*
X137191764Y-74410760D01*
X137261665Y-74579517D01*
X137297300Y-74758668D01*
X137297300Y-74941332D01*
X137261665Y-75120483D01*
X137191764Y-75289240D01*
X137090282Y-75441118D01*
X136961118Y-75570282D01*
X136809240Y-75671764D01*
X136640483Y-75741665D01*
X136461332Y-75777300D01*
X136278668Y-75777300D01*
X136099517Y-75741665D01*
X135930760Y-75671764D01*
X135778882Y-75570282D01*
X135649718Y-75441118D01*
X135548236Y-75289240D01*
X135478335Y-75120483D01*
X135442700Y-74941332D01*
X135442700Y-74758668D01*
X135478335Y-74579517D01*
X135548236Y-74410760D01*
X135649718Y-74258882D01*
X135778882Y-74129718D01*
X135930760Y-74028236D01*
X136099517Y-73958335D01*
X136278668Y-73922700D01*
X136461332Y-73922700D01*
X136640483Y-73958335D01*
X136640483Y-73958335D01*
G37*
G36*
X176628127Y-72742261D02*
G01*
X176648900Y-72744000D01*
X176655827Y-72744000D01*
X176750754Y-72762882D01*
X176754348Y-72763542D01*
X176849730Y-72779624D01*
X176856203Y-72782085D01*
X176876228Y-72787841D01*
X176883027Y-72789193D01*
X176945414Y-72815034D01*
X176972443Y-72826230D01*
X176975844Y-72827581D01*
X177066255Y-72861961D01*
X177072127Y-72865640D01*
X177090636Y-72875187D01*
X177097045Y-72877842D01*
X177177563Y-72931642D01*
X177180554Y-72933578D01*
X177262557Y-72984959D01*
X177267584Y-72989700D01*
X177283896Y-73002691D01*
X177289652Y-73006537D01*
X177358110Y-73074995D01*
X177360689Y-73077499D01*
X177431090Y-73143889D01*
X177435095Y-73149519D01*
X177448559Y-73165444D01*
X177453459Y-73170344D01*
X177507244Y-73250839D01*
X177509291Y-73253807D01*
X177565380Y-73332645D01*
X177568214Y-73338958D01*
X177578308Y-73357193D01*
X177582158Y-73362955D01*
X177619220Y-73452430D01*
X177620624Y-73455685D01*
X177660265Y-73543973D01*
X177661815Y-73550725D01*
X177668152Y-73570562D01*
X177670807Y-73576973D01*
X177689692Y-73671917D01*
X177690438Y-73675401D01*
X177712098Y-73769751D01*
X177712098Y-73769754D01*
X177712300Y-73776654D01*
X177714647Y-73797370D01*
X177716000Y-73804174D01*
X177716000Y-73900986D01*
X177716053Y-73904584D01*
X177717188Y-73943277D01*
X177716295Y-73956225D01*
X177716000Y-73964797D01*
X177716000Y-74035826D01*
X177710081Y-74065585D01*
X177709604Y-74067979D01*
X177707500Y-74083750D01*
X177669238Y-74638545D01*
X177640376Y-74809730D01*
X177558038Y-75026255D01*
X177435041Y-75222557D01*
X177276111Y-75391090D01*
X177087355Y-75525380D01*
X176876027Y-75620265D01*
X176650249Y-75672098D01*
X176418698Y-75678889D01*
X176418697Y-75678889D01*
X176373012Y-75671186D01*
X176190270Y-75640376D01*
X175973745Y-75558038D01*
X175777443Y-75435041D01*
X175608910Y-75276111D01*
X175474620Y-75087355D01*
X175379735Y-74876027D01*
X175327902Y-74650249D01*
X175322812Y-74476723D01*
X175363704Y-73883794D01*
X175364000Y-73875196D01*
X175364000Y-73804175D01*
X175382882Y-73709250D01*
X175383544Y-73705645D01*
X175389231Y-73671917D01*
X175399624Y-73610270D01*
X175402085Y-73603799D01*
X175407842Y-73583767D01*
X175409193Y-73576974D01*
X175411843Y-73570576D01*
X175446264Y-73487476D01*
X175447553Y-73484230D01*
X175481962Y-73393745D01*
X175485636Y-73387881D01*
X175495187Y-73369365D01*
X175497842Y-73362955D01*
X175551657Y-73282415D01*
X175553577Y-73279449D01*
X175604959Y-73197443D01*
X175609711Y-73192404D01*
X175622689Y-73176107D01*
X175626537Y-73170348D01*
X175694993Y-73101892D01*
X175697546Y-73099262D01*
X175718023Y-73077548D01*
X175763889Y-73028910D01*
X175769521Y-73024903D01*
X175785447Y-73011438D01*
X175790346Y-73006539D01*
X175870824Y-72952766D01*
X175873806Y-72950710D01*
X175952645Y-72894620D01*
X175958955Y-72891787D01*
X175977194Y-72881691D01*
X175982951Y-72877844D01*
X175982954Y-72877843D01*
X175982955Y-72877842D01*
X176072429Y-72840781D01*
X176075687Y-72839375D01*
X176163973Y-72799735D01*
X176170725Y-72798185D01*
X176190562Y-72791848D01*
X176196973Y-72789193D01*
X176291899Y-72770311D01*
X176295446Y-72769551D01*
X176389751Y-72747901D01*
X176392130Y-72747831D01*
X176396665Y-72747698D01*
X176417381Y-72745351D01*
X176424174Y-72744000D01*
X176520959Y-72744000D01*
X176524584Y-72743947D01*
X176621302Y-72741110D01*
X176628127Y-72742261D01*
X176628127Y-72742261D01*
G37*
G36*
X195628127Y-72742261D02*
G01*
X195648900Y-72744000D01*
X195655827Y-72744000D01*
X195750754Y-72762882D01*
X195754348Y-72763542D01*
X195849730Y-72779624D01*
X195856203Y-72782085D01*
X195876228Y-72787841D01*
X195883027Y-72789193D01*
X195945414Y-72815034D01*
X195972443Y-72826230D01*
X195975844Y-72827581D01*
X196066255Y-72861961D01*
X196072127Y-72865640D01*
X196090636Y-72875187D01*
X196097045Y-72877842D01*
X196177563Y-72931642D01*
X196180554Y-72933578D01*
X196262557Y-72984959D01*
X196267584Y-72989700D01*
X196283896Y-73002691D01*
X196289652Y-73006537D01*
X196358110Y-73074995D01*
X196360689Y-73077499D01*
X196431090Y-73143889D01*
X196435095Y-73149519D01*
X196448559Y-73165444D01*
X196453459Y-73170344D01*
X196507244Y-73250839D01*
X196509291Y-73253807D01*
X196565380Y-73332645D01*
X196568214Y-73338958D01*
X196578308Y-73357193D01*
X196582158Y-73362955D01*
X196619220Y-73452430D01*
X196620624Y-73455685D01*
X196660265Y-73543973D01*
X196661815Y-73550725D01*
X196668152Y-73570562D01*
X196670807Y-73576973D01*
X196689692Y-73671917D01*
X196690438Y-73675401D01*
X196712098Y-73769751D01*
X196712098Y-73769754D01*
X196712300Y-73776654D01*
X196714647Y-73797370D01*
X196716000Y-73804174D01*
X196716000Y-73900986D01*
X196716053Y-73904584D01*
X196717188Y-73943277D01*
X196716295Y-73956225D01*
X196716000Y-73964797D01*
X196716000Y-74035826D01*
X196710081Y-74065585D01*
X196709604Y-74067979D01*
X196707500Y-74083750D01*
X196669238Y-74638545D01*
X196640376Y-74809730D01*
X196558038Y-75026255D01*
X196435041Y-75222557D01*
X196276111Y-75391090D01*
X196087355Y-75525380D01*
X195876027Y-75620265D01*
X195650249Y-75672098D01*
X195418698Y-75678889D01*
X195418697Y-75678889D01*
X195373012Y-75671186D01*
X195190270Y-75640376D01*
X194973745Y-75558038D01*
X194777443Y-75435041D01*
X194608910Y-75276111D01*
X194474620Y-75087355D01*
X194379735Y-74876027D01*
X194327902Y-74650249D01*
X194322812Y-74476723D01*
X194363704Y-73883794D01*
X194364000Y-73875196D01*
X194364000Y-73804175D01*
X194382882Y-73709250D01*
X194383544Y-73705645D01*
X194389231Y-73671917D01*
X194399624Y-73610270D01*
X194402085Y-73603799D01*
X194407842Y-73583767D01*
X194409193Y-73576974D01*
X194411843Y-73570576D01*
X194446264Y-73487476D01*
X194447553Y-73484230D01*
X194481962Y-73393745D01*
X194485636Y-73387881D01*
X194495187Y-73369365D01*
X194497842Y-73362955D01*
X194551657Y-73282415D01*
X194553577Y-73279449D01*
X194604959Y-73197443D01*
X194609711Y-73192404D01*
X194622689Y-73176107D01*
X194626537Y-73170348D01*
X194694993Y-73101892D01*
X194697546Y-73099262D01*
X194718023Y-73077548D01*
X194763889Y-73028910D01*
X194769521Y-73024903D01*
X194785447Y-73011438D01*
X194790346Y-73006539D01*
X194870824Y-72952766D01*
X194873806Y-72950710D01*
X194952645Y-72894620D01*
X194958955Y-72891787D01*
X194977194Y-72881691D01*
X194982951Y-72877844D01*
X194982954Y-72877843D01*
X194982955Y-72877842D01*
X195072429Y-72840781D01*
X195075687Y-72839375D01*
X195163973Y-72799735D01*
X195170725Y-72798185D01*
X195190562Y-72791848D01*
X195196973Y-72789193D01*
X195291899Y-72770311D01*
X195295446Y-72769551D01*
X195389751Y-72747901D01*
X195392130Y-72747831D01*
X195396665Y-72747698D01*
X195417381Y-72745351D01*
X195424174Y-72744000D01*
X195520959Y-72744000D01*
X195524584Y-72743947D01*
X195621302Y-72741110D01*
X195628127Y-72742261D01*
X195628127Y-72742261D01*
G37*
G36*
X157628127Y-72742261D02*
G01*
X157648900Y-72744000D01*
X157655827Y-72744000D01*
X157750754Y-72762882D01*
X157754348Y-72763542D01*
X157849730Y-72779624D01*
X157856203Y-72782085D01*
X157876228Y-72787841D01*
X157883027Y-72789193D01*
X157945414Y-72815034D01*
X157972443Y-72826230D01*
X157975844Y-72827581D01*
X158066255Y-72861961D01*
X158072127Y-72865640D01*
X158090636Y-72875187D01*
X158097045Y-72877842D01*
X158177563Y-72931642D01*
X158180554Y-72933578D01*
X158262557Y-72984959D01*
X158267584Y-72989700D01*
X158283896Y-73002691D01*
X158289652Y-73006537D01*
X158358110Y-73074995D01*
X158360689Y-73077499D01*
X158431090Y-73143889D01*
X158435095Y-73149519D01*
X158448559Y-73165444D01*
X158453459Y-73170344D01*
X158507244Y-73250839D01*
X158509291Y-73253807D01*
X158565380Y-73332645D01*
X158568214Y-73338958D01*
X158578308Y-73357193D01*
X158582158Y-73362955D01*
X158619220Y-73452430D01*
X158620624Y-73455685D01*
X158660265Y-73543973D01*
X158661815Y-73550725D01*
X158668152Y-73570562D01*
X158670807Y-73576973D01*
X158689692Y-73671917D01*
X158690438Y-73675401D01*
X158712098Y-73769751D01*
X158712098Y-73769754D01*
X158712300Y-73776654D01*
X158714647Y-73797370D01*
X158716000Y-73804174D01*
X158716000Y-73900986D01*
X158716053Y-73904584D01*
X158717188Y-73943277D01*
X158716295Y-73956225D01*
X158716000Y-73964797D01*
X158716000Y-74035826D01*
X158710081Y-74065585D01*
X158709604Y-74067979D01*
X158707500Y-74083750D01*
X158669238Y-74638545D01*
X158640376Y-74809730D01*
X158558038Y-75026255D01*
X158435041Y-75222557D01*
X158276111Y-75391090D01*
X158087355Y-75525380D01*
X157876027Y-75620265D01*
X157650249Y-75672098D01*
X157418698Y-75678889D01*
X157418697Y-75678889D01*
X157373012Y-75671186D01*
X157190270Y-75640376D01*
X156973745Y-75558038D01*
X156777443Y-75435041D01*
X156608910Y-75276111D01*
X156474620Y-75087355D01*
X156379735Y-74876027D01*
X156327902Y-74650249D01*
X156322812Y-74476723D01*
X156363704Y-73883794D01*
X156364000Y-73875196D01*
X156364000Y-73804175D01*
X156382882Y-73709250D01*
X156383544Y-73705645D01*
X156389231Y-73671917D01*
X156399624Y-73610270D01*
X156402085Y-73603799D01*
X156407842Y-73583767D01*
X156409193Y-73576974D01*
X156411843Y-73570576D01*
X156446264Y-73487476D01*
X156447553Y-73484230D01*
X156481962Y-73393745D01*
X156485636Y-73387881D01*
X156495187Y-73369365D01*
X156497842Y-73362955D01*
X156551657Y-73282415D01*
X156553577Y-73279449D01*
X156604959Y-73197443D01*
X156609711Y-73192404D01*
X156622689Y-73176107D01*
X156626537Y-73170348D01*
X156694993Y-73101892D01*
X156697546Y-73099262D01*
X156718023Y-73077548D01*
X156763889Y-73028910D01*
X156769521Y-73024903D01*
X156785447Y-73011438D01*
X156790346Y-73006539D01*
X156870824Y-72952766D01*
X156873806Y-72950710D01*
X156952645Y-72894620D01*
X156958955Y-72891787D01*
X156977194Y-72881691D01*
X156982951Y-72877844D01*
X156982954Y-72877843D01*
X156982955Y-72877842D01*
X157072429Y-72840781D01*
X157075687Y-72839375D01*
X157163973Y-72799735D01*
X157170725Y-72798185D01*
X157190562Y-72791848D01*
X157196973Y-72789193D01*
X157291899Y-72770311D01*
X157295446Y-72769551D01*
X157389751Y-72747901D01*
X157392130Y-72747831D01*
X157396665Y-72747698D01*
X157417381Y-72745351D01*
X157424174Y-72744000D01*
X157520959Y-72744000D01*
X157524584Y-72743947D01*
X157621302Y-72741110D01*
X157628127Y-72742261D01*
X157628127Y-72742261D01*
G37*
G36*
X121400483Y-71418335D02*
G01*
X121569240Y-71488236D01*
X121721118Y-71589718D01*
X121850282Y-71718882D01*
X121951764Y-71870760D01*
X122021665Y-72039517D01*
X122057300Y-72218668D01*
X122057300Y-72401332D01*
X122021665Y-72580483D01*
X121951764Y-72749240D01*
X121850282Y-72901118D01*
X121721118Y-73030282D01*
X121569240Y-73131764D01*
X121400483Y-73201665D01*
X121221332Y-73237300D01*
X121038668Y-73237300D01*
X120859517Y-73201665D01*
X120690760Y-73131764D01*
X120538882Y-73030282D01*
X120409718Y-72901118D01*
X120308236Y-72749240D01*
X120238335Y-72580483D01*
X120202700Y-72401332D01*
X120202700Y-72218668D01*
X120238335Y-72039517D01*
X120308236Y-71870760D01*
X120409718Y-71718882D01*
X120538882Y-71589718D01*
X120690760Y-71488236D01*
X120859517Y-71418335D01*
X121038668Y-71382700D01*
X121221332Y-71382700D01*
X121400483Y-71418335D01*
X121400483Y-71418335D01*
G37*
G36*
X136640483Y-71418335D02*
G01*
X136809240Y-71488236D01*
X136961118Y-71589718D01*
X137090282Y-71718882D01*
X137191764Y-71870760D01*
X137261665Y-72039517D01*
X137297300Y-72218668D01*
X137297300Y-72401332D01*
X137261665Y-72580483D01*
X137191764Y-72749240D01*
X137090282Y-72901118D01*
X136961118Y-73030282D01*
X136809240Y-73131764D01*
X136640483Y-73201665D01*
X136461332Y-73237300D01*
X136278668Y-73237300D01*
X136099517Y-73201665D01*
X135930760Y-73131764D01*
X135778882Y-73030282D01*
X135649718Y-72901118D01*
X135548236Y-72749240D01*
X135478335Y-72580483D01*
X135442700Y-72401332D01*
X135442700Y-72218668D01*
X135478335Y-72039517D01*
X135548236Y-71870760D01*
X135649718Y-71718882D01*
X135778882Y-71589718D01*
X135930760Y-71488236D01*
X136099517Y-71418335D01*
X136278668Y-71382700D01*
X136461332Y-71382700D01*
X136640483Y-71418335D01*
X136640483Y-71418335D01*
G37*
G36*
X121400483Y-68878335D02*
G01*
X121569240Y-68948236D01*
X121721118Y-69049718D01*
X121850282Y-69178882D01*
X121951764Y-69330760D01*
X122021665Y-69499517D01*
X122057300Y-69678668D01*
X122057300Y-69861332D01*
X122021665Y-70040483D01*
X121951764Y-70209240D01*
X121850282Y-70361118D01*
X121721118Y-70490282D01*
X121569240Y-70591764D01*
X121400483Y-70661665D01*
X121221332Y-70697300D01*
X121038668Y-70697300D01*
X120859517Y-70661665D01*
X120690760Y-70591764D01*
X120538882Y-70490282D01*
X120409718Y-70361118D01*
X120308236Y-70209240D01*
X120238335Y-70040483D01*
X120202700Y-69861332D01*
X120202700Y-69678668D01*
X120238335Y-69499517D01*
X120308236Y-69330760D01*
X120409718Y-69178882D01*
X120538882Y-69049718D01*
X120690760Y-68948236D01*
X120859517Y-68878335D01*
X121038668Y-68842700D01*
X121221332Y-68842700D01*
X121400483Y-68878335D01*
X121400483Y-68878335D01*
G37*
G36*
X136640483Y-68878335D02*
G01*
X136809240Y-68948236D01*
X136961118Y-69049718D01*
X137090282Y-69178882D01*
X137191764Y-69330760D01*
X137261665Y-69499517D01*
X137297300Y-69678668D01*
X137297300Y-69861332D01*
X137261665Y-70040483D01*
X137191764Y-70209240D01*
X137090282Y-70361118D01*
X136961118Y-70490282D01*
X136809240Y-70591764D01*
X136640483Y-70661665D01*
X136461332Y-70697300D01*
X136278668Y-70697300D01*
X136099517Y-70661665D01*
X135930760Y-70591764D01*
X135778882Y-70490282D01*
X135649718Y-70361118D01*
X135548236Y-70209240D01*
X135478335Y-70040483D01*
X135442700Y-69861332D01*
X135442700Y-69678668D01*
X135478335Y-69499517D01*
X135548236Y-69330760D01*
X135649718Y-69178882D01*
X135778882Y-69049718D01*
X135930760Y-68948236D01*
X136099517Y-68878335D01*
X136278668Y-68842700D01*
X136461332Y-68842700D01*
X136640483Y-68878335D01*
X136640483Y-68878335D01*
G37*
G36*
X121400483Y-66338335D02*
G01*
X121569240Y-66408236D01*
X121721118Y-66509718D01*
X121850282Y-66638882D01*
X121951764Y-66790760D01*
X122021665Y-66959517D01*
X122057300Y-67138668D01*
X122057300Y-67321332D01*
X122021665Y-67500483D01*
X121951764Y-67669240D01*
X121850282Y-67821118D01*
X121721118Y-67950282D01*
X121569240Y-68051764D01*
X121400483Y-68121665D01*
X121221332Y-68157300D01*
X121038668Y-68157300D01*
X120859517Y-68121665D01*
X120690760Y-68051764D01*
X120538882Y-67950282D01*
X120409718Y-67821118D01*
X120308236Y-67669240D01*
X120238335Y-67500483D01*
X120202700Y-67321332D01*
X120202700Y-67138668D01*
X120238335Y-66959517D01*
X120308236Y-66790760D01*
X120409718Y-66638882D01*
X120538882Y-66509718D01*
X120690760Y-66408236D01*
X120859517Y-66338335D01*
X121038668Y-66302700D01*
X121221332Y-66302700D01*
X121400483Y-66338335D01*
X121400483Y-66338335D01*
G37*
G36*
X136640483Y-66338335D02*
G01*
X136809240Y-66408236D01*
X136961118Y-66509718D01*
X137090282Y-66638882D01*
X137191764Y-66790760D01*
X137261665Y-66959517D01*
X137297300Y-67138668D01*
X137297300Y-67321332D01*
X137261665Y-67500483D01*
X137191764Y-67669240D01*
X137090282Y-67821118D01*
X136961118Y-67950282D01*
X136809240Y-68051764D01*
X136640483Y-68121665D01*
X136461332Y-68157300D01*
X136278668Y-68157300D01*
X136099517Y-68121665D01*
X135930760Y-68051764D01*
X135778882Y-67950282D01*
X135649718Y-67821118D01*
X135548236Y-67669240D01*
X135478335Y-67500483D01*
X135442700Y-67321332D01*
X135442700Y-67138668D01*
X135478335Y-66959517D01*
X135548236Y-66790760D01*
X135649718Y-66638882D01*
X135778882Y-66509718D01*
X135930760Y-66408236D01*
X136099517Y-66338335D01*
X136278668Y-66302700D01*
X136461332Y-66302700D01*
X136640483Y-66338335D01*
X136640483Y-66338335D01*
G37*
G36*
X136640483Y-63798335D02*
G01*
X136809240Y-63868236D01*
X136961118Y-63969718D01*
X137090282Y-64098882D01*
X137191764Y-64250760D01*
X137261665Y-64419517D01*
X137297300Y-64598668D01*
X137297300Y-64781332D01*
X137261665Y-64960483D01*
X137191764Y-65129240D01*
X137090282Y-65281118D01*
X136961118Y-65410282D01*
X136809240Y-65511764D01*
X136640483Y-65581665D01*
X136461332Y-65617300D01*
X136278668Y-65617300D01*
X136099517Y-65581665D01*
X135930760Y-65511764D01*
X135778882Y-65410282D01*
X135649718Y-65281118D01*
X135548236Y-65129240D01*
X135478335Y-64960483D01*
X135442700Y-64781332D01*
X135442700Y-64598668D01*
X135478335Y-64419517D01*
X135548236Y-64250760D01*
X135649718Y-64098882D01*
X135778882Y-63969718D01*
X135930760Y-63868236D01*
X136099517Y-63798335D01*
X136278668Y-63762700D01*
X136461332Y-63762700D01*
X136640483Y-63798335D01*
X136640483Y-63798335D01*
G37*
G36*
X121400483Y-63798335D02*
G01*
X121569240Y-63868236D01*
X121721118Y-63969718D01*
X121850282Y-64098882D01*
X121951764Y-64250760D01*
X122021665Y-64419517D01*
X122057300Y-64598668D01*
X122057300Y-64781332D01*
X122021665Y-64960483D01*
X121951764Y-65129240D01*
X121850282Y-65281118D01*
X121721118Y-65410282D01*
X121569240Y-65511764D01*
X121400483Y-65581665D01*
X121221332Y-65617300D01*
X121038668Y-65617300D01*
X120859517Y-65581665D01*
X120690760Y-65511764D01*
X120538882Y-65410282D01*
X120409718Y-65281118D01*
X120308236Y-65129240D01*
X120238335Y-64960483D01*
X120202700Y-64781332D01*
X120202700Y-64598668D01*
X120238335Y-64419517D01*
X120308236Y-64250760D01*
X120409718Y-64098882D01*
X120538882Y-63969718D01*
X120690760Y-63868236D01*
X120859517Y-63798335D01*
X121038668Y-63762700D01*
X121221332Y-63762700D01*
X121400483Y-63798335D01*
X121400483Y-63798335D01*
G37*
G36*
X202463500Y-64751000D02*
G01*
X200761500Y-64751000D01*
X200761500Y-63049000D01*
X202463500Y-63049000D01*
X202463500Y-64751000D01*
X202463500Y-64751000D01*
G37*
G36*
X164363500Y-64688500D02*
G01*
X162661500Y-64688500D01*
X162661500Y-62986500D01*
X164363500Y-62986500D01*
X164363500Y-64688500D01*
X164363500Y-64688500D01*
G37*
G36*
X183451000Y-64651000D02*
G01*
X181749000Y-64651000D01*
X181749000Y-62949000D01*
X183451000Y-62949000D01*
X183451000Y-64651000D01*
X183451000Y-64651000D01*
G37*
G36*
X136640483Y-61258335D02*
G01*
X136809240Y-61328236D01*
X136961118Y-61429718D01*
X137090282Y-61558882D01*
X137191764Y-61710760D01*
X137261665Y-61879517D01*
X137297300Y-62058668D01*
X137297300Y-62241332D01*
X137261665Y-62420483D01*
X137191764Y-62589240D01*
X137090282Y-62741118D01*
X136961118Y-62870282D01*
X136809240Y-62971764D01*
X136640483Y-63041665D01*
X136461332Y-63077300D01*
X136278668Y-63077300D01*
X136099517Y-63041665D01*
X135930760Y-62971764D01*
X135778882Y-62870282D01*
X135649718Y-62741118D01*
X135548236Y-62589240D01*
X135478335Y-62420483D01*
X135442700Y-62241332D01*
X135442700Y-62058668D01*
X135478335Y-61879517D01*
X135548236Y-61710760D01*
X135649718Y-61558882D01*
X135778882Y-61429718D01*
X135930760Y-61328236D01*
X136099517Y-61258335D01*
X136278668Y-61222700D01*
X136461332Y-61222700D01*
X136640483Y-61258335D01*
X136640483Y-61258335D01*
G37*
G36*
X121400483Y-61258335D02*
G01*
X121569240Y-61328236D01*
X121721118Y-61429718D01*
X121850282Y-61558882D01*
X121951764Y-61710760D01*
X122021665Y-61879517D01*
X122057300Y-62058668D01*
X122057300Y-62241332D01*
X122021665Y-62420483D01*
X121951764Y-62589240D01*
X121850282Y-62741118D01*
X121721118Y-62870282D01*
X121569240Y-62971764D01*
X121400483Y-63041665D01*
X121221332Y-63077300D01*
X121038668Y-63077300D01*
X120859517Y-63041665D01*
X120690760Y-62971764D01*
X120538882Y-62870282D01*
X120409718Y-62741118D01*
X120308236Y-62589240D01*
X120238335Y-62420483D01*
X120202700Y-62241332D01*
X120202700Y-62058668D01*
X120238335Y-61879517D01*
X120308236Y-61710760D01*
X120409718Y-61558882D01*
X120538882Y-61429718D01*
X120690760Y-61328236D01*
X120859517Y-61258335D01*
X121038668Y-61222700D01*
X121221332Y-61222700D01*
X121400483Y-61258335D01*
X121400483Y-61258335D01*
G37*
G36*
X202263500Y-62251000D02*
G01*
X200961500Y-62251000D01*
X200961500Y-60549000D01*
X202263500Y-60549000D01*
X202263500Y-62251000D01*
X202263500Y-62251000D01*
G37*
G36*
X164163500Y-62188500D02*
G01*
X162861500Y-62188500D01*
X162861500Y-60486500D01*
X164163500Y-60486500D01*
X164163500Y-62188500D01*
X164163500Y-62188500D01*
G37*
G36*
X183251000Y-62151000D02*
G01*
X181949000Y-62151000D01*
X181949000Y-60449000D01*
X183251000Y-60449000D01*
X183251000Y-62151000D01*
X183251000Y-62151000D01*
G37*
G36*
X193596474Y-58033684D02*
G01*
X193814474Y-58123983D01*
X193968623Y-58187833D01*
X194303548Y-58411623D01*
X194588377Y-58696452D01*
X194812167Y-59031377D01*
X194844562Y-59109586D01*
X194966316Y-59403526D01*
X195044900Y-59798594D01*
X195044900Y-60201406D01*
X194966316Y-60596474D01*
X194915451Y-60719272D01*
X194812167Y-60968623D01*
X194588377Y-61303548D01*
X194303548Y-61588377D01*
X193968623Y-61812167D01*
X193814474Y-61876017D01*
X193596474Y-61966316D01*
X193201406Y-62044900D01*
X192798594Y-62044900D01*
X192403526Y-61966316D01*
X192185526Y-61876017D01*
X192031377Y-61812167D01*
X191696452Y-61588377D01*
X191411623Y-61303548D01*
X191187833Y-60968623D01*
X191084549Y-60719272D01*
X191033684Y-60596474D01*
X190955100Y-60201406D01*
X190955100Y-59798594D01*
X191033684Y-59403526D01*
X191155438Y-59109586D01*
X191187833Y-59031377D01*
X191411623Y-58696452D01*
X191696452Y-58411623D01*
X192031377Y-58187833D01*
X192185526Y-58123983D01*
X192403526Y-58033684D01*
X192798594Y-57955100D01*
X193201406Y-57955100D01*
X193596474Y-58033684D01*
X193596474Y-58033684D01*
G37*
G36*
X155596474Y-58033684D02*
G01*
X155814474Y-58123983D01*
X155968623Y-58187833D01*
X156303548Y-58411623D01*
X156588377Y-58696452D01*
X156812167Y-59031377D01*
X156844562Y-59109586D01*
X156966316Y-59403526D01*
X157044900Y-59798594D01*
X157044900Y-60201406D01*
X156966316Y-60596474D01*
X156915451Y-60719272D01*
X156812167Y-60968623D01*
X156588377Y-61303548D01*
X156303548Y-61588377D01*
X155968623Y-61812167D01*
X155814474Y-61876017D01*
X155596474Y-61966316D01*
X155201406Y-62044900D01*
X154798594Y-62044900D01*
X154403526Y-61966316D01*
X154185526Y-61876017D01*
X154031377Y-61812167D01*
X153696452Y-61588377D01*
X153411623Y-61303548D01*
X153187833Y-60968623D01*
X153084549Y-60719272D01*
X153033684Y-60596474D01*
X152955100Y-60201406D01*
X152955100Y-59798594D01*
X153033684Y-59403526D01*
X153155438Y-59109586D01*
X153187833Y-59031377D01*
X153411623Y-58696452D01*
X153696452Y-58411623D01*
X154031377Y-58187833D01*
X154185526Y-58123983D01*
X154403526Y-58033684D01*
X154798594Y-57955100D01*
X155201406Y-57955100D01*
X155596474Y-58033684D01*
X155596474Y-58033684D01*
G37*
G36*
X174596474Y-58033684D02*
G01*
X174814474Y-58123983D01*
X174968623Y-58187833D01*
X175303548Y-58411623D01*
X175588377Y-58696452D01*
X175812167Y-59031377D01*
X175844562Y-59109586D01*
X175966316Y-59403526D01*
X176044900Y-59798594D01*
X176044900Y-60201406D01*
X175966316Y-60596474D01*
X175915451Y-60719272D01*
X175812167Y-60968623D01*
X175588377Y-61303548D01*
X175303548Y-61588377D01*
X174968623Y-61812167D01*
X174814474Y-61876017D01*
X174596474Y-61966316D01*
X174201406Y-62044900D01*
X173798594Y-62044900D01*
X173403526Y-61966316D01*
X173185526Y-61876017D01*
X173031377Y-61812167D01*
X172696452Y-61588377D01*
X172411623Y-61303548D01*
X172187833Y-60968623D01*
X172084549Y-60719272D01*
X172033684Y-60596474D01*
X171955100Y-60201406D01*
X171955100Y-59798594D01*
X172033684Y-59403526D01*
X172155438Y-59109586D01*
X172187833Y-59031377D01*
X172411623Y-58696452D01*
X172696452Y-58411623D01*
X173031377Y-58187833D01*
X173185526Y-58123983D01*
X173403526Y-58033684D01*
X173798594Y-57955100D01*
X174201406Y-57955100D01*
X174596474Y-58033684D01*
X174596474Y-58033684D01*
G37*
G36*
X160350104Y-59109585D02*
G01*
X160518626Y-59179389D01*
X160670291Y-59280728D01*
X160799272Y-59409709D01*
X160900611Y-59561374D01*
X160970415Y-59729896D01*
X161006000Y-59908797D01*
X161006000Y-60091203D01*
X160970415Y-60270104D01*
X160900611Y-60438626D01*
X160799272Y-60590291D01*
X160670291Y-60719272D01*
X160518626Y-60820611D01*
X160350104Y-60890415D01*
X160171203Y-60926000D01*
X159988797Y-60926000D01*
X159809896Y-60890415D01*
X159641374Y-60820611D01*
X159489709Y-60719272D01*
X159360728Y-60590291D01*
X159259389Y-60438626D01*
X159189585Y-60270104D01*
X159154000Y-60091203D01*
X159154000Y-59908797D01*
X159189585Y-59729896D01*
X159259389Y-59561374D01*
X159360728Y-59409709D01*
X159489709Y-59280728D01*
X159641374Y-59179389D01*
X159809896Y-59109585D01*
X159988797Y-59074000D01*
X160171203Y-59074000D01*
X160350104Y-59109585D01*
X160350104Y-59109585D01*
G37*
G36*
X188190104Y-59109585D02*
G01*
X188358626Y-59179389D01*
X188510291Y-59280728D01*
X188639272Y-59409709D01*
X188740611Y-59561374D01*
X188810415Y-59729896D01*
X188846000Y-59908797D01*
X188846000Y-60091203D01*
X188810415Y-60270104D01*
X188740611Y-60438626D01*
X188639272Y-60590291D01*
X188510291Y-60719272D01*
X188358626Y-60820611D01*
X188190104Y-60890415D01*
X188011203Y-60926000D01*
X187828797Y-60926000D01*
X187649896Y-60890415D01*
X187481374Y-60820611D01*
X187329709Y-60719272D01*
X187200728Y-60590291D01*
X187099389Y-60438626D01*
X187029585Y-60270104D01*
X186994000Y-60091203D01*
X186994000Y-59908797D01*
X187029585Y-59729896D01*
X187099389Y-59561374D01*
X187200728Y-59409709D01*
X187329709Y-59280728D01*
X187481374Y-59179389D01*
X187649896Y-59109585D01*
X187828797Y-59074000D01*
X188011203Y-59074000D01*
X188190104Y-59109585D01*
X188190104Y-59109585D01*
G37*
G36*
X179350104Y-59109585D02*
G01*
X179518626Y-59179389D01*
X179670291Y-59280728D01*
X179799272Y-59409709D01*
X179900611Y-59561374D01*
X179970415Y-59729896D01*
X180006000Y-59908797D01*
X180006000Y-60091203D01*
X179970415Y-60270104D01*
X179900611Y-60438626D01*
X179799272Y-60590291D01*
X179670291Y-60719272D01*
X179518626Y-60820611D01*
X179350104Y-60890415D01*
X179171203Y-60926000D01*
X178988797Y-60926000D01*
X178809896Y-60890415D01*
X178641374Y-60820611D01*
X178489709Y-60719272D01*
X178360728Y-60590291D01*
X178259389Y-60438626D01*
X178189585Y-60270104D01*
X178154000Y-60091203D01*
X178154000Y-59908797D01*
X178189585Y-59729896D01*
X178259389Y-59561374D01*
X178360728Y-59409709D01*
X178489709Y-59280728D01*
X178641374Y-59179389D01*
X178809896Y-59109585D01*
X178988797Y-59074000D01*
X179171203Y-59074000D01*
X179350104Y-59109585D01*
X179350104Y-59109585D01*
G37*
G36*
X198350104Y-59109585D02*
G01*
X198518626Y-59179389D01*
X198670291Y-59280728D01*
X198799272Y-59409709D01*
X198900611Y-59561374D01*
X198970415Y-59729896D01*
X199006000Y-59908797D01*
X199006000Y-60091203D01*
X198970415Y-60270104D01*
X198900611Y-60438626D01*
X198799272Y-60590291D01*
X198670291Y-60719272D01*
X198518626Y-60820611D01*
X198350104Y-60890415D01*
X198171203Y-60926000D01*
X197988797Y-60926000D01*
X197809896Y-60890415D01*
X197641374Y-60820611D01*
X197489709Y-60719272D01*
X197360728Y-60590291D01*
X197259389Y-60438626D01*
X197189585Y-60270104D01*
X197154000Y-60091203D01*
X197154000Y-59908797D01*
X197189585Y-59729896D01*
X197259389Y-59561374D01*
X197360728Y-59409709D01*
X197489709Y-59280728D01*
X197641374Y-59179389D01*
X197809896Y-59109585D01*
X197988797Y-59074000D01*
X198171203Y-59074000D01*
X198350104Y-59109585D01*
X198350104Y-59109585D01*
G37*
G36*
X169190104Y-59109585D02*
G01*
X169358626Y-59179389D01*
X169510291Y-59280728D01*
X169639272Y-59409709D01*
X169740611Y-59561374D01*
X169810415Y-59729896D01*
X169846000Y-59908797D01*
X169846000Y-60091203D01*
X169810415Y-60270104D01*
X169740611Y-60438626D01*
X169639272Y-60590291D01*
X169510291Y-60719272D01*
X169358626Y-60820611D01*
X169190104Y-60890415D01*
X169011203Y-60926000D01*
X168828797Y-60926000D01*
X168649896Y-60890415D01*
X168481374Y-60820611D01*
X168329709Y-60719272D01*
X168200728Y-60590291D01*
X168099389Y-60438626D01*
X168029585Y-60270104D01*
X167994000Y-60091203D01*
X167994000Y-59908797D01*
X168029585Y-59729896D01*
X168099389Y-59561374D01*
X168200728Y-59409709D01*
X168329709Y-59280728D01*
X168481374Y-59179389D01*
X168649896Y-59109585D01*
X168828797Y-59074000D01*
X169011203Y-59074000D01*
X169190104Y-59109585D01*
X169190104Y-59109585D01*
G37*
G36*
X150190104Y-59109585D02*
G01*
X150358626Y-59179389D01*
X150510291Y-59280728D01*
X150639272Y-59409709D01*
X150740611Y-59561374D01*
X150810415Y-59729896D01*
X150846000Y-59908797D01*
X150846000Y-60091203D01*
X150810415Y-60270104D01*
X150740611Y-60438626D01*
X150639272Y-60590291D01*
X150510291Y-60719272D01*
X150358626Y-60820611D01*
X150190104Y-60890415D01*
X150011203Y-60926000D01*
X149828797Y-60926000D01*
X149649896Y-60890415D01*
X149481374Y-60820611D01*
X149329709Y-60719272D01*
X149200728Y-60590291D01*
X149099389Y-60438626D01*
X149029585Y-60270104D01*
X148994000Y-60091203D01*
X148994000Y-59908797D01*
X149029585Y-59729896D01*
X149099389Y-59561374D01*
X149200728Y-59409709D01*
X149329709Y-59280728D01*
X149481374Y-59179389D01*
X149649896Y-59109585D01*
X149828797Y-59074000D01*
X150011203Y-59074000D01*
X150190104Y-59109585D01*
X150190104Y-59109585D01*
G37*
G36*
X121400483Y-58718335D02*
G01*
X121569240Y-58788236D01*
X121721118Y-58889718D01*
X121850282Y-59018882D01*
X121951764Y-59170760D01*
X122021665Y-59339517D01*
X122057300Y-59518668D01*
X122057300Y-59701332D01*
X122021665Y-59880483D01*
X121951764Y-60049240D01*
X121850282Y-60201118D01*
X121721118Y-60330282D01*
X121569240Y-60431764D01*
X121400483Y-60501665D01*
X121221332Y-60537300D01*
X121038668Y-60537300D01*
X120859517Y-60501665D01*
X120690760Y-60431764D01*
X120538882Y-60330282D01*
X120409718Y-60201118D01*
X120308236Y-60049240D01*
X120238335Y-59880483D01*
X120202700Y-59701332D01*
X120202700Y-59518668D01*
X120238335Y-59339517D01*
X120308236Y-59170760D01*
X120409718Y-59018882D01*
X120538882Y-58889718D01*
X120690760Y-58788236D01*
X120859517Y-58718335D01*
X121038668Y-58682700D01*
X121221332Y-58682700D01*
X121400483Y-58718335D01*
X121400483Y-58718335D01*
G37*
G36*
X136640483Y-58718335D02*
G01*
X136809240Y-58788236D01*
X136961118Y-58889718D01*
X137090282Y-59018882D01*
X137191764Y-59170760D01*
X137261665Y-59339517D01*
X137297300Y-59518668D01*
X137297300Y-59701332D01*
X137261665Y-59880483D01*
X137191764Y-60049240D01*
X137090282Y-60201118D01*
X136961118Y-60330282D01*
X136809240Y-60431764D01*
X136640483Y-60501665D01*
X136461332Y-60537300D01*
X136278668Y-60537300D01*
X136099517Y-60501665D01*
X135930760Y-60431764D01*
X135778882Y-60330282D01*
X135649718Y-60201118D01*
X135548236Y-60049240D01*
X135478335Y-59880483D01*
X135442700Y-59701332D01*
X135442700Y-59518668D01*
X135478335Y-59339517D01*
X135548236Y-59170760D01*
X135649718Y-59018882D01*
X135778882Y-58889718D01*
X135930760Y-58788236D01*
X136099517Y-58718335D01*
X136278668Y-58682700D01*
X136461332Y-58682700D01*
X136640483Y-58718335D01*
X136640483Y-58718335D01*
G37*
G36*
X202263500Y-59451000D02*
G01*
X200961500Y-59451000D01*
X200961500Y-57749000D01*
X202263500Y-57749000D01*
X202263500Y-59451000D01*
X202263500Y-59451000D01*
G37*
G36*
X164163500Y-59388500D02*
G01*
X162861500Y-59388500D01*
X162861500Y-57686500D01*
X164163500Y-57686500D01*
X164163500Y-59388500D01*
X164163500Y-59388500D01*
G37*
G36*
X183251000Y-59351000D02*
G01*
X181949000Y-59351000D01*
X181949000Y-57649000D01*
X183251000Y-57649000D01*
X183251000Y-59351000D01*
X183251000Y-59351000D01*
G37*
G36*
X190523205Y-54823881D02*
G01*
X190528645Y-54824000D01*
X190615828Y-54824000D01*
X190632097Y-54827236D01*
X190650956Y-54829515D01*
X190667532Y-54830246D01*
X190752223Y-54851010D01*
X190757518Y-54852184D01*
X190843027Y-54869193D01*
X190858362Y-54875545D01*
X190876401Y-54881455D01*
X190892521Y-54885407D01*
X190971504Y-54922280D01*
X190976494Y-54924477D01*
X191057045Y-54957842D01*
X191070841Y-54967060D01*
X191087393Y-54976382D01*
X191102426Y-54983400D01*
X191172694Y-55034971D01*
X191177192Y-55038122D01*
X191249656Y-55086541D01*
X191261383Y-55098268D01*
X191275809Y-55110648D01*
X191289179Y-55120461D01*
X191289180Y-55120462D01*
X191348021Y-55184733D01*
X191351829Y-55188714D01*
X191413459Y-55250344D01*
X191422674Y-55264135D01*
X191434396Y-55279078D01*
X191445605Y-55291321D01*
X191490799Y-55365874D01*
X191493746Y-55370501D01*
X191542158Y-55442955D01*
X191548505Y-55458277D01*
X191557092Y-55475231D01*
X191565691Y-55489417D01*
X191595478Y-55571368D01*
X191597452Y-55576448D01*
X191630807Y-55656973D01*
X191630807Y-55656974D01*
X191634041Y-55673233D01*
X191639158Y-55691542D01*
X191644825Y-55707134D01*
X191658055Y-55793345D01*
X191659001Y-55798713D01*
X191676000Y-55884173D01*
X191676000Y-55900752D01*
X191677444Y-55919692D01*
X191679963Y-55936104D01*
X191676120Y-56023249D01*
X191676000Y-56028689D01*
X191676000Y-56115825D01*
X191672766Y-56132083D01*
X191670488Y-56150941D01*
X191669756Y-56167531D01*
X191648988Y-56252237D01*
X191647812Y-56257537D01*
X191630807Y-56343027D01*
X191624457Y-56358357D01*
X191618549Y-56376393D01*
X191614595Y-56392520D01*
X191577711Y-56471526D01*
X191575511Y-56476523D01*
X191542158Y-56557045D01*
X191532944Y-56570835D01*
X191523622Y-56587387D01*
X191516602Y-56602424D01*
X191465011Y-56672720D01*
X191461866Y-56677210D01*
X191413461Y-56749654D01*
X191356460Y-56806655D01*
X191351811Y-56811563D01*
X190920311Y-57292470D01*
X190026723Y-58288376D01*
X189898679Y-58405602D01*
X189799631Y-58465645D01*
X189700583Y-58525689D01*
X189482866Y-58604823D01*
X189253895Y-58639961D01*
X189022470Y-58629754D01*
X188797481Y-58574593D01*
X188692727Y-58525689D01*
X188587579Y-58476602D01*
X188490838Y-58405602D01*
X188400823Y-58339539D01*
X188326394Y-58258241D01*
X188244398Y-58168679D01*
X188162564Y-58033685D01*
X188124311Y-57970583D01*
X188045177Y-57752866D01*
X188010039Y-57523895D01*
X188020246Y-57292470D01*
X188075407Y-57067481D01*
X188145054Y-56918295D01*
X188173398Y-56857580D01*
X188173400Y-56857577D01*
X188276114Y-56717622D01*
X188953963Y-55962158D01*
X189562787Y-55283621D01*
X189573681Y-55269589D01*
X189586539Y-55250346D01*
X189643573Y-55193312D01*
X189648223Y-55188403D01*
X189663278Y-55171624D01*
X189684701Y-55152011D01*
X189688682Y-55148203D01*
X189750346Y-55086539D01*
X189764143Y-55077320D01*
X189779102Y-55065585D01*
X189791321Y-55054398D01*
X189823385Y-55034961D01*
X189865830Y-55009231D01*
X189870421Y-55006308D01*
X189942955Y-54957842D01*
X189958300Y-54951486D01*
X189975248Y-54942901D01*
X189989416Y-54934312D01*
X189989417Y-54934312D01*
X189989418Y-54934311D01*
X190071312Y-54904545D01*
X190076410Y-54902563D01*
X190156973Y-54869193D01*
X190173252Y-54865955D01*
X190191542Y-54860844D01*
X190207135Y-54855177D01*
X190293300Y-54841954D01*
X190298663Y-54841009D01*
X190384173Y-54824000D01*
X190400766Y-54824000D01*
X190419709Y-54822555D01*
X190436106Y-54820039D01*
X190523205Y-54823881D01*
X190523205Y-54823881D01*
G37*
G36*
X171523205Y-54823881D02*
G01*
X171528645Y-54824000D01*
X171615828Y-54824000D01*
X171632097Y-54827236D01*
X171650956Y-54829515D01*
X171667532Y-54830246D01*
X171752223Y-54851010D01*
X171757518Y-54852184D01*
X171843027Y-54869193D01*
X171858362Y-54875545D01*
X171876401Y-54881455D01*
X171892521Y-54885407D01*
X171971504Y-54922280D01*
X171976494Y-54924477D01*
X172057045Y-54957842D01*
X172070841Y-54967060D01*
X172087393Y-54976382D01*
X172102426Y-54983400D01*
X172172694Y-55034971D01*
X172177192Y-55038122D01*
X172249656Y-55086541D01*
X172261383Y-55098268D01*
X172275809Y-55110648D01*
X172289179Y-55120461D01*
X172289180Y-55120462D01*
X172348021Y-55184733D01*
X172351829Y-55188714D01*
X172413459Y-55250344D01*
X172422674Y-55264135D01*
X172434396Y-55279078D01*
X172445605Y-55291321D01*
X172490799Y-55365874D01*
X172493746Y-55370501D01*
X172542158Y-55442955D01*
X172548505Y-55458277D01*
X172557092Y-55475231D01*
X172565691Y-55489417D01*
X172595478Y-55571368D01*
X172597452Y-55576448D01*
X172630807Y-55656973D01*
X172630807Y-55656974D01*
X172634041Y-55673233D01*
X172639158Y-55691542D01*
X172644825Y-55707134D01*
X172658055Y-55793345D01*
X172659001Y-55798713D01*
X172676000Y-55884173D01*
X172676000Y-55900752D01*
X172677444Y-55919692D01*
X172679963Y-55936104D01*
X172676120Y-56023249D01*
X172676000Y-56028689D01*
X172676000Y-56115825D01*
X172672766Y-56132083D01*
X172670488Y-56150941D01*
X172669756Y-56167531D01*
X172648988Y-56252237D01*
X172647812Y-56257537D01*
X172630807Y-56343027D01*
X172624457Y-56358357D01*
X172618549Y-56376393D01*
X172614595Y-56392520D01*
X172577711Y-56471526D01*
X172575511Y-56476523D01*
X172542158Y-56557045D01*
X172532944Y-56570835D01*
X172523622Y-56587387D01*
X172516602Y-56602424D01*
X172465011Y-56672720D01*
X172461866Y-56677210D01*
X172413461Y-56749654D01*
X172356460Y-56806655D01*
X172351811Y-56811563D01*
X171920311Y-57292470D01*
X171026723Y-58288376D01*
X170898679Y-58405602D01*
X170799631Y-58465645D01*
X170700583Y-58525689D01*
X170482866Y-58604823D01*
X170253895Y-58639961D01*
X170022470Y-58629754D01*
X169797481Y-58574593D01*
X169692727Y-58525689D01*
X169587579Y-58476602D01*
X169490838Y-58405602D01*
X169400823Y-58339539D01*
X169326394Y-58258241D01*
X169244398Y-58168679D01*
X169162564Y-58033685D01*
X169124311Y-57970583D01*
X169045177Y-57752866D01*
X169010039Y-57523895D01*
X169020246Y-57292470D01*
X169075407Y-57067481D01*
X169145054Y-56918295D01*
X169173398Y-56857580D01*
X169173400Y-56857577D01*
X169276114Y-56717622D01*
X169953963Y-55962158D01*
X170562787Y-55283621D01*
X170573681Y-55269589D01*
X170586539Y-55250346D01*
X170643573Y-55193312D01*
X170648223Y-55188403D01*
X170663278Y-55171624D01*
X170684701Y-55152011D01*
X170688682Y-55148203D01*
X170750346Y-55086539D01*
X170764143Y-55077320D01*
X170779102Y-55065585D01*
X170791321Y-55054398D01*
X170823385Y-55034961D01*
X170865830Y-55009231D01*
X170870421Y-55006308D01*
X170942955Y-54957842D01*
X170958300Y-54951486D01*
X170975248Y-54942901D01*
X170989416Y-54934312D01*
X170989417Y-54934312D01*
X170989418Y-54934311D01*
X171071312Y-54904545D01*
X171076410Y-54902563D01*
X171156973Y-54869193D01*
X171173252Y-54865955D01*
X171191542Y-54860844D01*
X171207135Y-54855177D01*
X171293300Y-54841954D01*
X171298663Y-54841009D01*
X171384173Y-54824000D01*
X171400766Y-54824000D01*
X171419709Y-54822555D01*
X171436106Y-54820039D01*
X171523205Y-54823881D01*
X171523205Y-54823881D01*
G37*
G36*
X152523205Y-54823881D02*
G01*
X152528645Y-54824000D01*
X152615828Y-54824000D01*
X152632097Y-54827236D01*
X152650956Y-54829515D01*
X152667532Y-54830246D01*
X152752223Y-54851010D01*
X152757518Y-54852184D01*
X152843027Y-54869193D01*
X152858362Y-54875545D01*
X152876401Y-54881455D01*
X152892521Y-54885407D01*
X152971504Y-54922280D01*
X152976494Y-54924477D01*
X153057045Y-54957842D01*
X153070841Y-54967060D01*
X153087393Y-54976382D01*
X153102426Y-54983400D01*
X153172694Y-55034971D01*
X153177192Y-55038122D01*
X153249656Y-55086541D01*
X153261383Y-55098268D01*
X153275809Y-55110648D01*
X153289179Y-55120461D01*
X153289180Y-55120462D01*
X153348021Y-55184733D01*
X153351829Y-55188714D01*
X153413459Y-55250344D01*
X153422674Y-55264135D01*
X153434396Y-55279078D01*
X153445605Y-55291321D01*
X153490799Y-55365874D01*
X153493746Y-55370501D01*
X153542158Y-55442955D01*
X153548505Y-55458277D01*
X153557092Y-55475231D01*
X153565691Y-55489417D01*
X153595478Y-55571368D01*
X153597452Y-55576448D01*
X153630807Y-55656973D01*
X153630807Y-55656974D01*
X153634041Y-55673233D01*
X153639158Y-55691542D01*
X153644825Y-55707134D01*
X153658055Y-55793345D01*
X153659001Y-55798713D01*
X153676000Y-55884173D01*
X153676000Y-55900752D01*
X153677444Y-55919692D01*
X153679963Y-55936104D01*
X153676120Y-56023249D01*
X153676000Y-56028689D01*
X153676000Y-56115825D01*
X153672766Y-56132083D01*
X153670488Y-56150941D01*
X153669756Y-56167531D01*
X153648988Y-56252237D01*
X153647812Y-56257537D01*
X153630807Y-56343027D01*
X153624457Y-56358357D01*
X153618549Y-56376393D01*
X153614595Y-56392520D01*
X153577711Y-56471526D01*
X153575511Y-56476523D01*
X153542158Y-56557045D01*
X153532944Y-56570835D01*
X153523622Y-56587387D01*
X153516602Y-56602424D01*
X153465011Y-56672720D01*
X153461866Y-56677210D01*
X153413461Y-56749654D01*
X153356460Y-56806655D01*
X153351811Y-56811563D01*
X152920311Y-57292470D01*
X152026723Y-58288376D01*
X151898679Y-58405602D01*
X151799631Y-58465645D01*
X151700583Y-58525689D01*
X151482866Y-58604823D01*
X151253895Y-58639961D01*
X151022470Y-58629754D01*
X150797481Y-58574593D01*
X150692727Y-58525689D01*
X150587579Y-58476602D01*
X150490838Y-58405602D01*
X150400823Y-58339539D01*
X150326394Y-58258241D01*
X150244398Y-58168679D01*
X150162564Y-58033685D01*
X150124311Y-57970583D01*
X150045177Y-57752866D01*
X150010039Y-57523895D01*
X150020246Y-57292470D01*
X150075407Y-57067481D01*
X150145054Y-56918295D01*
X150173398Y-56857580D01*
X150173400Y-56857577D01*
X150276114Y-56717622D01*
X150953963Y-55962158D01*
X151562787Y-55283621D01*
X151573681Y-55269589D01*
X151586539Y-55250346D01*
X151643573Y-55193312D01*
X151648223Y-55188403D01*
X151663278Y-55171624D01*
X151684701Y-55152011D01*
X151688682Y-55148203D01*
X151750346Y-55086539D01*
X151764143Y-55077320D01*
X151779102Y-55065585D01*
X151791321Y-55054398D01*
X151823385Y-55034961D01*
X151865830Y-55009231D01*
X151870421Y-55006308D01*
X151942955Y-54957842D01*
X151958300Y-54951486D01*
X151975248Y-54942901D01*
X151989416Y-54934312D01*
X151989417Y-54934312D01*
X151989418Y-54934311D01*
X152071312Y-54904545D01*
X152076410Y-54902563D01*
X152156973Y-54869193D01*
X152173252Y-54865955D01*
X152191542Y-54860844D01*
X152207135Y-54855177D01*
X152293300Y-54841954D01*
X152298663Y-54841009D01*
X152384173Y-54824000D01*
X152400766Y-54824000D01*
X152419709Y-54822555D01*
X152436106Y-54820039D01*
X152523205Y-54823881D01*
X152523205Y-54823881D01*
G37*
G36*
X121400483Y-56178335D02*
G01*
X121569240Y-56248236D01*
X121721118Y-56349718D01*
X121850282Y-56478882D01*
X121951764Y-56630760D01*
X122021665Y-56799517D01*
X122057300Y-56978668D01*
X122057300Y-57161332D01*
X122021665Y-57340483D01*
X121951764Y-57509240D01*
X121850282Y-57661118D01*
X121721118Y-57790282D01*
X121569240Y-57891764D01*
X121400483Y-57961665D01*
X121221332Y-57997300D01*
X121038668Y-57997300D01*
X120859517Y-57961665D01*
X120690760Y-57891764D01*
X120538882Y-57790282D01*
X120409718Y-57661118D01*
X120308236Y-57509240D01*
X120238335Y-57340483D01*
X120202700Y-57161332D01*
X120202700Y-56978668D01*
X120238335Y-56799517D01*
X120308236Y-56630760D01*
X120409718Y-56478882D01*
X120538882Y-56349718D01*
X120690760Y-56248236D01*
X120859517Y-56178335D01*
X121038668Y-56142700D01*
X121221332Y-56142700D01*
X121400483Y-56178335D01*
X121400483Y-56178335D01*
G37*
G36*
X136640483Y-56178335D02*
G01*
X136809240Y-56248236D01*
X136961118Y-56349718D01*
X137090282Y-56478882D01*
X137191764Y-56630760D01*
X137261665Y-56799517D01*
X137297300Y-56978668D01*
X137297300Y-57161332D01*
X137261665Y-57340483D01*
X137191764Y-57509240D01*
X137090282Y-57661118D01*
X136961118Y-57790282D01*
X136809240Y-57891764D01*
X136640483Y-57961665D01*
X136461332Y-57997300D01*
X136278668Y-57997300D01*
X136099517Y-57961665D01*
X135930760Y-57891764D01*
X135778882Y-57790282D01*
X135649718Y-57661118D01*
X135548236Y-57509240D01*
X135478335Y-57340483D01*
X135442700Y-57161332D01*
X135442700Y-56978668D01*
X135478335Y-56799517D01*
X135548236Y-56630760D01*
X135649718Y-56478882D01*
X135778882Y-56349718D01*
X135930760Y-56248236D01*
X136099517Y-56178335D01*
X136278668Y-56142700D01*
X136461332Y-56142700D01*
X136640483Y-56178335D01*
X136640483Y-56178335D01*
G37*
G36*
X201860728Y-55281703D02*
G01*
X202015600Y-55345853D01*
X202154981Y-55438985D01*
X202273515Y-55557519D01*
X202366647Y-55696900D01*
X202430797Y-55851772D01*
X202463500Y-56016184D01*
X202463500Y-56183816D01*
X202430797Y-56348228D01*
X202366647Y-56503100D01*
X202273515Y-56642481D01*
X202154981Y-56761015D01*
X202015600Y-56854147D01*
X201860728Y-56918297D01*
X201696316Y-56951000D01*
X201528684Y-56951000D01*
X201364272Y-56918297D01*
X201209400Y-56854147D01*
X201070019Y-56761015D01*
X200951485Y-56642481D01*
X200858353Y-56503100D01*
X200794203Y-56348228D01*
X200761500Y-56183816D01*
X200761500Y-56016184D01*
X200794203Y-55851772D01*
X200858353Y-55696900D01*
X200951485Y-55557519D01*
X201070019Y-55438985D01*
X201209400Y-55345853D01*
X201364272Y-55281703D01*
X201528684Y-55249000D01*
X201696316Y-55249000D01*
X201860728Y-55281703D01*
X201860728Y-55281703D01*
G37*
G36*
X163760728Y-55219203D02*
G01*
X163915600Y-55283353D01*
X164054981Y-55376485D01*
X164173515Y-55495019D01*
X164266647Y-55634400D01*
X164330797Y-55789272D01*
X164363500Y-55953684D01*
X164363500Y-56121316D01*
X164330797Y-56285728D01*
X164266647Y-56440600D01*
X164173515Y-56579981D01*
X164054981Y-56698515D01*
X163915600Y-56791647D01*
X163760728Y-56855797D01*
X163596316Y-56888500D01*
X163428684Y-56888500D01*
X163264272Y-56855797D01*
X163109400Y-56791647D01*
X162970019Y-56698515D01*
X162851485Y-56579981D01*
X162758353Y-56440600D01*
X162694203Y-56285728D01*
X162661500Y-56121316D01*
X162661500Y-55953684D01*
X162694203Y-55789272D01*
X162758353Y-55634400D01*
X162851485Y-55495019D01*
X162970019Y-55376485D01*
X163109400Y-55283353D01*
X163264272Y-55219203D01*
X163428684Y-55186500D01*
X163596316Y-55186500D01*
X163760728Y-55219203D01*
X163760728Y-55219203D01*
G37*
G36*
X182848228Y-55181703D02*
G01*
X183003100Y-55245853D01*
X183142481Y-55338985D01*
X183261015Y-55457519D01*
X183354147Y-55596900D01*
X183418297Y-55751772D01*
X183451000Y-55916184D01*
X183451000Y-56083816D01*
X183418297Y-56248228D01*
X183354147Y-56403100D01*
X183261015Y-56542481D01*
X183142481Y-56661015D01*
X183003100Y-56754147D01*
X182848228Y-56818297D01*
X182683816Y-56851000D01*
X182516184Y-56851000D01*
X182351772Y-56818297D01*
X182196900Y-56754147D01*
X182057519Y-56661015D01*
X181938985Y-56542481D01*
X181845853Y-56403100D01*
X181781703Y-56248228D01*
X181749000Y-56083816D01*
X181749000Y-55916184D01*
X181781703Y-55751772D01*
X181845853Y-55596900D01*
X181938985Y-55457519D01*
X182057519Y-55338985D01*
X182196900Y-55245853D01*
X182351772Y-55181703D01*
X182516184Y-55149000D01*
X182683816Y-55149000D01*
X182848228Y-55181703D01*
X182848228Y-55181703D01*
G37*
G36*
X195628127Y-53742261D02*
G01*
X195648900Y-53744000D01*
X195655827Y-53744000D01*
X195750754Y-53762882D01*
X195754348Y-53763542D01*
X195849730Y-53779624D01*
X195856203Y-53782085D01*
X195876228Y-53787841D01*
X195883027Y-53789193D01*
X195932579Y-53809718D01*
X195972443Y-53826230D01*
X195975844Y-53827581D01*
X196066255Y-53861961D01*
X196072127Y-53865640D01*
X196090636Y-53875187D01*
X196097045Y-53877842D01*
X196177563Y-53931642D01*
X196180554Y-53933578D01*
X196262557Y-53984959D01*
X196267584Y-53989700D01*
X196283896Y-54002691D01*
X196289652Y-54006537D01*
X196358110Y-54074995D01*
X196360689Y-54077499D01*
X196431090Y-54143889D01*
X196435095Y-54149519D01*
X196448559Y-54165444D01*
X196453459Y-54170344D01*
X196507244Y-54250839D01*
X196509291Y-54253807D01*
X196565380Y-54332645D01*
X196568214Y-54338958D01*
X196578308Y-54357193D01*
X196582158Y-54362955D01*
X196619220Y-54452430D01*
X196620624Y-54455685D01*
X196660265Y-54543973D01*
X196661815Y-54550725D01*
X196668152Y-54570562D01*
X196670807Y-54576973D01*
X196689692Y-54671917D01*
X196690438Y-54675401D01*
X196712098Y-54769751D01*
X196712098Y-54769754D01*
X196712300Y-54776654D01*
X196714647Y-54797370D01*
X196716000Y-54804174D01*
X196716000Y-54900986D01*
X196716053Y-54904584D01*
X196717188Y-54943277D01*
X196716295Y-54956225D01*
X196716000Y-54964797D01*
X196716000Y-55035826D01*
X196710081Y-55065585D01*
X196709604Y-55067979D01*
X196707500Y-55083750D01*
X196669238Y-55638545D01*
X196640376Y-55809730D01*
X196558038Y-56026255D01*
X196435041Y-56222557D01*
X196276111Y-56391090D01*
X196087355Y-56525380D01*
X195876027Y-56620265D01*
X195650249Y-56672098D01*
X195418698Y-56678889D01*
X195418697Y-56678889D01*
X195373012Y-56671186D01*
X195190270Y-56640376D01*
X194973745Y-56558038D01*
X194777443Y-56435041D01*
X194608910Y-56276111D01*
X194474620Y-56087355D01*
X194379735Y-55876027D01*
X194327902Y-55650249D01*
X194322812Y-55476723D01*
X194363704Y-54883794D01*
X194364000Y-54875196D01*
X194364000Y-54804175D01*
X194382882Y-54709250D01*
X194383544Y-54705645D01*
X194389231Y-54671917D01*
X194399624Y-54610270D01*
X194402085Y-54603799D01*
X194407842Y-54583767D01*
X194409193Y-54576974D01*
X194411843Y-54570576D01*
X194446264Y-54487476D01*
X194447553Y-54484230D01*
X194481962Y-54393745D01*
X194485636Y-54387881D01*
X194495187Y-54369365D01*
X194497842Y-54362955D01*
X194551657Y-54282415D01*
X194553577Y-54279449D01*
X194604959Y-54197443D01*
X194609711Y-54192404D01*
X194622689Y-54176107D01*
X194626537Y-54170348D01*
X194694993Y-54101892D01*
X194697546Y-54099262D01*
X194705564Y-54090760D01*
X194763889Y-54028910D01*
X194769521Y-54024903D01*
X194785447Y-54011438D01*
X194790346Y-54006539D01*
X194870824Y-53952766D01*
X194873806Y-53950710D01*
X194952645Y-53894620D01*
X194958955Y-53891787D01*
X194977194Y-53881691D01*
X194982951Y-53877844D01*
X194982954Y-53877843D01*
X194982955Y-53877842D01*
X195072429Y-53840781D01*
X195075687Y-53839375D01*
X195163973Y-53799735D01*
X195170725Y-53798185D01*
X195190562Y-53791848D01*
X195196973Y-53789193D01*
X195291899Y-53770311D01*
X195295446Y-53769551D01*
X195389751Y-53747901D01*
X195392130Y-53747831D01*
X195396665Y-53747698D01*
X195417381Y-53745351D01*
X195424174Y-53744000D01*
X195520959Y-53744000D01*
X195524584Y-53743947D01*
X195621302Y-53741110D01*
X195628127Y-53742261D01*
X195628127Y-53742261D01*
G37*
G36*
X176628127Y-53742261D02*
G01*
X176648900Y-53744000D01*
X176655827Y-53744000D01*
X176750754Y-53762882D01*
X176754348Y-53763542D01*
X176849730Y-53779624D01*
X176856203Y-53782085D01*
X176876228Y-53787841D01*
X176883027Y-53789193D01*
X176932579Y-53809718D01*
X176972443Y-53826230D01*
X176975844Y-53827581D01*
X177066255Y-53861961D01*
X177072127Y-53865640D01*
X177090636Y-53875187D01*
X177097045Y-53877842D01*
X177177563Y-53931642D01*
X177180554Y-53933578D01*
X177262557Y-53984959D01*
X177267584Y-53989700D01*
X177283896Y-54002691D01*
X177289652Y-54006537D01*
X177358110Y-54074995D01*
X177360689Y-54077499D01*
X177431090Y-54143889D01*
X177435095Y-54149519D01*
X177448559Y-54165444D01*
X177453459Y-54170344D01*
X177507244Y-54250839D01*
X177509291Y-54253807D01*
X177565380Y-54332645D01*
X177568214Y-54338958D01*
X177578308Y-54357193D01*
X177582158Y-54362955D01*
X177619220Y-54452430D01*
X177620624Y-54455685D01*
X177660265Y-54543973D01*
X177661815Y-54550725D01*
X177668152Y-54570562D01*
X177670807Y-54576973D01*
X177689692Y-54671917D01*
X177690438Y-54675401D01*
X177712098Y-54769751D01*
X177712098Y-54769754D01*
X177712300Y-54776654D01*
X177714647Y-54797370D01*
X177716000Y-54804174D01*
X177716000Y-54900986D01*
X177716053Y-54904584D01*
X177717188Y-54943277D01*
X177716295Y-54956225D01*
X177716000Y-54964797D01*
X177716000Y-55035826D01*
X177710081Y-55065585D01*
X177709604Y-55067979D01*
X177707500Y-55083750D01*
X177669238Y-55638545D01*
X177640376Y-55809730D01*
X177558038Y-56026255D01*
X177435041Y-56222557D01*
X177276111Y-56391090D01*
X177087355Y-56525380D01*
X176876027Y-56620265D01*
X176650249Y-56672098D01*
X176418698Y-56678889D01*
X176418697Y-56678889D01*
X176373012Y-56671186D01*
X176190270Y-56640376D01*
X175973745Y-56558038D01*
X175777443Y-56435041D01*
X175608910Y-56276111D01*
X175474620Y-56087355D01*
X175379735Y-55876027D01*
X175327902Y-55650249D01*
X175322812Y-55476723D01*
X175363704Y-54883794D01*
X175364000Y-54875196D01*
X175364000Y-54804175D01*
X175382882Y-54709250D01*
X175383544Y-54705645D01*
X175389231Y-54671917D01*
X175399624Y-54610270D01*
X175402085Y-54603799D01*
X175407842Y-54583767D01*
X175409193Y-54576974D01*
X175411843Y-54570576D01*
X175446264Y-54487476D01*
X175447553Y-54484230D01*
X175481962Y-54393745D01*
X175485636Y-54387881D01*
X175495187Y-54369365D01*
X175497842Y-54362955D01*
X175551657Y-54282415D01*
X175553577Y-54279449D01*
X175604959Y-54197443D01*
X175609711Y-54192404D01*
X175622689Y-54176107D01*
X175626537Y-54170348D01*
X175694993Y-54101892D01*
X175697546Y-54099262D01*
X175705564Y-54090760D01*
X175763889Y-54028910D01*
X175769521Y-54024903D01*
X175785447Y-54011438D01*
X175790346Y-54006539D01*
X175870824Y-53952766D01*
X175873806Y-53950710D01*
X175952645Y-53894620D01*
X175958955Y-53891787D01*
X175977194Y-53881691D01*
X175982951Y-53877844D01*
X175982954Y-53877843D01*
X175982955Y-53877842D01*
X176072429Y-53840781D01*
X176075687Y-53839375D01*
X176163973Y-53799735D01*
X176170725Y-53798185D01*
X176190562Y-53791848D01*
X176196973Y-53789193D01*
X176291899Y-53770311D01*
X176295446Y-53769551D01*
X176389751Y-53747901D01*
X176392130Y-53747831D01*
X176396665Y-53747698D01*
X176417381Y-53745351D01*
X176424174Y-53744000D01*
X176520959Y-53744000D01*
X176524584Y-53743947D01*
X176621302Y-53741110D01*
X176628127Y-53742261D01*
X176628127Y-53742261D01*
G37*
G36*
X157628127Y-53742261D02*
G01*
X157648900Y-53744000D01*
X157655827Y-53744000D01*
X157750754Y-53762882D01*
X157754348Y-53763542D01*
X157849730Y-53779624D01*
X157856203Y-53782085D01*
X157876228Y-53787841D01*
X157883027Y-53789193D01*
X157932579Y-53809718D01*
X157972443Y-53826230D01*
X157975844Y-53827581D01*
X158066255Y-53861961D01*
X158072127Y-53865640D01*
X158090636Y-53875187D01*
X158097045Y-53877842D01*
X158177563Y-53931642D01*
X158180554Y-53933578D01*
X158262557Y-53984959D01*
X158267584Y-53989700D01*
X158283896Y-54002691D01*
X158289652Y-54006537D01*
X158358110Y-54074995D01*
X158360689Y-54077499D01*
X158431090Y-54143889D01*
X158435095Y-54149519D01*
X158448559Y-54165444D01*
X158453459Y-54170344D01*
X158507244Y-54250839D01*
X158509291Y-54253807D01*
X158565380Y-54332645D01*
X158568214Y-54338958D01*
X158578308Y-54357193D01*
X158582158Y-54362955D01*
X158619220Y-54452430D01*
X158620624Y-54455685D01*
X158660265Y-54543973D01*
X158661815Y-54550725D01*
X158668152Y-54570562D01*
X158670807Y-54576973D01*
X158689692Y-54671917D01*
X158690438Y-54675401D01*
X158712098Y-54769751D01*
X158712098Y-54769754D01*
X158712300Y-54776654D01*
X158714647Y-54797370D01*
X158716000Y-54804174D01*
X158716000Y-54900986D01*
X158716053Y-54904584D01*
X158717188Y-54943277D01*
X158716295Y-54956225D01*
X158716000Y-54964797D01*
X158716000Y-55035826D01*
X158710081Y-55065585D01*
X158709604Y-55067979D01*
X158707500Y-55083750D01*
X158669238Y-55638545D01*
X158640376Y-55809730D01*
X158558038Y-56026255D01*
X158435041Y-56222557D01*
X158276111Y-56391090D01*
X158087355Y-56525380D01*
X157876027Y-56620265D01*
X157650249Y-56672098D01*
X157418698Y-56678889D01*
X157418697Y-56678889D01*
X157373012Y-56671186D01*
X157190270Y-56640376D01*
X156973745Y-56558038D01*
X156777443Y-56435041D01*
X156608910Y-56276111D01*
X156474620Y-56087355D01*
X156379735Y-55876027D01*
X156327902Y-55650249D01*
X156322812Y-55476723D01*
X156363704Y-54883794D01*
X156364000Y-54875196D01*
X156364000Y-54804175D01*
X156382882Y-54709250D01*
X156383544Y-54705645D01*
X156389231Y-54671917D01*
X156399624Y-54610270D01*
X156402085Y-54603799D01*
X156407842Y-54583767D01*
X156409193Y-54576974D01*
X156411843Y-54570576D01*
X156446264Y-54487476D01*
X156447553Y-54484230D01*
X156481962Y-54393745D01*
X156485636Y-54387881D01*
X156495187Y-54369365D01*
X156497842Y-54362955D01*
X156551657Y-54282415D01*
X156553577Y-54279449D01*
X156604959Y-54197443D01*
X156609711Y-54192404D01*
X156622689Y-54176107D01*
X156626537Y-54170348D01*
X156694993Y-54101892D01*
X156697546Y-54099262D01*
X156705564Y-54090760D01*
X156763889Y-54028910D01*
X156769521Y-54024903D01*
X156785447Y-54011438D01*
X156790346Y-54006539D01*
X156870824Y-53952766D01*
X156873806Y-53950710D01*
X156952645Y-53894620D01*
X156958955Y-53891787D01*
X156977194Y-53881691D01*
X156982951Y-53877844D01*
X156982954Y-53877843D01*
X156982955Y-53877842D01*
X157072429Y-53840781D01*
X157075687Y-53839375D01*
X157163973Y-53799735D01*
X157170725Y-53798185D01*
X157190562Y-53791848D01*
X157196973Y-53789193D01*
X157291899Y-53770311D01*
X157295446Y-53769551D01*
X157389751Y-53747901D01*
X157392130Y-53747831D01*
X157396665Y-53747698D01*
X157417381Y-53745351D01*
X157424174Y-53744000D01*
X157520959Y-53744000D01*
X157524584Y-53743947D01*
X157621302Y-53741110D01*
X157628127Y-53742261D01*
X157628127Y-53742261D01*
G37*
G36*
X136640483Y-53638335D02*
G01*
X136809240Y-53708236D01*
X136961118Y-53809718D01*
X137090282Y-53938882D01*
X137191764Y-54090760D01*
X137261665Y-54259517D01*
X137297300Y-54438668D01*
X137297300Y-54621332D01*
X137261665Y-54800483D01*
X137191764Y-54969240D01*
X137090282Y-55121118D01*
X136961118Y-55250282D01*
X136809240Y-55351764D01*
X136640483Y-55421665D01*
X136461332Y-55457300D01*
X136278668Y-55457300D01*
X136099517Y-55421665D01*
X135930760Y-55351764D01*
X135778882Y-55250282D01*
X135649718Y-55121118D01*
X135548236Y-54969240D01*
X135478335Y-54800483D01*
X135442700Y-54621332D01*
X135442700Y-54438668D01*
X135478335Y-54259517D01*
X135548236Y-54090760D01*
X135649718Y-53938882D01*
X135778882Y-53809718D01*
X135930760Y-53708236D01*
X136099517Y-53638335D01*
X136278668Y-53602700D01*
X136461332Y-53602700D01*
X136640483Y-53638335D01*
X136640483Y-53638335D01*
G37*
G36*
X122057300Y-55457300D02*
G01*
X120202700Y-55457300D01*
X120202700Y-53602700D01*
X122057300Y-53602700D01*
X122057300Y-55457300D01*
X122057300Y-55457300D01*
G37*
M02*
