G04 #@! TF.GenerationSoftware,KiCad,Pcbnew,(5.1.4)-1*
G04 #@! TF.CreationDate,2020-08-22T19:17:11-06:00*
G04 #@! TF.ProjectId,smolPad,736d6f6c-5061-4642-9e6b-696361645f70,rev?*
G04 #@! TF.SameCoordinates,Original*
G04 #@! TF.FileFunction,Soldermask,Top*
G04 #@! TF.FilePolarity,Negative*
%FSLAX46Y46*%
G04 Gerber Fmt 4.6, Leading zero omitted, Abs format (unit mm)*
G04 Created by KiCad (PCBNEW (5.1.4)-1) date 2020-08-22 19:17:11*
%MOMM*%
%LPD*%
G04 APERTURE LIST*
%ADD10C,0.020000*%
G04 APERTURE END LIST*
D10*
G36*
X202463500Y-121551000D02*
G01*
X200761500Y-121551000D01*
X200761500Y-119849000D01*
X202463500Y-119849000D01*
X202463500Y-121551000D01*
X202463500Y-121551000D01*
G37*
G36*
X183413500Y-121501000D02*
G01*
X181711500Y-121501000D01*
X181711500Y-119799000D01*
X183413500Y-119799000D01*
X183413500Y-121501000D01*
X183413500Y-121501000D01*
G37*
G36*
X164363500Y-121501000D02*
G01*
X162661500Y-121501000D01*
X162661500Y-119799000D01*
X164363500Y-119799000D01*
X164363500Y-121501000D01*
X164363500Y-121501000D01*
G37*
G36*
X202263500Y-119051000D02*
G01*
X200961500Y-119051000D01*
X200961500Y-117349000D01*
X202263500Y-117349000D01*
X202263500Y-119051000D01*
X202263500Y-119051000D01*
G37*
G36*
X193596474Y-115033684D02*
G01*
X193814474Y-115123983D01*
X193968623Y-115187833D01*
X194303548Y-115411623D01*
X194588377Y-115696452D01*
X194812167Y-116031377D01*
X194844562Y-116109586D01*
X194966316Y-116403526D01*
X195044900Y-116798594D01*
X195044900Y-117201406D01*
X194966316Y-117596474D01*
X194915451Y-117719272D01*
X194812167Y-117968623D01*
X194588377Y-118303548D01*
X194303548Y-118588377D01*
X193968623Y-118812167D01*
X193814474Y-118876017D01*
X193596474Y-118966316D01*
X193201406Y-119044900D01*
X192798594Y-119044900D01*
X192403526Y-118966316D01*
X192185526Y-118876017D01*
X192031377Y-118812167D01*
X191696452Y-118588377D01*
X191411623Y-118303548D01*
X191187833Y-117968623D01*
X191084549Y-117719272D01*
X191033684Y-117596474D01*
X190955100Y-117201406D01*
X190955100Y-116798594D01*
X191033684Y-116403526D01*
X191155438Y-116109586D01*
X191187833Y-116031377D01*
X191411623Y-115696452D01*
X191696452Y-115411623D01*
X192031377Y-115187833D01*
X192185526Y-115123983D01*
X192403526Y-115033684D01*
X192798594Y-114955100D01*
X193201406Y-114955100D01*
X193596474Y-115033684D01*
X193596474Y-115033684D01*
G37*
G36*
X174596474Y-115033684D02*
G01*
X174814474Y-115123983D01*
X174968623Y-115187833D01*
X175303548Y-115411623D01*
X175588377Y-115696452D01*
X175812167Y-116031377D01*
X175844562Y-116109586D01*
X175966316Y-116403526D01*
X176044900Y-116798594D01*
X176044900Y-117201406D01*
X175966316Y-117596474D01*
X175915451Y-117719272D01*
X175812167Y-117968623D01*
X175588377Y-118303548D01*
X175303548Y-118588377D01*
X174968623Y-118812167D01*
X174814474Y-118876017D01*
X174596474Y-118966316D01*
X174201406Y-119044900D01*
X173798594Y-119044900D01*
X173403526Y-118966316D01*
X173185526Y-118876017D01*
X173031377Y-118812167D01*
X172696452Y-118588377D01*
X172411623Y-118303548D01*
X172187833Y-117968623D01*
X172084549Y-117719272D01*
X172033684Y-117596474D01*
X171955100Y-117201406D01*
X171955100Y-116798594D01*
X172033684Y-116403526D01*
X172155438Y-116109586D01*
X172187833Y-116031377D01*
X172411623Y-115696452D01*
X172696452Y-115411623D01*
X173031377Y-115187833D01*
X173185526Y-115123983D01*
X173403526Y-115033684D01*
X173798594Y-114955100D01*
X174201406Y-114955100D01*
X174596474Y-115033684D01*
X174596474Y-115033684D01*
G37*
G36*
X155596474Y-115033684D02*
G01*
X155814474Y-115123983D01*
X155968623Y-115187833D01*
X156303548Y-115411623D01*
X156588377Y-115696452D01*
X156812167Y-116031377D01*
X156844562Y-116109586D01*
X156966316Y-116403526D01*
X157044900Y-116798594D01*
X157044900Y-117201406D01*
X156966316Y-117596474D01*
X156915451Y-117719272D01*
X156812167Y-117968623D01*
X156588377Y-118303548D01*
X156303548Y-118588377D01*
X155968623Y-118812167D01*
X155814474Y-118876017D01*
X155596474Y-118966316D01*
X155201406Y-119044900D01*
X154798594Y-119044900D01*
X154403526Y-118966316D01*
X154185526Y-118876017D01*
X154031377Y-118812167D01*
X153696452Y-118588377D01*
X153411623Y-118303548D01*
X153187833Y-117968623D01*
X153084549Y-117719272D01*
X153033684Y-117596474D01*
X152955100Y-117201406D01*
X152955100Y-116798594D01*
X153033684Y-116403526D01*
X153155438Y-116109586D01*
X153187833Y-116031377D01*
X153411623Y-115696452D01*
X153696452Y-115411623D01*
X154031377Y-115187833D01*
X154185526Y-115123983D01*
X154403526Y-115033684D01*
X154798594Y-114955100D01*
X155201406Y-114955100D01*
X155596474Y-115033684D01*
X155596474Y-115033684D01*
G37*
G36*
X183213500Y-119001000D02*
G01*
X181911500Y-119001000D01*
X181911500Y-117299000D01*
X183213500Y-117299000D01*
X183213500Y-119001000D01*
X183213500Y-119001000D01*
G37*
G36*
X164163500Y-119001000D02*
G01*
X162861500Y-119001000D01*
X162861500Y-117299000D01*
X164163500Y-117299000D01*
X164163500Y-119001000D01*
X164163500Y-119001000D01*
G37*
G36*
X150190104Y-116109585D02*
G01*
X150358626Y-116179389D01*
X150510291Y-116280728D01*
X150639272Y-116409709D01*
X150740611Y-116561374D01*
X150810415Y-116729896D01*
X150846000Y-116908797D01*
X150846000Y-117091203D01*
X150810415Y-117270104D01*
X150740611Y-117438626D01*
X150639272Y-117590291D01*
X150510291Y-117719272D01*
X150358626Y-117820611D01*
X150190104Y-117890415D01*
X150011203Y-117926000D01*
X149828797Y-117926000D01*
X149649896Y-117890415D01*
X149481374Y-117820611D01*
X149329709Y-117719272D01*
X149200728Y-117590291D01*
X149099389Y-117438626D01*
X149029585Y-117270104D01*
X148994000Y-117091203D01*
X148994000Y-116908797D01*
X149029585Y-116729896D01*
X149099389Y-116561374D01*
X149200728Y-116409709D01*
X149329709Y-116280728D01*
X149481374Y-116179389D01*
X149649896Y-116109585D01*
X149828797Y-116074000D01*
X150011203Y-116074000D01*
X150190104Y-116109585D01*
X150190104Y-116109585D01*
G37*
G36*
X198350104Y-116109585D02*
G01*
X198518626Y-116179389D01*
X198670291Y-116280728D01*
X198799272Y-116409709D01*
X198900611Y-116561374D01*
X198970415Y-116729896D01*
X199006000Y-116908797D01*
X199006000Y-117091203D01*
X198970415Y-117270104D01*
X198900611Y-117438626D01*
X198799272Y-117590291D01*
X198670291Y-117719272D01*
X198518626Y-117820611D01*
X198350104Y-117890415D01*
X198171203Y-117926000D01*
X197988797Y-117926000D01*
X197809896Y-117890415D01*
X197641374Y-117820611D01*
X197489709Y-117719272D01*
X197360728Y-117590291D01*
X197259389Y-117438626D01*
X197189585Y-117270104D01*
X197154000Y-117091203D01*
X197154000Y-116908797D01*
X197189585Y-116729896D01*
X197259389Y-116561374D01*
X197360728Y-116409709D01*
X197489709Y-116280728D01*
X197641374Y-116179389D01*
X197809896Y-116109585D01*
X197988797Y-116074000D01*
X198171203Y-116074000D01*
X198350104Y-116109585D01*
X198350104Y-116109585D01*
G37*
G36*
X188190104Y-116109585D02*
G01*
X188358626Y-116179389D01*
X188510291Y-116280728D01*
X188639272Y-116409709D01*
X188740611Y-116561374D01*
X188810415Y-116729896D01*
X188846000Y-116908797D01*
X188846000Y-117091203D01*
X188810415Y-117270104D01*
X188740611Y-117438626D01*
X188639272Y-117590291D01*
X188510291Y-117719272D01*
X188358626Y-117820611D01*
X188190104Y-117890415D01*
X188011203Y-117926000D01*
X187828797Y-117926000D01*
X187649896Y-117890415D01*
X187481374Y-117820611D01*
X187329709Y-117719272D01*
X187200728Y-117590291D01*
X187099389Y-117438626D01*
X187029585Y-117270104D01*
X186994000Y-117091203D01*
X186994000Y-116908797D01*
X187029585Y-116729896D01*
X187099389Y-116561374D01*
X187200728Y-116409709D01*
X187329709Y-116280728D01*
X187481374Y-116179389D01*
X187649896Y-116109585D01*
X187828797Y-116074000D01*
X188011203Y-116074000D01*
X188190104Y-116109585D01*
X188190104Y-116109585D01*
G37*
G36*
X179350104Y-116109585D02*
G01*
X179518626Y-116179389D01*
X179670291Y-116280728D01*
X179799272Y-116409709D01*
X179900611Y-116561374D01*
X179970415Y-116729896D01*
X180006000Y-116908797D01*
X180006000Y-117091203D01*
X179970415Y-117270104D01*
X179900611Y-117438626D01*
X179799272Y-117590291D01*
X179670291Y-117719272D01*
X179518626Y-117820611D01*
X179350104Y-117890415D01*
X179171203Y-117926000D01*
X178988797Y-117926000D01*
X178809896Y-117890415D01*
X178641374Y-117820611D01*
X178489709Y-117719272D01*
X178360728Y-117590291D01*
X178259389Y-117438626D01*
X178189585Y-117270104D01*
X178154000Y-117091203D01*
X178154000Y-116908797D01*
X178189585Y-116729896D01*
X178259389Y-116561374D01*
X178360728Y-116409709D01*
X178489709Y-116280728D01*
X178641374Y-116179389D01*
X178809896Y-116109585D01*
X178988797Y-116074000D01*
X179171203Y-116074000D01*
X179350104Y-116109585D01*
X179350104Y-116109585D01*
G37*
G36*
X169190104Y-116109585D02*
G01*
X169358626Y-116179389D01*
X169510291Y-116280728D01*
X169639272Y-116409709D01*
X169740611Y-116561374D01*
X169810415Y-116729896D01*
X169846000Y-116908797D01*
X169846000Y-117091203D01*
X169810415Y-117270104D01*
X169740611Y-117438626D01*
X169639272Y-117590291D01*
X169510291Y-117719272D01*
X169358626Y-117820611D01*
X169190104Y-117890415D01*
X169011203Y-117926000D01*
X168828797Y-117926000D01*
X168649896Y-117890415D01*
X168481374Y-117820611D01*
X168329709Y-117719272D01*
X168200728Y-117590291D01*
X168099389Y-117438626D01*
X168029585Y-117270104D01*
X167994000Y-117091203D01*
X167994000Y-116908797D01*
X168029585Y-116729896D01*
X168099389Y-116561374D01*
X168200728Y-116409709D01*
X168329709Y-116280728D01*
X168481374Y-116179389D01*
X168649896Y-116109585D01*
X168828797Y-116074000D01*
X169011203Y-116074000D01*
X169190104Y-116109585D01*
X169190104Y-116109585D01*
G37*
G36*
X160350104Y-116109585D02*
G01*
X160518626Y-116179389D01*
X160670291Y-116280728D01*
X160799272Y-116409709D01*
X160900611Y-116561374D01*
X160970415Y-116729896D01*
X161006000Y-116908797D01*
X161006000Y-117091203D01*
X160970415Y-117270104D01*
X160900611Y-117438626D01*
X160799272Y-117590291D01*
X160670291Y-117719272D01*
X160518626Y-117820611D01*
X160350104Y-117890415D01*
X160171203Y-117926000D01*
X159988797Y-117926000D01*
X159809896Y-117890415D01*
X159641374Y-117820611D01*
X159489709Y-117719272D01*
X159360728Y-117590291D01*
X159259389Y-117438626D01*
X159189585Y-117270104D01*
X159154000Y-117091203D01*
X159154000Y-116908797D01*
X159189585Y-116729896D01*
X159259389Y-116561374D01*
X159360728Y-116409709D01*
X159489709Y-116280728D01*
X159641374Y-116179389D01*
X159809896Y-116109585D01*
X159988797Y-116074000D01*
X160171203Y-116074000D01*
X160350104Y-116109585D01*
X160350104Y-116109585D01*
G37*
G36*
X202263500Y-116251000D02*
G01*
X200961500Y-116251000D01*
X200961500Y-114549000D01*
X202263500Y-114549000D01*
X202263500Y-116251000D01*
X202263500Y-116251000D01*
G37*
G36*
X164163500Y-116201000D02*
G01*
X162861500Y-116201000D01*
X162861500Y-114499000D01*
X164163500Y-114499000D01*
X164163500Y-116201000D01*
X164163500Y-116201000D01*
G37*
G36*
X183213500Y-116201000D02*
G01*
X181911500Y-116201000D01*
X181911500Y-114499000D01*
X183213500Y-114499000D01*
X183213500Y-116201000D01*
X183213500Y-116201000D01*
G37*
G36*
X201860728Y-112081703D02*
G01*
X202015600Y-112145853D01*
X202154981Y-112238985D01*
X202273515Y-112357519D01*
X202366647Y-112496900D01*
X202430797Y-112651772D01*
X202463500Y-112816184D01*
X202463500Y-112983816D01*
X202430797Y-113148228D01*
X202366647Y-113303100D01*
X202273515Y-113442481D01*
X202154981Y-113561015D01*
X202015600Y-113654147D01*
X201860728Y-113718297D01*
X201696316Y-113751000D01*
X201528684Y-113751000D01*
X201364272Y-113718297D01*
X201209400Y-113654147D01*
X201070019Y-113561015D01*
X200951485Y-113442481D01*
X200858353Y-113303100D01*
X200794203Y-113148228D01*
X200761500Y-112983816D01*
X200761500Y-112816184D01*
X200794203Y-112651772D01*
X200858353Y-112496900D01*
X200951485Y-112357519D01*
X201070019Y-112238985D01*
X201209400Y-112145853D01*
X201364272Y-112081703D01*
X201528684Y-112049000D01*
X201696316Y-112049000D01*
X201860728Y-112081703D01*
X201860728Y-112081703D01*
G37*
G36*
X182810728Y-112031703D02*
G01*
X182965600Y-112095853D01*
X183104981Y-112188985D01*
X183223515Y-112307519D01*
X183316647Y-112446900D01*
X183380797Y-112601772D01*
X183413500Y-112766184D01*
X183413500Y-112933816D01*
X183380797Y-113098228D01*
X183316647Y-113253100D01*
X183223515Y-113392481D01*
X183104981Y-113511015D01*
X182965600Y-113604147D01*
X182810728Y-113668297D01*
X182646316Y-113701000D01*
X182478684Y-113701000D01*
X182314272Y-113668297D01*
X182159400Y-113604147D01*
X182020019Y-113511015D01*
X181901485Y-113392481D01*
X181808353Y-113253100D01*
X181744203Y-113098228D01*
X181711500Y-112933816D01*
X181711500Y-112766184D01*
X181744203Y-112601772D01*
X181808353Y-112446900D01*
X181901485Y-112307519D01*
X182020019Y-112188985D01*
X182159400Y-112095853D01*
X182314272Y-112031703D01*
X182478684Y-111999000D01*
X182646316Y-111999000D01*
X182810728Y-112031703D01*
X182810728Y-112031703D01*
G37*
G36*
X163760728Y-112031703D02*
G01*
X163915600Y-112095853D01*
X164054981Y-112188985D01*
X164173515Y-112307519D01*
X164266647Y-112446900D01*
X164330797Y-112601772D01*
X164363500Y-112766184D01*
X164363500Y-112933816D01*
X164330797Y-113098228D01*
X164266647Y-113253100D01*
X164173515Y-113392481D01*
X164054981Y-113511015D01*
X163915600Y-113604147D01*
X163760728Y-113668297D01*
X163596316Y-113701000D01*
X163428684Y-113701000D01*
X163264272Y-113668297D01*
X163109400Y-113604147D01*
X162970019Y-113511015D01*
X162851485Y-113392481D01*
X162758353Y-113253100D01*
X162694203Y-113098228D01*
X162661500Y-112933816D01*
X162661500Y-112766184D01*
X162694203Y-112601772D01*
X162758353Y-112446900D01*
X162851485Y-112307519D01*
X162970019Y-112188985D01*
X163109400Y-112095853D01*
X163264272Y-112031703D01*
X163428684Y-111999000D01*
X163596316Y-111999000D01*
X163760728Y-112031703D01*
X163760728Y-112031703D01*
G37*
G36*
X164363500Y-102793500D02*
G01*
X162661500Y-102793500D01*
X162661500Y-101091500D01*
X164363500Y-101091500D01*
X164363500Y-102793500D01*
X164363500Y-102793500D01*
G37*
G36*
X202463500Y-102793500D02*
G01*
X200761500Y-102793500D01*
X200761500Y-101091500D01*
X202463500Y-101091500D01*
X202463500Y-102793500D01*
X202463500Y-102793500D01*
G37*
G36*
X183413500Y-102793500D02*
G01*
X181711500Y-102793500D01*
X181711500Y-101091500D01*
X183413500Y-101091500D01*
X183413500Y-102793500D01*
X183413500Y-102793500D01*
G37*
G36*
X183213500Y-100293500D02*
G01*
X181911500Y-100293500D01*
X181911500Y-98591500D01*
X183213500Y-98591500D01*
X183213500Y-100293500D01*
X183213500Y-100293500D01*
G37*
G36*
X164163500Y-100293500D02*
G01*
X162861500Y-100293500D01*
X162861500Y-98591500D01*
X164163500Y-98591500D01*
X164163500Y-100293500D01*
X164163500Y-100293500D01*
G37*
G36*
X202263500Y-100293500D02*
G01*
X200961500Y-100293500D01*
X200961500Y-98591500D01*
X202263500Y-98591500D01*
X202263500Y-100293500D01*
X202263500Y-100293500D01*
G37*
G36*
X155596474Y-96033684D02*
G01*
X155814474Y-96123983D01*
X155968623Y-96187833D01*
X156303548Y-96411623D01*
X156588377Y-96696452D01*
X156812167Y-97031377D01*
X156844562Y-97109586D01*
X156966316Y-97403526D01*
X157044900Y-97798594D01*
X157044900Y-98201406D01*
X156966316Y-98596474D01*
X156915451Y-98719272D01*
X156812167Y-98968623D01*
X156588377Y-99303548D01*
X156303548Y-99588377D01*
X155968623Y-99812167D01*
X155814474Y-99876017D01*
X155596474Y-99966316D01*
X155201406Y-100044900D01*
X154798594Y-100044900D01*
X154403526Y-99966316D01*
X154185526Y-99876017D01*
X154031377Y-99812167D01*
X153696452Y-99588377D01*
X153411623Y-99303548D01*
X153187833Y-98968623D01*
X153084549Y-98719272D01*
X153033684Y-98596474D01*
X152955100Y-98201406D01*
X152955100Y-97798594D01*
X153033684Y-97403526D01*
X153155438Y-97109586D01*
X153187833Y-97031377D01*
X153411623Y-96696452D01*
X153696452Y-96411623D01*
X154031377Y-96187833D01*
X154185526Y-96123983D01*
X154403526Y-96033684D01*
X154798594Y-95955100D01*
X155201406Y-95955100D01*
X155596474Y-96033684D01*
X155596474Y-96033684D01*
G37*
G36*
X193596474Y-96033684D02*
G01*
X193814474Y-96123983D01*
X193968623Y-96187833D01*
X194303548Y-96411623D01*
X194588377Y-96696452D01*
X194812167Y-97031377D01*
X194844562Y-97109586D01*
X194966316Y-97403526D01*
X195044900Y-97798594D01*
X195044900Y-98201406D01*
X194966316Y-98596474D01*
X194915451Y-98719272D01*
X194812167Y-98968623D01*
X194588377Y-99303548D01*
X194303548Y-99588377D01*
X193968623Y-99812167D01*
X193814474Y-99876017D01*
X193596474Y-99966316D01*
X193201406Y-100044900D01*
X192798594Y-100044900D01*
X192403526Y-99966316D01*
X192185526Y-99876017D01*
X192031377Y-99812167D01*
X191696452Y-99588377D01*
X191411623Y-99303548D01*
X191187833Y-98968623D01*
X191084549Y-98719272D01*
X191033684Y-98596474D01*
X190955100Y-98201406D01*
X190955100Y-97798594D01*
X191033684Y-97403526D01*
X191155438Y-97109586D01*
X191187833Y-97031377D01*
X191411623Y-96696452D01*
X191696452Y-96411623D01*
X192031377Y-96187833D01*
X192185526Y-96123983D01*
X192403526Y-96033684D01*
X192798594Y-95955100D01*
X193201406Y-95955100D01*
X193596474Y-96033684D01*
X193596474Y-96033684D01*
G37*
G36*
X174596474Y-96033684D02*
G01*
X174814474Y-96123983D01*
X174968623Y-96187833D01*
X175303548Y-96411623D01*
X175588377Y-96696452D01*
X175812167Y-97031377D01*
X175844562Y-97109586D01*
X175966316Y-97403526D01*
X176044900Y-97798594D01*
X176044900Y-98201406D01*
X175966316Y-98596474D01*
X175915451Y-98719272D01*
X175812167Y-98968623D01*
X175588377Y-99303548D01*
X175303548Y-99588377D01*
X174968623Y-99812167D01*
X174814474Y-99876017D01*
X174596474Y-99966316D01*
X174201406Y-100044900D01*
X173798594Y-100044900D01*
X173403526Y-99966316D01*
X173185526Y-99876017D01*
X173031377Y-99812167D01*
X172696452Y-99588377D01*
X172411623Y-99303548D01*
X172187833Y-98968623D01*
X172084549Y-98719272D01*
X172033684Y-98596474D01*
X171955100Y-98201406D01*
X171955100Y-97798594D01*
X172033684Y-97403526D01*
X172155438Y-97109586D01*
X172187833Y-97031377D01*
X172411623Y-96696452D01*
X172696452Y-96411623D01*
X173031377Y-96187833D01*
X173185526Y-96123983D01*
X173403526Y-96033684D01*
X173798594Y-95955100D01*
X174201406Y-95955100D01*
X174596474Y-96033684D01*
X174596474Y-96033684D01*
G37*
G36*
X198350104Y-97109585D02*
G01*
X198518626Y-97179389D01*
X198670291Y-97280728D01*
X198799272Y-97409709D01*
X198900611Y-97561374D01*
X198970415Y-97729896D01*
X199006000Y-97908797D01*
X199006000Y-98091203D01*
X198970415Y-98270104D01*
X198900611Y-98438626D01*
X198799272Y-98590291D01*
X198670291Y-98719272D01*
X198518626Y-98820611D01*
X198350104Y-98890415D01*
X198171203Y-98926000D01*
X197988797Y-98926000D01*
X197809896Y-98890415D01*
X197641374Y-98820611D01*
X197489709Y-98719272D01*
X197360728Y-98590291D01*
X197259389Y-98438626D01*
X197189585Y-98270104D01*
X197154000Y-98091203D01*
X197154000Y-97908797D01*
X197189585Y-97729896D01*
X197259389Y-97561374D01*
X197360728Y-97409709D01*
X197489709Y-97280728D01*
X197641374Y-97179389D01*
X197809896Y-97109585D01*
X197988797Y-97074000D01*
X198171203Y-97074000D01*
X198350104Y-97109585D01*
X198350104Y-97109585D01*
G37*
G36*
X169190104Y-97109585D02*
G01*
X169358626Y-97179389D01*
X169510291Y-97280728D01*
X169639272Y-97409709D01*
X169740611Y-97561374D01*
X169810415Y-97729896D01*
X169846000Y-97908797D01*
X169846000Y-98091203D01*
X169810415Y-98270104D01*
X169740611Y-98438626D01*
X169639272Y-98590291D01*
X169510291Y-98719272D01*
X169358626Y-98820611D01*
X169190104Y-98890415D01*
X169011203Y-98926000D01*
X168828797Y-98926000D01*
X168649896Y-98890415D01*
X168481374Y-98820611D01*
X168329709Y-98719272D01*
X168200728Y-98590291D01*
X168099389Y-98438626D01*
X168029585Y-98270104D01*
X167994000Y-98091203D01*
X167994000Y-97908797D01*
X168029585Y-97729896D01*
X168099389Y-97561374D01*
X168200728Y-97409709D01*
X168329709Y-97280728D01*
X168481374Y-97179389D01*
X168649896Y-97109585D01*
X168828797Y-97074000D01*
X169011203Y-97074000D01*
X169190104Y-97109585D01*
X169190104Y-97109585D01*
G37*
G36*
X179350104Y-97109585D02*
G01*
X179518626Y-97179389D01*
X179670291Y-97280728D01*
X179799272Y-97409709D01*
X179900611Y-97561374D01*
X179970415Y-97729896D01*
X180006000Y-97908797D01*
X180006000Y-98091203D01*
X179970415Y-98270104D01*
X179900611Y-98438626D01*
X179799272Y-98590291D01*
X179670291Y-98719272D01*
X179518626Y-98820611D01*
X179350104Y-98890415D01*
X179171203Y-98926000D01*
X178988797Y-98926000D01*
X178809896Y-98890415D01*
X178641374Y-98820611D01*
X178489709Y-98719272D01*
X178360728Y-98590291D01*
X178259389Y-98438626D01*
X178189585Y-98270104D01*
X178154000Y-98091203D01*
X178154000Y-97908797D01*
X178189585Y-97729896D01*
X178259389Y-97561374D01*
X178360728Y-97409709D01*
X178489709Y-97280728D01*
X178641374Y-97179389D01*
X178809896Y-97109585D01*
X178988797Y-97074000D01*
X179171203Y-97074000D01*
X179350104Y-97109585D01*
X179350104Y-97109585D01*
G37*
G36*
X160350104Y-97109585D02*
G01*
X160518626Y-97179389D01*
X160670291Y-97280728D01*
X160799272Y-97409709D01*
X160900611Y-97561374D01*
X160970415Y-97729896D01*
X161006000Y-97908797D01*
X161006000Y-98091203D01*
X160970415Y-98270104D01*
X160900611Y-98438626D01*
X160799272Y-98590291D01*
X160670291Y-98719272D01*
X160518626Y-98820611D01*
X160350104Y-98890415D01*
X160171203Y-98926000D01*
X159988797Y-98926000D01*
X159809896Y-98890415D01*
X159641374Y-98820611D01*
X159489709Y-98719272D01*
X159360728Y-98590291D01*
X159259389Y-98438626D01*
X159189585Y-98270104D01*
X159154000Y-98091203D01*
X159154000Y-97908797D01*
X159189585Y-97729896D01*
X159259389Y-97561374D01*
X159360728Y-97409709D01*
X159489709Y-97280728D01*
X159641374Y-97179389D01*
X159809896Y-97109585D01*
X159988797Y-97074000D01*
X160171203Y-97074000D01*
X160350104Y-97109585D01*
X160350104Y-97109585D01*
G37*
G36*
X188190104Y-97109585D02*
G01*
X188358626Y-97179389D01*
X188510291Y-97280728D01*
X188639272Y-97409709D01*
X188740611Y-97561374D01*
X188810415Y-97729896D01*
X188846000Y-97908797D01*
X188846000Y-98091203D01*
X188810415Y-98270104D01*
X188740611Y-98438626D01*
X188639272Y-98590291D01*
X188510291Y-98719272D01*
X188358626Y-98820611D01*
X188190104Y-98890415D01*
X188011203Y-98926000D01*
X187828797Y-98926000D01*
X187649896Y-98890415D01*
X187481374Y-98820611D01*
X187329709Y-98719272D01*
X187200728Y-98590291D01*
X187099389Y-98438626D01*
X187029585Y-98270104D01*
X186994000Y-98091203D01*
X186994000Y-97908797D01*
X187029585Y-97729896D01*
X187099389Y-97561374D01*
X187200728Y-97409709D01*
X187329709Y-97280728D01*
X187481374Y-97179389D01*
X187649896Y-97109585D01*
X187828797Y-97074000D01*
X188011203Y-97074000D01*
X188190104Y-97109585D01*
X188190104Y-97109585D01*
G37*
G36*
X150190104Y-97109585D02*
G01*
X150358626Y-97179389D01*
X150510291Y-97280728D01*
X150639272Y-97409709D01*
X150740611Y-97561374D01*
X150810415Y-97729896D01*
X150846000Y-97908797D01*
X150846000Y-98091203D01*
X150810415Y-98270104D01*
X150740611Y-98438626D01*
X150639272Y-98590291D01*
X150510291Y-98719272D01*
X150358626Y-98820611D01*
X150190104Y-98890415D01*
X150011203Y-98926000D01*
X149828797Y-98926000D01*
X149649896Y-98890415D01*
X149481374Y-98820611D01*
X149329709Y-98719272D01*
X149200728Y-98590291D01*
X149099389Y-98438626D01*
X149029585Y-98270104D01*
X148994000Y-98091203D01*
X148994000Y-97908797D01*
X149029585Y-97729896D01*
X149099389Y-97561374D01*
X149200728Y-97409709D01*
X149329709Y-97280728D01*
X149481374Y-97179389D01*
X149649896Y-97109585D01*
X149828797Y-97074000D01*
X150011203Y-97074000D01*
X150190104Y-97109585D01*
X150190104Y-97109585D01*
G37*
G36*
X183213500Y-97493500D02*
G01*
X181911500Y-97493500D01*
X181911500Y-95791500D01*
X183213500Y-95791500D01*
X183213500Y-97493500D01*
X183213500Y-97493500D01*
G37*
G36*
X202263500Y-97493500D02*
G01*
X200961500Y-97493500D01*
X200961500Y-95791500D01*
X202263500Y-95791500D01*
X202263500Y-97493500D01*
X202263500Y-97493500D01*
G37*
G36*
X164163500Y-97493500D02*
G01*
X162861500Y-97493500D01*
X162861500Y-95791500D01*
X164163500Y-95791500D01*
X164163500Y-97493500D01*
X164163500Y-97493500D01*
G37*
G36*
X201860728Y-93324203D02*
G01*
X202015600Y-93388353D01*
X202154981Y-93481485D01*
X202273515Y-93600019D01*
X202366647Y-93739400D01*
X202430797Y-93894272D01*
X202463500Y-94058684D01*
X202463500Y-94226316D01*
X202430797Y-94390728D01*
X202366647Y-94545600D01*
X202273515Y-94684981D01*
X202154981Y-94803515D01*
X202015600Y-94896647D01*
X201860728Y-94960797D01*
X201696316Y-94993500D01*
X201528684Y-94993500D01*
X201364272Y-94960797D01*
X201209400Y-94896647D01*
X201070019Y-94803515D01*
X200951485Y-94684981D01*
X200858353Y-94545600D01*
X200794203Y-94390728D01*
X200761500Y-94226316D01*
X200761500Y-94058684D01*
X200794203Y-93894272D01*
X200858353Y-93739400D01*
X200951485Y-93600019D01*
X201070019Y-93481485D01*
X201209400Y-93388353D01*
X201364272Y-93324203D01*
X201528684Y-93291500D01*
X201696316Y-93291500D01*
X201860728Y-93324203D01*
X201860728Y-93324203D01*
G37*
G36*
X182810728Y-93324203D02*
G01*
X182965600Y-93388353D01*
X183104981Y-93481485D01*
X183223515Y-93600019D01*
X183316647Y-93739400D01*
X183380797Y-93894272D01*
X183413500Y-94058684D01*
X183413500Y-94226316D01*
X183380797Y-94390728D01*
X183316647Y-94545600D01*
X183223515Y-94684981D01*
X183104981Y-94803515D01*
X182965600Y-94896647D01*
X182810728Y-94960797D01*
X182646316Y-94993500D01*
X182478684Y-94993500D01*
X182314272Y-94960797D01*
X182159400Y-94896647D01*
X182020019Y-94803515D01*
X181901485Y-94684981D01*
X181808353Y-94545600D01*
X181744203Y-94390728D01*
X181711500Y-94226316D01*
X181711500Y-94058684D01*
X181744203Y-93894272D01*
X181808353Y-93739400D01*
X181901485Y-93600019D01*
X182020019Y-93481485D01*
X182159400Y-93388353D01*
X182314272Y-93324203D01*
X182478684Y-93291500D01*
X182646316Y-93291500D01*
X182810728Y-93324203D01*
X182810728Y-93324203D01*
G37*
G36*
X163760728Y-93324203D02*
G01*
X163915600Y-93388353D01*
X164054981Y-93481485D01*
X164173515Y-93600019D01*
X164266647Y-93739400D01*
X164330797Y-93894272D01*
X164363500Y-94058684D01*
X164363500Y-94226316D01*
X164330797Y-94390728D01*
X164266647Y-94545600D01*
X164173515Y-94684981D01*
X164054981Y-94803515D01*
X163915600Y-94896647D01*
X163760728Y-94960797D01*
X163596316Y-94993500D01*
X163428684Y-94993500D01*
X163264272Y-94960797D01*
X163109400Y-94896647D01*
X162970019Y-94803515D01*
X162851485Y-94684981D01*
X162758353Y-94545600D01*
X162694203Y-94390728D01*
X162661500Y-94226316D01*
X162661500Y-94058684D01*
X162694203Y-93894272D01*
X162758353Y-93739400D01*
X162851485Y-93600019D01*
X162970019Y-93481485D01*
X163109400Y-93388353D01*
X163264272Y-93324203D01*
X163428684Y-93291500D01*
X163596316Y-93291500D01*
X163760728Y-93324203D01*
X163760728Y-93324203D01*
G37*
G36*
X183413500Y-83751000D02*
G01*
X181711500Y-83751000D01*
X181711500Y-82049000D01*
X183413500Y-82049000D01*
X183413500Y-83751000D01*
X183413500Y-83751000D01*
G37*
G36*
X202463500Y-83743500D02*
G01*
X200761500Y-83743500D01*
X200761500Y-82041500D01*
X202463500Y-82041500D01*
X202463500Y-83743500D01*
X202463500Y-83743500D01*
G37*
G36*
X164363500Y-83743500D02*
G01*
X162661500Y-83743500D01*
X162661500Y-82041500D01*
X164363500Y-82041500D01*
X164363500Y-83743500D01*
X164363500Y-83743500D01*
G37*
G36*
X121400483Y-81578335D02*
G01*
X121569240Y-81648236D01*
X121721118Y-81749718D01*
X121850282Y-81878882D01*
X121951764Y-82030760D01*
X122021665Y-82199517D01*
X122057300Y-82378668D01*
X122057300Y-82561332D01*
X122021665Y-82740483D01*
X121951764Y-82909240D01*
X121850282Y-83061118D01*
X121721118Y-83190282D01*
X121569240Y-83291764D01*
X121400483Y-83361665D01*
X121221332Y-83397300D01*
X121038668Y-83397300D01*
X120859517Y-83361665D01*
X120690760Y-83291764D01*
X120538882Y-83190282D01*
X120409718Y-83061118D01*
X120308236Y-82909240D01*
X120238335Y-82740483D01*
X120202700Y-82561332D01*
X120202700Y-82378668D01*
X120238335Y-82199517D01*
X120308236Y-82030760D01*
X120409718Y-81878882D01*
X120538882Y-81749718D01*
X120690760Y-81648236D01*
X120859517Y-81578335D01*
X121038668Y-81542700D01*
X121221332Y-81542700D01*
X121400483Y-81578335D01*
X121400483Y-81578335D01*
G37*
G36*
X136640483Y-81578335D02*
G01*
X136809240Y-81648236D01*
X136961118Y-81749718D01*
X137090282Y-81878882D01*
X137191764Y-82030760D01*
X137261665Y-82199517D01*
X137297300Y-82378668D01*
X137297300Y-82561332D01*
X137261665Y-82740483D01*
X137191764Y-82909240D01*
X137090282Y-83061118D01*
X136961118Y-83190282D01*
X136809240Y-83291764D01*
X136640483Y-83361665D01*
X136461332Y-83397300D01*
X136278668Y-83397300D01*
X136099517Y-83361665D01*
X135930760Y-83291764D01*
X135778882Y-83190282D01*
X135649718Y-83061118D01*
X135548236Y-82909240D01*
X135478335Y-82740483D01*
X135442700Y-82561332D01*
X135442700Y-82378668D01*
X135478335Y-82199517D01*
X135548236Y-82030760D01*
X135649718Y-81878882D01*
X135778882Y-81749718D01*
X135930760Y-81648236D01*
X136099517Y-81578335D01*
X136278668Y-81542700D01*
X136461332Y-81542700D01*
X136640483Y-81578335D01*
X136640483Y-81578335D01*
G37*
G36*
X183213500Y-81251000D02*
G01*
X181911500Y-81251000D01*
X181911500Y-79549000D01*
X183213500Y-79549000D01*
X183213500Y-81251000D01*
X183213500Y-81251000D01*
G37*
G36*
X164163500Y-81243500D02*
G01*
X162861500Y-81243500D01*
X162861500Y-79541500D01*
X164163500Y-79541500D01*
X164163500Y-81243500D01*
X164163500Y-81243500D01*
G37*
G36*
X202263500Y-81243500D02*
G01*
X200961500Y-81243500D01*
X200961500Y-79541500D01*
X202263500Y-79541500D01*
X202263500Y-81243500D01*
X202263500Y-81243500D01*
G37*
G36*
X193596474Y-77033684D02*
G01*
X193803693Y-77119517D01*
X193968623Y-77187833D01*
X194303548Y-77411623D01*
X194588377Y-77696452D01*
X194812167Y-78031377D01*
X194844562Y-78109586D01*
X194966316Y-78403526D01*
X195044900Y-78798594D01*
X195044900Y-79201406D01*
X194966316Y-79596474D01*
X194915451Y-79719272D01*
X194812167Y-79968623D01*
X194588377Y-80303548D01*
X194303548Y-80588377D01*
X193968623Y-80812167D01*
X193814474Y-80876017D01*
X193596474Y-80966316D01*
X193201406Y-81044900D01*
X192798594Y-81044900D01*
X192403526Y-80966316D01*
X192185526Y-80876017D01*
X192031377Y-80812167D01*
X191696452Y-80588377D01*
X191411623Y-80303548D01*
X191187833Y-79968623D01*
X191084549Y-79719272D01*
X191033684Y-79596474D01*
X190955100Y-79201406D01*
X190955100Y-78798594D01*
X191033684Y-78403526D01*
X191155438Y-78109586D01*
X191187833Y-78031377D01*
X191411623Y-77696452D01*
X191696452Y-77411623D01*
X192031377Y-77187833D01*
X192196307Y-77119517D01*
X192403526Y-77033684D01*
X192798594Y-76955100D01*
X193201406Y-76955100D01*
X193596474Y-77033684D01*
X193596474Y-77033684D01*
G37*
G36*
X174596474Y-77033684D02*
G01*
X174803693Y-77119517D01*
X174968623Y-77187833D01*
X175303548Y-77411623D01*
X175588377Y-77696452D01*
X175812167Y-78031377D01*
X175844562Y-78109586D01*
X175966316Y-78403526D01*
X176044900Y-78798594D01*
X176044900Y-79201406D01*
X175966316Y-79596474D01*
X175915451Y-79719272D01*
X175812167Y-79968623D01*
X175588377Y-80303548D01*
X175303548Y-80588377D01*
X174968623Y-80812167D01*
X174814474Y-80876017D01*
X174596474Y-80966316D01*
X174201406Y-81044900D01*
X173798594Y-81044900D01*
X173403526Y-80966316D01*
X173185526Y-80876017D01*
X173031377Y-80812167D01*
X172696452Y-80588377D01*
X172411623Y-80303548D01*
X172187833Y-79968623D01*
X172084549Y-79719272D01*
X172033684Y-79596474D01*
X171955100Y-79201406D01*
X171955100Y-78798594D01*
X172033684Y-78403526D01*
X172155438Y-78109586D01*
X172187833Y-78031377D01*
X172411623Y-77696452D01*
X172696452Y-77411623D01*
X173031377Y-77187833D01*
X173196307Y-77119517D01*
X173403526Y-77033684D01*
X173798594Y-76955100D01*
X174201406Y-76955100D01*
X174596474Y-77033684D01*
X174596474Y-77033684D01*
G37*
G36*
X155596474Y-77033684D02*
G01*
X155803693Y-77119517D01*
X155968623Y-77187833D01*
X156303548Y-77411623D01*
X156588377Y-77696452D01*
X156812167Y-78031377D01*
X156844562Y-78109586D01*
X156966316Y-78403526D01*
X157044900Y-78798594D01*
X157044900Y-79201406D01*
X156966316Y-79596474D01*
X156915451Y-79719272D01*
X156812167Y-79968623D01*
X156588377Y-80303548D01*
X156303548Y-80588377D01*
X155968623Y-80812167D01*
X155814474Y-80876017D01*
X155596474Y-80966316D01*
X155201406Y-81044900D01*
X154798594Y-81044900D01*
X154403526Y-80966316D01*
X154185526Y-80876017D01*
X154031377Y-80812167D01*
X153696452Y-80588377D01*
X153411623Y-80303548D01*
X153187833Y-79968623D01*
X153084549Y-79719272D01*
X153033684Y-79596474D01*
X152955100Y-79201406D01*
X152955100Y-78798594D01*
X153033684Y-78403526D01*
X153155438Y-78109586D01*
X153187833Y-78031377D01*
X153411623Y-77696452D01*
X153696452Y-77411623D01*
X154031377Y-77187833D01*
X154196307Y-77119517D01*
X154403526Y-77033684D01*
X154798594Y-76955100D01*
X155201406Y-76955100D01*
X155596474Y-77033684D01*
X155596474Y-77033684D01*
G37*
G36*
X121400483Y-79038335D02*
G01*
X121569240Y-79108236D01*
X121721118Y-79209718D01*
X121850282Y-79338882D01*
X121951764Y-79490760D01*
X122021665Y-79659517D01*
X122057300Y-79838668D01*
X122057300Y-80021332D01*
X122021665Y-80200483D01*
X121951764Y-80369240D01*
X121850282Y-80521118D01*
X121721118Y-80650282D01*
X121569240Y-80751764D01*
X121400483Y-80821665D01*
X121221332Y-80857300D01*
X121038668Y-80857300D01*
X120859517Y-80821665D01*
X120690760Y-80751764D01*
X120538882Y-80650282D01*
X120409718Y-80521118D01*
X120308236Y-80369240D01*
X120238335Y-80200483D01*
X120202700Y-80021332D01*
X120202700Y-79838668D01*
X120238335Y-79659517D01*
X120308236Y-79490760D01*
X120409718Y-79338882D01*
X120538882Y-79209718D01*
X120690760Y-79108236D01*
X120859517Y-79038335D01*
X121038668Y-79002700D01*
X121221332Y-79002700D01*
X121400483Y-79038335D01*
X121400483Y-79038335D01*
G37*
G36*
X136640483Y-79038335D02*
G01*
X136809240Y-79108236D01*
X136961118Y-79209718D01*
X137090282Y-79338882D01*
X137191764Y-79490760D01*
X137261665Y-79659517D01*
X137297300Y-79838668D01*
X137297300Y-80021332D01*
X137261665Y-80200483D01*
X137191764Y-80369240D01*
X137090282Y-80521118D01*
X136961118Y-80650282D01*
X136809240Y-80751764D01*
X136640483Y-80821665D01*
X136461332Y-80857300D01*
X136278668Y-80857300D01*
X136099517Y-80821665D01*
X135930760Y-80751764D01*
X135778882Y-80650282D01*
X135649718Y-80521118D01*
X135548236Y-80369240D01*
X135478335Y-80200483D01*
X135442700Y-80021332D01*
X135442700Y-79838668D01*
X135478335Y-79659517D01*
X135548236Y-79490760D01*
X135649718Y-79338882D01*
X135778882Y-79209718D01*
X135930760Y-79108236D01*
X136099517Y-79038335D01*
X136278668Y-79002700D01*
X136461332Y-79002700D01*
X136640483Y-79038335D01*
X136640483Y-79038335D01*
G37*
G36*
X179350104Y-78109585D02*
G01*
X179518626Y-78179389D01*
X179670291Y-78280728D01*
X179799272Y-78409709D01*
X179900611Y-78561374D01*
X179970415Y-78729896D01*
X180006000Y-78908797D01*
X180006000Y-79091203D01*
X179970415Y-79270104D01*
X179900611Y-79438626D01*
X179799272Y-79590291D01*
X179670291Y-79719272D01*
X179518626Y-79820611D01*
X179350104Y-79890415D01*
X179171203Y-79926000D01*
X178988797Y-79926000D01*
X178809896Y-79890415D01*
X178641374Y-79820611D01*
X178489709Y-79719272D01*
X178360728Y-79590291D01*
X178259389Y-79438626D01*
X178189585Y-79270104D01*
X178154000Y-79091203D01*
X178154000Y-78908797D01*
X178189585Y-78729896D01*
X178259389Y-78561374D01*
X178360728Y-78409709D01*
X178489709Y-78280728D01*
X178641374Y-78179389D01*
X178809896Y-78109585D01*
X178988797Y-78074000D01*
X179171203Y-78074000D01*
X179350104Y-78109585D01*
X179350104Y-78109585D01*
G37*
G36*
X188190104Y-78109585D02*
G01*
X188358626Y-78179389D01*
X188510291Y-78280728D01*
X188639272Y-78409709D01*
X188740611Y-78561374D01*
X188810415Y-78729896D01*
X188846000Y-78908797D01*
X188846000Y-79091203D01*
X188810415Y-79270104D01*
X188740611Y-79438626D01*
X188639272Y-79590291D01*
X188510291Y-79719272D01*
X188358626Y-79820611D01*
X188190104Y-79890415D01*
X188011203Y-79926000D01*
X187828797Y-79926000D01*
X187649896Y-79890415D01*
X187481374Y-79820611D01*
X187329709Y-79719272D01*
X187200728Y-79590291D01*
X187099389Y-79438626D01*
X187029585Y-79270104D01*
X186994000Y-79091203D01*
X186994000Y-78908797D01*
X187029585Y-78729896D01*
X187099389Y-78561374D01*
X187200728Y-78409709D01*
X187329709Y-78280728D01*
X187481374Y-78179389D01*
X187649896Y-78109585D01*
X187828797Y-78074000D01*
X188011203Y-78074000D01*
X188190104Y-78109585D01*
X188190104Y-78109585D01*
G37*
G36*
X198350104Y-78109585D02*
G01*
X198518626Y-78179389D01*
X198670291Y-78280728D01*
X198799272Y-78409709D01*
X198900611Y-78561374D01*
X198970415Y-78729896D01*
X199006000Y-78908797D01*
X199006000Y-79091203D01*
X198970415Y-79270104D01*
X198900611Y-79438626D01*
X198799272Y-79590291D01*
X198670291Y-79719272D01*
X198518626Y-79820611D01*
X198350104Y-79890415D01*
X198171203Y-79926000D01*
X197988797Y-79926000D01*
X197809896Y-79890415D01*
X197641374Y-79820611D01*
X197489709Y-79719272D01*
X197360728Y-79590291D01*
X197259389Y-79438626D01*
X197189585Y-79270104D01*
X197154000Y-79091203D01*
X197154000Y-78908797D01*
X197189585Y-78729896D01*
X197259389Y-78561374D01*
X197360728Y-78409709D01*
X197489709Y-78280728D01*
X197641374Y-78179389D01*
X197809896Y-78109585D01*
X197988797Y-78074000D01*
X198171203Y-78074000D01*
X198350104Y-78109585D01*
X198350104Y-78109585D01*
G37*
G36*
X150190104Y-78109585D02*
G01*
X150358626Y-78179389D01*
X150510291Y-78280728D01*
X150639272Y-78409709D01*
X150740611Y-78561374D01*
X150810415Y-78729896D01*
X150846000Y-78908797D01*
X150846000Y-79091203D01*
X150810415Y-79270104D01*
X150740611Y-79438626D01*
X150639272Y-79590291D01*
X150510291Y-79719272D01*
X150358626Y-79820611D01*
X150190104Y-79890415D01*
X150011203Y-79926000D01*
X149828797Y-79926000D01*
X149649896Y-79890415D01*
X149481374Y-79820611D01*
X149329709Y-79719272D01*
X149200728Y-79590291D01*
X149099389Y-79438626D01*
X149029585Y-79270104D01*
X148994000Y-79091203D01*
X148994000Y-78908797D01*
X149029585Y-78729896D01*
X149099389Y-78561374D01*
X149200728Y-78409709D01*
X149329709Y-78280728D01*
X149481374Y-78179389D01*
X149649896Y-78109585D01*
X149828797Y-78074000D01*
X150011203Y-78074000D01*
X150190104Y-78109585D01*
X150190104Y-78109585D01*
G37*
G36*
X169190104Y-78109585D02*
G01*
X169358626Y-78179389D01*
X169510291Y-78280728D01*
X169639272Y-78409709D01*
X169740611Y-78561374D01*
X169810415Y-78729896D01*
X169846000Y-78908797D01*
X169846000Y-79091203D01*
X169810415Y-79270104D01*
X169740611Y-79438626D01*
X169639272Y-79590291D01*
X169510291Y-79719272D01*
X169358626Y-79820611D01*
X169190104Y-79890415D01*
X169011203Y-79926000D01*
X168828797Y-79926000D01*
X168649896Y-79890415D01*
X168481374Y-79820611D01*
X168329709Y-79719272D01*
X168200728Y-79590291D01*
X168099389Y-79438626D01*
X168029585Y-79270104D01*
X167994000Y-79091203D01*
X167994000Y-78908797D01*
X168029585Y-78729896D01*
X168099389Y-78561374D01*
X168200728Y-78409709D01*
X168329709Y-78280728D01*
X168481374Y-78179389D01*
X168649896Y-78109585D01*
X168828797Y-78074000D01*
X169011203Y-78074000D01*
X169190104Y-78109585D01*
X169190104Y-78109585D01*
G37*
G36*
X160350104Y-78109585D02*
G01*
X160518626Y-78179389D01*
X160670291Y-78280728D01*
X160799272Y-78409709D01*
X160900611Y-78561374D01*
X160970415Y-78729896D01*
X161006000Y-78908797D01*
X161006000Y-79091203D01*
X160970415Y-79270104D01*
X160900611Y-79438626D01*
X160799272Y-79590291D01*
X160670291Y-79719272D01*
X160518626Y-79820611D01*
X160350104Y-79890415D01*
X160171203Y-79926000D01*
X159988797Y-79926000D01*
X159809896Y-79890415D01*
X159641374Y-79820611D01*
X159489709Y-79719272D01*
X159360728Y-79590291D01*
X159259389Y-79438626D01*
X159189585Y-79270104D01*
X159154000Y-79091203D01*
X159154000Y-78908797D01*
X159189585Y-78729896D01*
X159259389Y-78561374D01*
X159360728Y-78409709D01*
X159489709Y-78280728D01*
X159641374Y-78179389D01*
X159809896Y-78109585D01*
X159988797Y-78074000D01*
X160171203Y-78074000D01*
X160350104Y-78109585D01*
X160350104Y-78109585D01*
G37*
G36*
X183213500Y-78451000D02*
G01*
X181911500Y-78451000D01*
X181911500Y-76749000D01*
X183213500Y-76749000D01*
X183213500Y-78451000D01*
X183213500Y-78451000D01*
G37*
G36*
X202263500Y-78443500D02*
G01*
X200961500Y-78443500D01*
X200961500Y-76741500D01*
X202263500Y-76741500D01*
X202263500Y-78443500D01*
X202263500Y-78443500D01*
G37*
G36*
X164163500Y-78443500D02*
G01*
X162861500Y-78443500D01*
X162861500Y-76741500D01*
X164163500Y-76741500D01*
X164163500Y-78443500D01*
X164163500Y-78443500D01*
G37*
G36*
X121400483Y-76498335D02*
G01*
X121569240Y-76568236D01*
X121721118Y-76669718D01*
X121850282Y-76798882D01*
X121951764Y-76950760D01*
X122021665Y-77119517D01*
X122057300Y-77298668D01*
X122057300Y-77481332D01*
X122021665Y-77660483D01*
X121951764Y-77829240D01*
X121850282Y-77981118D01*
X121721118Y-78110282D01*
X121569240Y-78211764D01*
X121400483Y-78281665D01*
X121221332Y-78317300D01*
X121038668Y-78317300D01*
X120859517Y-78281665D01*
X120690760Y-78211764D01*
X120538882Y-78110282D01*
X120409718Y-77981118D01*
X120308236Y-77829240D01*
X120238335Y-77660483D01*
X120202700Y-77481332D01*
X120202700Y-77298668D01*
X120238335Y-77119517D01*
X120308236Y-76950760D01*
X120409718Y-76798882D01*
X120538882Y-76669718D01*
X120690760Y-76568236D01*
X120859517Y-76498335D01*
X121038668Y-76462700D01*
X121221332Y-76462700D01*
X121400483Y-76498335D01*
X121400483Y-76498335D01*
G37*
G36*
X136640483Y-76498335D02*
G01*
X136809240Y-76568236D01*
X136961118Y-76669718D01*
X137090282Y-76798882D01*
X137191764Y-76950760D01*
X137261665Y-77119517D01*
X137297300Y-77298668D01*
X137297300Y-77481332D01*
X137261665Y-77660483D01*
X137191764Y-77829240D01*
X137090282Y-77981118D01*
X136961118Y-78110282D01*
X136809240Y-78211764D01*
X136640483Y-78281665D01*
X136461332Y-78317300D01*
X136278668Y-78317300D01*
X136099517Y-78281665D01*
X135930760Y-78211764D01*
X135778882Y-78110282D01*
X135649718Y-77981118D01*
X135548236Y-77829240D01*
X135478335Y-77660483D01*
X135442700Y-77481332D01*
X135442700Y-77298668D01*
X135478335Y-77119517D01*
X135548236Y-76950760D01*
X135649718Y-76798882D01*
X135778882Y-76669718D01*
X135930760Y-76568236D01*
X136099517Y-76498335D01*
X136278668Y-76462700D01*
X136461332Y-76462700D01*
X136640483Y-76498335D01*
X136640483Y-76498335D01*
G37*
G36*
X182810728Y-74281703D02*
G01*
X182965600Y-74345853D01*
X183104981Y-74438985D01*
X183223515Y-74557519D01*
X183316647Y-74696900D01*
X183380797Y-74851772D01*
X183413500Y-75016184D01*
X183413500Y-75183816D01*
X183380797Y-75348228D01*
X183316647Y-75503100D01*
X183223515Y-75642481D01*
X183104981Y-75761015D01*
X182965600Y-75854147D01*
X182810728Y-75918297D01*
X182646316Y-75951000D01*
X182478684Y-75951000D01*
X182314272Y-75918297D01*
X182159400Y-75854147D01*
X182020019Y-75761015D01*
X181901485Y-75642481D01*
X181808353Y-75503100D01*
X181744203Y-75348228D01*
X181711500Y-75183816D01*
X181711500Y-75016184D01*
X181744203Y-74851772D01*
X181808353Y-74696900D01*
X181901485Y-74557519D01*
X182020019Y-74438985D01*
X182159400Y-74345853D01*
X182314272Y-74281703D01*
X182478684Y-74249000D01*
X182646316Y-74249000D01*
X182810728Y-74281703D01*
X182810728Y-74281703D01*
G37*
G36*
X163760728Y-74274203D02*
G01*
X163915600Y-74338353D01*
X164054981Y-74431485D01*
X164173515Y-74550019D01*
X164266647Y-74689400D01*
X164330797Y-74844272D01*
X164363500Y-75008684D01*
X164363500Y-75176316D01*
X164330797Y-75340728D01*
X164266647Y-75495600D01*
X164173515Y-75634981D01*
X164054981Y-75753515D01*
X163915600Y-75846647D01*
X163760728Y-75910797D01*
X163596316Y-75943500D01*
X163428684Y-75943500D01*
X163264272Y-75910797D01*
X163109400Y-75846647D01*
X162970019Y-75753515D01*
X162851485Y-75634981D01*
X162758353Y-75495600D01*
X162694203Y-75340728D01*
X162661500Y-75176316D01*
X162661500Y-75008684D01*
X162694203Y-74844272D01*
X162758353Y-74689400D01*
X162851485Y-74550019D01*
X162970019Y-74431485D01*
X163109400Y-74338353D01*
X163264272Y-74274203D01*
X163428684Y-74241500D01*
X163596316Y-74241500D01*
X163760728Y-74274203D01*
X163760728Y-74274203D01*
G37*
G36*
X201860728Y-74274203D02*
G01*
X202015600Y-74338353D01*
X202154981Y-74431485D01*
X202273515Y-74550019D01*
X202366647Y-74689400D01*
X202430797Y-74844272D01*
X202463500Y-75008684D01*
X202463500Y-75176316D01*
X202430797Y-75340728D01*
X202366647Y-75495600D01*
X202273515Y-75634981D01*
X202154981Y-75753515D01*
X202015600Y-75846647D01*
X201860728Y-75910797D01*
X201696316Y-75943500D01*
X201528684Y-75943500D01*
X201364272Y-75910797D01*
X201209400Y-75846647D01*
X201070019Y-75753515D01*
X200951485Y-75634981D01*
X200858353Y-75495600D01*
X200794203Y-75340728D01*
X200761500Y-75176316D01*
X200761500Y-75008684D01*
X200794203Y-74844272D01*
X200858353Y-74689400D01*
X200951485Y-74550019D01*
X201070019Y-74431485D01*
X201209400Y-74338353D01*
X201364272Y-74274203D01*
X201528684Y-74241500D01*
X201696316Y-74241500D01*
X201860728Y-74274203D01*
X201860728Y-74274203D01*
G37*
G36*
X121400483Y-73958335D02*
G01*
X121569240Y-74028236D01*
X121721118Y-74129718D01*
X121850282Y-74258882D01*
X121951764Y-74410760D01*
X122021665Y-74579517D01*
X122057300Y-74758668D01*
X122057300Y-74941332D01*
X122021665Y-75120483D01*
X121951764Y-75289240D01*
X121850282Y-75441118D01*
X121721118Y-75570282D01*
X121569240Y-75671764D01*
X121400483Y-75741665D01*
X121221332Y-75777300D01*
X121038668Y-75777300D01*
X120859517Y-75741665D01*
X120690760Y-75671764D01*
X120538882Y-75570282D01*
X120409718Y-75441118D01*
X120308236Y-75289240D01*
X120238335Y-75120483D01*
X120202700Y-74941332D01*
X120202700Y-74758668D01*
X120238335Y-74579517D01*
X120308236Y-74410760D01*
X120409718Y-74258882D01*
X120538882Y-74129718D01*
X120690760Y-74028236D01*
X120859517Y-73958335D01*
X121038668Y-73922700D01*
X121221332Y-73922700D01*
X121400483Y-73958335D01*
X121400483Y-73958335D01*
G37*
G36*
X136640483Y-73958335D02*
G01*
X136809240Y-74028236D01*
X136961118Y-74129718D01*
X137090282Y-74258882D01*
X137191764Y-74410760D01*
X137261665Y-74579517D01*
X137297300Y-74758668D01*
X137297300Y-74941332D01*
X137261665Y-75120483D01*
X137191764Y-75289240D01*
X137090282Y-75441118D01*
X136961118Y-75570282D01*
X136809240Y-75671764D01*
X136640483Y-75741665D01*
X136461332Y-75777300D01*
X136278668Y-75777300D01*
X136099517Y-75741665D01*
X135930760Y-75671764D01*
X135778882Y-75570282D01*
X135649718Y-75441118D01*
X135548236Y-75289240D01*
X135478335Y-75120483D01*
X135442700Y-74941332D01*
X135442700Y-74758668D01*
X135478335Y-74579517D01*
X135548236Y-74410760D01*
X135649718Y-74258882D01*
X135778882Y-74129718D01*
X135930760Y-74028236D01*
X136099517Y-73958335D01*
X136278668Y-73922700D01*
X136461332Y-73922700D01*
X136640483Y-73958335D01*
X136640483Y-73958335D01*
G37*
G36*
X121400483Y-71418335D02*
G01*
X121569240Y-71488236D01*
X121721118Y-71589718D01*
X121850282Y-71718882D01*
X121951764Y-71870760D01*
X122021665Y-72039517D01*
X122057300Y-72218668D01*
X122057300Y-72401332D01*
X122021665Y-72580483D01*
X121951764Y-72749240D01*
X121850282Y-72901118D01*
X121721118Y-73030282D01*
X121569240Y-73131764D01*
X121400483Y-73201665D01*
X121221332Y-73237300D01*
X121038668Y-73237300D01*
X120859517Y-73201665D01*
X120690760Y-73131764D01*
X120538882Y-73030282D01*
X120409718Y-72901118D01*
X120308236Y-72749240D01*
X120238335Y-72580483D01*
X120202700Y-72401332D01*
X120202700Y-72218668D01*
X120238335Y-72039517D01*
X120308236Y-71870760D01*
X120409718Y-71718882D01*
X120538882Y-71589718D01*
X120690760Y-71488236D01*
X120859517Y-71418335D01*
X121038668Y-71382700D01*
X121221332Y-71382700D01*
X121400483Y-71418335D01*
X121400483Y-71418335D01*
G37*
G36*
X136640483Y-71418335D02*
G01*
X136809240Y-71488236D01*
X136961118Y-71589718D01*
X137090282Y-71718882D01*
X137191764Y-71870760D01*
X137261665Y-72039517D01*
X137297300Y-72218668D01*
X137297300Y-72401332D01*
X137261665Y-72580483D01*
X137191764Y-72749240D01*
X137090282Y-72901118D01*
X136961118Y-73030282D01*
X136809240Y-73131764D01*
X136640483Y-73201665D01*
X136461332Y-73237300D01*
X136278668Y-73237300D01*
X136099517Y-73201665D01*
X135930760Y-73131764D01*
X135778882Y-73030282D01*
X135649718Y-72901118D01*
X135548236Y-72749240D01*
X135478335Y-72580483D01*
X135442700Y-72401332D01*
X135442700Y-72218668D01*
X135478335Y-72039517D01*
X135548236Y-71870760D01*
X135649718Y-71718882D01*
X135778882Y-71589718D01*
X135930760Y-71488236D01*
X136099517Y-71418335D01*
X136278668Y-71382700D01*
X136461332Y-71382700D01*
X136640483Y-71418335D01*
X136640483Y-71418335D01*
G37*
G36*
X136640483Y-68878335D02*
G01*
X136809240Y-68948236D01*
X136961118Y-69049718D01*
X137090282Y-69178882D01*
X137191764Y-69330760D01*
X137261665Y-69499517D01*
X137297300Y-69678668D01*
X137297300Y-69861332D01*
X137261665Y-70040483D01*
X137191764Y-70209240D01*
X137090282Y-70361118D01*
X136961118Y-70490282D01*
X136809240Y-70591764D01*
X136640483Y-70661665D01*
X136461332Y-70697300D01*
X136278668Y-70697300D01*
X136099517Y-70661665D01*
X135930760Y-70591764D01*
X135778882Y-70490282D01*
X135649718Y-70361118D01*
X135548236Y-70209240D01*
X135478335Y-70040483D01*
X135442700Y-69861332D01*
X135442700Y-69678668D01*
X135478335Y-69499517D01*
X135548236Y-69330760D01*
X135649718Y-69178882D01*
X135778882Y-69049718D01*
X135930760Y-68948236D01*
X136099517Y-68878335D01*
X136278668Y-68842700D01*
X136461332Y-68842700D01*
X136640483Y-68878335D01*
X136640483Y-68878335D01*
G37*
G36*
X121400483Y-68878335D02*
G01*
X121569240Y-68948236D01*
X121721118Y-69049718D01*
X121850282Y-69178882D01*
X121951764Y-69330760D01*
X122021665Y-69499517D01*
X122057300Y-69678668D01*
X122057300Y-69861332D01*
X122021665Y-70040483D01*
X121951764Y-70209240D01*
X121850282Y-70361118D01*
X121721118Y-70490282D01*
X121569240Y-70591764D01*
X121400483Y-70661665D01*
X121221332Y-70697300D01*
X121038668Y-70697300D01*
X120859517Y-70661665D01*
X120690760Y-70591764D01*
X120538882Y-70490282D01*
X120409718Y-70361118D01*
X120308236Y-70209240D01*
X120238335Y-70040483D01*
X120202700Y-69861332D01*
X120202700Y-69678668D01*
X120238335Y-69499517D01*
X120308236Y-69330760D01*
X120409718Y-69178882D01*
X120538882Y-69049718D01*
X120690760Y-68948236D01*
X120859517Y-68878335D01*
X121038668Y-68842700D01*
X121221332Y-68842700D01*
X121400483Y-68878335D01*
X121400483Y-68878335D01*
G37*
G36*
X121400483Y-66338335D02*
G01*
X121569240Y-66408236D01*
X121721118Y-66509718D01*
X121850282Y-66638882D01*
X121951764Y-66790760D01*
X122021665Y-66959517D01*
X122057300Y-67138668D01*
X122057300Y-67321332D01*
X122021665Y-67500483D01*
X121951764Y-67669240D01*
X121850282Y-67821118D01*
X121721118Y-67950282D01*
X121569240Y-68051764D01*
X121400483Y-68121665D01*
X121221332Y-68157300D01*
X121038668Y-68157300D01*
X120859517Y-68121665D01*
X120690760Y-68051764D01*
X120538882Y-67950282D01*
X120409718Y-67821118D01*
X120308236Y-67669240D01*
X120238335Y-67500483D01*
X120202700Y-67321332D01*
X120202700Y-67138668D01*
X120238335Y-66959517D01*
X120308236Y-66790760D01*
X120409718Y-66638882D01*
X120538882Y-66509718D01*
X120690760Y-66408236D01*
X120859517Y-66338335D01*
X121038668Y-66302700D01*
X121221332Y-66302700D01*
X121400483Y-66338335D01*
X121400483Y-66338335D01*
G37*
G36*
X136640483Y-66338335D02*
G01*
X136809240Y-66408236D01*
X136961118Y-66509718D01*
X137090282Y-66638882D01*
X137191764Y-66790760D01*
X137261665Y-66959517D01*
X137297300Y-67138668D01*
X137297300Y-67321332D01*
X137261665Y-67500483D01*
X137191764Y-67669240D01*
X137090282Y-67821118D01*
X136961118Y-67950282D01*
X136809240Y-68051764D01*
X136640483Y-68121665D01*
X136461332Y-68157300D01*
X136278668Y-68157300D01*
X136099517Y-68121665D01*
X135930760Y-68051764D01*
X135778882Y-67950282D01*
X135649718Y-67821118D01*
X135548236Y-67669240D01*
X135478335Y-67500483D01*
X135442700Y-67321332D01*
X135442700Y-67138668D01*
X135478335Y-66959517D01*
X135548236Y-66790760D01*
X135649718Y-66638882D01*
X135778882Y-66509718D01*
X135930760Y-66408236D01*
X136099517Y-66338335D01*
X136278668Y-66302700D01*
X136461332Y-66302700D01*
X136640483Y-66338335D01*
X136640483Y-66338335D01*
G37*
G36*
X121400483Y-63798335D02*
G01*
X121569240Y-63868236D01*
X121721118Y-63969718D01*
X121850282Y-64098882D01*
X121951764Y-64250760D01*
X122021665Y-64419517D01*
X122057300Y-64598668D01*
X122057300Y-64781332D01*
X122021665Y-64960483D01*
X121951764Y-65129240D01*
X121850282Y-65281118D01*
X121721118Y-65410282D01*
X121569240Y-65511764D01*
X121400483Y-65581665D01*
X121221332Y-65617300D01*
X121038668Y-65617300D01*
X120859517Y-65581665D01*
X120690760Y-65511764D01*
X120538882Y-65410282D01*
X120409718Y-65281118D01*
X120308236Y-65129240D01*
X120238335Y-64960483D01*
X120202700Y-64781332D01*
X120202700Y-64598668D01*
X120238335Y-64419517D01*
X120308236Y-64250760D01*
X120409718Y-64098882D01*
X120538882Y-63969718D01*
X120690760Y-63868236D01*
X120859517Y-63798335D01*
X121038668Y-63762700D01*
X121221332Y-63762700D01*
X121400483Y-63798335D01*
X121400483Y-63798335D01*
G37*
G36*
X136640483Y-63798335D02*
G01*
X136809240Y-63868236D01*
X136961118Y-63969718D01*
X137090282Y-64098882D01*
X137191764Y-64250760D01*
X137261665Y-64419517D01*
X137297300Y-64598668D01*
X137297300Y-64781332D01*
X137261665Y-64960483D01*
X137191764Y-65129240D01*
X137090282Y-65281118D01*
X136961118Y-65410282D01*
X136809240Y-65511764D01*
X136640483Y-65581665D01*
X136461332Y-65617300D01*
X136278668Y-65617300D01*
X136099517Y-65581665D01*
X135930760Y-65511764D01*
X135778882Y-65410282D01*
X135649718Y-65281118D01*
X135548236Y-65129240D01*
X135478335Y-64960483D01*
X135442700Y-64781332D01*
X135442700Y-64598668D01*
X135478335Y-64419517D01*
X135548236Y-64250760D01*
X135649718Y-64098882D01*
X135778882Y-63969718D01*
X135930760Y-63868236D01*
X136099517Y-63798335D01*
X136278668Y-63762700D01*
X136461332Y-63762700D01*
X136640483Y-63798335D01*
X136640483Y-63798335D01*
G37*
G36*
X202463500Y-64751000D02*
G01*
X200761500Y-64751000D01*
X200761500Y-63049000D01*
X202463500Y-63049000D01*
X202463500Y-64751000D01*
X202463500Y-64751000D01*
G37*
G36*
X164363500Y-64688500D02*
G01*
X162661500Y-64688500D01*
X162661500Y-62986500D01*
X164363500Y-62986500D01*
X164363500Y-64688500D01*
X164363500Y-64688500D01*
G37*
G36*
X183451000Y-64651000D02*
G01*
X181749000Y-64651000D01*
X181749000Y-62949000D01*
X183451000Y-62949000D01*
X183451000Y-64651000D01*
X183451000Y-64651000D01*
G37*
G36*
X121400483Y-61258335D02*
G01*
X121569240Y-61328236D01*
X121721118Y-61429718D01*
X121850282Y-61558882D01*
X121951764Y-61710760D01*
X122021665Y-61879517D01*
X122057300Y-62058668D01*
X122057300Y-62241332D01*
X122021665Y-62420483D01*
X121951764Y-62589240D01*
X121850282Y-62741118D01*
X121721118Y-62870282D01*
X121569240Y-62971764D01*
X121400483Y-63041665D01*
X121221332Y-63077300D01*
X121038668Y-63077300D01*
X120859517Y-63041665D01*
X120690760Y-62971764D01*
X120538882Y-62870282D01*
X120409718Y-62741118D01*
X120308236Y-62589240D01*
X120238335Y-62420483D01*
X120202700Y-62241332D01*
X120202700Y-62058668D01*
X120238335Y-61879517D01*
X120308236Y-61710760D01*
X120409718Y-61558882D01*
X120538882Y-61429718D01*
X120690760Y-61328236D01*
X120859517Y-61258335D01*
X121038668Y-61222700D01*
X121221332Y-61222700D01*
X121400483Y-61258335D01*
X121400483Y-61258335D01*
G37*
G36*
X136640483Y-61258335D02*
G01*
X136809240Y-61328236D01*
X136961118Y-61429718D01*
X137090282Y-61558882D01*
X137191764Y-61710760D01*
X137261665Y-61879517D01*
X137297300Y-62058668D01*
X137297300Y-62241332D01*
X137261665Y-62420483D01*
X137191764Y-62589240D01*
X137090282Y-62741118D01*
X136961118Y-62870282D01*
X136809240Y-62971764D01*
X136640483Y-63041665D01*
X136461332Y-63077300D01*
X136278668Y-63077300D01*
X136099517Y-63041665D01*
X135930760Y-62971764D01*
X135778882Y-62870282D01*
X135649718Y-62741118D01*
X135548236Y-62589240D01*
X135478335Y-62420483D01*
X135442700Y-62241332D01*
X135442700Y-62058668D01*
X135478335Y-61879517D01*
X135548236Y-61710760D01*
X135649718Y-61558882D01*
X135778882Y-61429718D01*
X135930760Y-61328236D01*
X136099517Y-61258335D01*
X136278668Y-61222700D01*
X136461332Y-61222700D01*
X136640483Y-61258335D01*
X136640483Y-61258335D01*
G37*
G36*
X202263500Y-62251000D02*
G01*
X200961500Y-62251000D01*
X200961500Y-60549000D01*
X202263500Y-60549000D01*
X202263500Y-62251000D01*
X202263500Y-62251000D01*
G37*
G36*
X164163500Y-62188500D02*
G01*
X162861500Y-62188500D01*
X162861500Y-60486500D01*
X164163500Y-60486500D01*
X164163500Y-62188500D01*
X164163500Y-62188500D01*
G37*
G36*
X183251000Y-62151000D02*
G01*
X181949000Y-62151000D01*
X181949000Y-60449000D01*
X183251000Y-60449000D01*
X183251000Y-62151000D01*
X183251000Y-62151000D01*
G37*
G36*
X193596474Y-58033684D02*
G01*
X193814474Y-58123983D01*
X193968623Y-58187833D01*
X194303548Y-58411623D01*
X194588377Y-58696452D01*
X194812167Y-59031377D01*
X194844562Y-59109586D01*
X194966316Y-59403526D01*
X195044900Y-59798594D01*
X195044900Y-60201406D01*
X194966316Y-60596474D01*
X194915451Y-60719272D01*
X194812167Y-60968623D01*
X194588377Y-61303548D01*
X194303548Y-61588377D01*
X193968623Y-61812167D01*
X193814474Y-61876017D01*
X193596474Y-61966316D01*
X193201406Y-62044900D01*
X192798594Y-62044900D01*
X192403526Y-61966316D01*
X192185526Y-61876017D01*
X192031377Y-61812167D01*
X191696452Y-61588377D01*
X191411623Y-61303548D01*
X191187833Y-60968623D01*
X191084549Y-60719272D01*
X191033684Y-60596474D01*
X190955100Y-60201406D01*
X190955100Y-59798594D01*
X191033684Y-59403526D01*
X191155438Y-59109586D01*
X191187833Y-59031377D01*
X191411623Y-58696452D01*
X191696452Y-58411623D01*
X192031377Y-58187833D01*
X192185526Y-58123983D01*
X192403526Y-58033684D01*
X192798594Y-57955100D01*
X193201406Y-57955100D01*
X193596474Y-58033684D01*
X193596474Y-58033684D01*
G37*
G36*
X174596474Y-58033684D02*
G01*
X174814474Y-58123983D01*
X174968623Y-58187833D01*
X175303548Y-58411623D01*
X175588377Y-58696452D01*
X175812167Y-59031377D01*
X175844562Y-59109586D01*
X175966316Y-59403526D01*
X176044900Y-59798594D01*
X176044900Y-60201406D01*
X175966316Y-60596474D01*
X175915451Y-60719272D01*
X175812167Y-60968623D01*
X175588377Y-61303548D01*
X175303548Y-61588377D01*
X174968623Y-61812167D01*
X174814474Y-61876017D01*
X174596474Y-61966316D01*
X174201406Y-62044900D01*
X173798594Y-62044900D01*
X173403526Y-61966316D01*
X173185526Y-61876017D01*
X173031377Y-61812167D01*
X172696452Y-61588377D01*
X172411623Y-61303548D01*
X172187833Y-60968623D01*
X172084549Y-60719272D01*
X172033684Y-60596474D01*
X171955100Y-60201406D01*
X171955100Y-59798594D01*
X172033684Y-59403526D01*
X172155438Y-59109586D01*
X172187833Y-59031377D01*
X172411623Y-58696452D01*
X172696452Y-58411623D01*
X173031377Y-58187833D01*
X173185526Y-58123983D01*
X173403526Y-58033684D01*
X173798594Y-57955100D01*
X174201406Y-57955100D01*
X174596474Y-58033684D01*
X174596474Y-58033684D01*
G37*
G36*
X155596474Y-58033684D02*
G01*
X155814474Y-58123983D01*
X155968623Y-58187833D01*
X156303548Y-58411623D01*
X156588377Y-58696452D01*
X156812167Y-59031377D01*
X156844562Y-59109586D01*
X156966316Y-59403526D01*
X157044900Y-59798594D01*
X157044900Y-60201406D01*
X156966316Y-60596474D01*
X156915451Y-60719272D01*
X156812167Y-60968623D01*
X156588377Y-61303548D01*
X156303548Y-61588377D01*
X155968623Y-61812167D01*
X155814474Y-61876017D01*
X155596474Y-61966316D01*
X155201406Y-62044900D01*
X154798594Y-62044900D01*
X154403526Y-61966316D01*
X154185526Y-61876017D01*
X154031377Y-61812167D01*
X153696452Y-61588377D01*
X153411623Y-61303548D01*
X153187833Y-60968623D01*
X153084549Y-60719272D01*
X153033684Y-60596474D01*
X152955100Y-60201406D01*
X152955100Y-59798594D01*
X153033684Y-59403526D01*
X153155438Y-59109586D01*
X153187833Y-59031377D01*
X153411623Y-58696452D01*
X153696452Y-58411623D01*
X154031377Y-58187833D01*
X154185526Y-58123983D01*
X154403526Y-58033684D01*
X154798594Y-57955100D01*
X155201406Y-57955100D01*
X155596474Y-58033684D01*
X155596474Y-58033684D01*
G37*
G36*
X169190104Y-59109585D02*
G01*
X169358626Y-59179389D01*
X169510291Y-59280728D01*
X169639272Y-59409709D01*
X169740611Y-59561374D01*
X169810415Y-59729896D01*
X169846000Y-59908797D01*
X169846000Y-60091203D01*
X169810415Y-60270104D01*
X169740611Y-60438626D01*
X169639272Y-60590291D01*
X169510291Y-60719272D01*
X169358626Y-60820611D01*
X169190104Y-60890415D01*
X169011203Y-60926000D01*
X168828797Y-60926000D01*
X168649896Y-60890415D01*
X168481374Y-60820611D01*
X168329709Y-60719272D01*
X168200728Y-60590291D01*
X168099389Y-60438626D01*
X168029585Y-60270104D01*
X167994000Y-60091203D01*
X167994000Y-59908797D01*
X168029585Y-59729896D01*
X168099389Y-59561374D01*
X168200728Y-59409709D01*
X168329709Y-59280728D01*
X168481374Y-59179389D01*
X168649896Y-59109585D01*
X168828797Y-59074000D01*
X169011203Y-59074000D01*
X169190104Y-59109585D01*
X169190104Y-59109585D01*
G37*
G36*
X150190104Y-59109585D02*
G01*
X150358626Y-59179389D01*
X150510291Y-59280728D01*
X150639272Y-59409709D01*
X150740611Y-59561374D01*
X150810415Y-59729896D01*
X150846000Y-59908797D01*
X150846000Y-60091203D01*
X150810415Y-60270104D01*
X150740611Y-60438626D01*
X150639272Y-60590291D01*
X150510291Y-60719272D01*
X150358626Y-60820611D01*
X150190104Y-60890415D01*
X150011203Y-60926000D01*
X149828797Y-60926000D01*
X149649896Y-60890415D01*
X149481374Y-60820611D01*
X149329709Y-60719272D01*
X149200728Y-60590291D01*
X149099389Y-60438626D01*
X149029585Y-60270104D01*
X148994000Y-60091203D01*
X148994000Y-59908797D01*
X149029585Y-59729896D01*
X149099389Y-59561374D01*
X149200728Y-59409709D01*
X149329709Y-59280728D01*
X149481374Y-59179389D01*
X149649896Y-59109585D01*
X149828797Y-59074000D01*
X150011203Y-59074000D01*
X150190104Y-59109585D01*
X150190104Y-59109585D01*
G37*
G36*
X160350104Y-59109585D02*
G01*
X160518626Y-59179389D01*
X160670291Y-59280728D01*
X160799272Y-59409709D01*
X160900611Y-59561374D01*
X160970415Y-59729896D01*
X161006000Y-59908797D01*
X161006000Y-60091203D01*
X160970415Y-60270104D01*
X160900611Y-60438626D01*
X160799272Y-60590291D01*
X160670291Y-60719272D01*
X160518626Y-60820611D01*
X160350104Y-60890415D01*
X160171203Y-60926000D01*
X159988797Y-60926000D01*
X159809896Y-60890415D01*
X159641374Y-60820611D01*
X159489709Y-60719272D01*
X159360728Y-60590291D01*
X159259389Y-60438626D01*
X159189585Y-60270104D01*
X159154000Y-60091203D01*
X159154000Y-59908797D01*
X159189585Y-59729896D01*
X159259389Y-59561374D01*
X159360728Y-59409709D01*
X159489709Y-59280728D01*
X159641374Y-59179389D01*
X159809896Y-59109585D01*
X159988797Y-59074000D01*
X160171203Y-59074000D01*
X160350104Y-59109585D01*
X160350104Y-59109585D01*
G37*
G36*
X179350104Y-59109585D02*
G01*
X179518626Y-59179389D01*
X179670291Y-59280728D01*
X179799272Y-59409709D01*
X179900611Y-59561374D01*
X179970415Y-59729896D01*
X180006000Y-59908797D01*
X180006000Y-60091203D01*
X179970415Y-60270104D01*
X179900611Y-60438626D01*
X179799272Y-60590291D01*
X179670291Y-60719272D01*
X179518626Y-60820611D01*
X179350104Y-60890415D01*
X179171203Y-60926000D01*
X178988797Y-60926000D01*
X178809896Y-60890415D01*
X178641374Y-60820611D01*
X178489709Y-60719272D01*
X178360728Y-60590291D01*
X178259389Y-60438626D01*
X178189585Y-60270104D01*
X178154000Y-60091203D01*
X178154000Y-59908797D01*
X178189585Y-59729896D01*
X178259389Y-59561374D01*
X178360728Y-59409709D01*
X178489709Y-59280728D01*
X178641374Y-59179389D01*
X178809896Y-59109585D01*
X178988797Y-59074000D01*
X179171203Y-59074000D01*
X179350104Y-59109585D01*
X179350104Y-59109585D01*
G37*
G36*
X188190104Y-59109585D02*
G01*
X188358626Y-59179389D01*
X188510291Y-59280728D01*
X188639272Y-59409709D01*
X188740611Y-59561374D01*
X188810415Y-59729896D01*
X188846000Y-59908797D01*
X188846000Y-60091203D01*
X188810415Y-60270104D01*
X188740611Y-60438626D01*
X188639272Y-60590291D01*
X188510291Y-60719272D01*
X188358626Y-60820611D01*
X188190104Y-60890415D01*
X188011203Y-60926000D01*
X187828797Y-60926000D01*
X187649896Y-60890415D01*
X187481374Y-60820611D01*
X187329709Y-60719272D01*
X187200728Y-60590291D01*
X187099389Y-60438626D01*
X187029585Y-60270104D01*
X186994000Y-60091203D01*
X186994000Y-59908797D01*
X187029585Y-59729896D01*
X187099389Y-59561374D01*
X187200728Y-59409709D01*
X187329709Y-59280728D01*
X187481374Y-59179389D01*
X187649896Y-59109585D01*
X187828797Y-59074000D01*
X188011203Y-59074000D01*
X188190104Y-59109585D01*
X188190104Y-59109585D01*
G37*
G36*
X198350104Y-59109585D02*
G01*
X198518626Y-59179389D01*
X198670291Y-59280728D01*
X198799272Y-59409709D01*
X198900611Y-59561374D01*
X198970415Y-59729896D01*
X199006000Y-59908797D01*
X199006000Y-60091203D01*
X198970415Y-60270104D01*
X198900611Y-60438626D01*
X198799272Y-60590291D01*
X198670291Y-60719272D01*
X198518626Y-60820611D01*
X198350104Y-60890415D01*
X198171203Y-60926000D01*
X197988797Y-60926000D01*
X197809896Y-60890415D01*
X197641374Y-60820611D01*
X197489709Y-60719272D01*
X197360728Y-60590291D01*
X197259389Y-60438626D01*
X197189585Y-60270104D01*
X197154000Y-60091203D01*
X197154000Y-59908797D01*
X197189585Y-59729896D01*
X197259389Y-59561374D01*
X197360728Y-59409709D01*
X197489709Y-59280728D01*
X197641374Y-59179389D01*
X197809896Y-59109585D01*
X197988797Y-59074000D01*
X198171203Y-59074000D01*
X198350104Y-59109585D01*
X198350104Y-59109585D01*
G37*
G36*
X136640483Y-58718335D02*
G01*
X136809240Y-58788236D01*
X136961118Y-58889718D01*
X137090282Y-59018882D01*
X137191764Y-59170760D01*
X137261665Y-59339517D01*
X137297300Y-59518668D01*
X137297300Y-59701332D01*
X137261665Y-59880483D01*
X137191764Y-60049240D01*
X137090282Y-60201118D01*
X136961118Y-60330282D01*
X136809240Y-60431764D01*
X136640483Y-60501665D01*
X136461332Y-60537300D01*
X136278668Y-60537300D01*
X136099517Y-60501665D01*
X135930760Y-60431764D01*
X135778882Y-60330282D01*
X135649718Y-60201118D01*
X135548236Y-60049240D01*
X135478335Y-59880483D01*
X135442700Y-59701332D01*
X135442700Y-59518668D01*
X135478335Y-59339517D01*
X135548236Y-59170760D01*
X135649718Y-59018882D01*
X135778882Y-58889718D01*
X135930760Y-58788236D01*
X136099517Y-58718335D01*
X136278668Y-58682700D01*
X136461332Y-58682700D01*
X136640483Y-58718335D01*
X136640483Y-58718335D01*
G37*
G36*
X121400483Y-58718335D02*
G01*
X121569240Y-58788236D01*
X121721118Y-58889718D01*
X121850282Y-59018882D01*
X121951764Y-59170760D01*
X122021665Y-59339517D01*
X122057300Y-59518668D01*
X122057300Y-59701332D01*
X122021665Y-59880483D01*
X121951764Y-60049240D01*
X121850282Y-60201118D01*
X121721118Y-60330282D01*
X121569240Y-60431764D01*
X121400483Y-60501665D01*
X121221332Y-60537300D01*
X121038668Y-60537300D01*
X120859517Y-60501665D01*
X120690760Y-60431764D01*
X120538882Y-60330282D01*
X120409718Y-60201118D01*
X120308236Y-60049240D01*
X120238335Y-59880483D01*
X120202700Y-59701332D01*
X120202700Y-59518668D01*
X120238335Y-59339517D01*
X120308236Y-59170760D01*
X120409718Y-59018882D01*
X120538882Y-58889718D01*
X120690760Y-58788236D01*
X120859517Y-58718335D01*
X121038668Y-58682700D01*
X121221332Y-58682700D01*
X121400483Y-58718335D01*
X121400483Y-58718335D01*
G37*
G36*
X202263500Y-59451000D02*
G01*
X200961500Y-59451000D01*
X200961500Y-57749000D01*
X202263500Y-57749000D01*
X202263500Y-59451000D01*
X202263500Y-59451000D01*
G37*
G36*
X164163500Y-59388500D02*
G01*
X162861500Y-59388500D01*
X162861500Y-57686500D01*
X164163500Y-57686500D01*
X164163500Y-59388500D01*
X164163500Y-59388500D01*
G37*
G36*
X183251000Y-59351000D02*
G01*
X181949000Y-59351000D01*
X181949000Y-57649000D01*
X183251000Y-57649000D01*
X183251000Y-59351000D01*
X183251000Y-59351000D01*
G37*
G36*
X136640483Y-56178335D02*
G01*
X136809240Y-56248236D01*
X136961118Y-56349718D01*
X137090282Y-56478882D01*
X137191764Y-56630760D01*
X137261665Y-56799517D01*
X137297300Y-56978668D01*
X137297300Y-57161332D01*
X137261665Y-57340483D01*
X137191764Y-57509240D01*
X137090282Y-57661118D01*
X136961118Y-57790282D01*
X136809240Y-57891764D01*
X136640483Y-57961665D01*
X136461332Y-57997300D01*
X136278668Y-57997300D01*
X136099517Y-57961665D01*
X135930760Y-57891764D01*
X135778882Y-57790282D01*
X135649718Y-57661118D01*
X135548236Y-57509240D01*
X135478335Y-57340483D01*
X135442700Y-57161332D01*
X135442700Y-56978668D01*
X135478335Y-56799517D01*
X135548236Y-56630760D01*
X135649718Y-56478882D01*
X135778882Y-56349718D01*
X135930760Y-56248236D01*
X136099517Y-56178335D01*
X136278668Y-56142700D01*
X136461332Y-56142700D01*
X136640483Y-56178335D01*
X136640483Y-56178335D01*
G37*
G36*
X121400483Y-56178335D02*
G01*
X121569240Y-56248236D01*
X121721118Y-56349718D01*
X121850282Y-56478882D01*
X121951764Y-56630760D01*
X122021665Y-56799517D01*
X122057300Y-56978668D01*
X122057300Y-57161332D01*
X122021665Y-57340483D01*
X121951764Y-57509240D01*
X121850282Y-57661118D01*
X121721118Y-57790282D01*
X121569240Y-57891764D01*
X121400483Y-57961665D01*
X121221332Y-57997300D01*
X121038668Y-57997300D01*
X120859517Y-57961665D01*
X120690760Y-57891764D01*
X120538882Y-57790282D01*
X120409718Y-57661118D01*
X120308236Y-57509240D01*
X120238335Y-57340483D01*
X120202700Y-57161332D01*
X120202700Y-56978668D01*
X120238335Y-56799517D01*
X120308236Y-56630760D01*
X120409718Y-56478882D01*
X120538882Y-56349718D01*
X120690760Y-56248236D01*
X120859517Y-56178335D01*
X121038668Y-56142700D01*
X121221332Y-56142700D01*
X121400483Y-56178335D01*
X121400483Y-56178335D01*
G37*
G36*
X201860728Y-55281703D02*
G01*
X202015600Y-55345853D01*
X202154981Y-55438985D01*
X202273515Y-55557519D01*
X202366647Y-55696900D01*
X202430797Y-55851772D01*
X202463500Y-56016184D01*
X202463500Y-56183816D01*
X202430797Y-56348228D01*
X202366647Y-56503100D01*
X202273515Y-56642481D01*
X202154981Y-56761015D01*
X202015600Y-56854147D01*
X201860728Y-56918297D01*
X201696316Y-56951000D01*
X201528684Y-56951000D01*
X201364272Y-56918297D01*
X201209400Y-56854147D01*
X201070019Y-56761015D01*
X200951485Y-56642481D01*
X200858353Y-56503100D01*
X200794203Y-56348228D01*
X200761500Y-56183816D01*
X200761500Y-56016184D01*
X200794203Y-55851772D01*
X200858353Y-55696900D01*
X200951485Y-55557519D01*
X201070019Y-55438985D01*
X201209400Y-55345853D01*
X201364272Y-55281703D01*
X201528684Y-55249000D01*
X201696316Y-55249000D01*
X201860728Y-55281703D01*
X201860728Y-55281703D01*
G37*
G36*
X163760728Y-55219203D02*
G01*
X163915600Y-55283353D01*
X164054981Y-55376485D01*
X164173515Y-55495019D01*
X164266647Y-55634400D01*
X164330797Y-55789272D01*
X164363500Y-55953684D01*
X164363500Y-56121316D01*
X164330797Y-56285728D01*
X164266647Y-56440600D01*
X164173515Y-56579981D01*
X164054981Y-56698515D01*
X163915600Y-56791647D01*
X163760728Y-56855797D01*
X163596316Y-56888500D01*
X163428684Y-56888500D01*
X163264272Y-56855797D01*
X163109400Y-56791647D01*
X162970019Y-56698515D01*
X162851485Y-56579981D01*
X162758353Y-56440600D01*
X162694203Y-56285728D01*
X162661500Y-56121316D01*
X162661500Y-55953684D01*
X162694203Y-55789272D01*
X162758353Y-55634400D01*
X162851485Y-55495019D01*
X162970019Y-55376485D01*
X163109400Y-55283353D01*
X163264272Y-55219203D01*
X163428684Y-55186500D01*
X163596316Y-55186500D01*
X163760728Y-55219203D01*
X163760728Y-55219203D01*
G37*
G36*
X182848228Y-55181703D02*
G01*
X183003100Y-55245853D01*
X183142481Y-55338985D01*
X183261015Y-55457519D01*
X183354147Y-55596900D01*
X183418297Y-55751772D01*
X183451000Y-55916184D01*
X183451000Y-56083816D01*
X183418297Y-56248228D01*
X183354147Y-56403100D01*
X183261015Y-56542481D01*
X183142481Y-56661015D01*
X183003100Y-56754147D01*
X182848228Y-56818297D01*
X182683816Y-56851000D01*
X182516184Y-56851000D01*
X182351772Y-56818297D01*
X182196900Y-56754147D01*
X182057519Y-56661015D01*
X181938985Y-56542481D01*
X181845853Y-56403100D01*
X181781703Y-56248228D01*
X181749000Y-56083816D01*
X181749000Y-55916184D01*
X181781703Y-55751772D01*
X181845853Y-55596900D01*
X181938985Y-55457519D01*
X182057519Y-55338985D01*
X182196900Y-55245853D01*
X182351772Y-55181703D01*
X182516184Y-55149000D01*
X182683816Y-55149000D01*
X182848228Y-55181703D01*
X182848228Y-55181703D01*
G37*
G36*
X136640483Y-53638335D02*
G01*
X136809240Y-53708236D01*
X136961118Y-53809718D01*
X137090282Y-53938882D01*
X137191764Y-54090760D01*
X137261665Y-54259517D01*
X137297300Y-54438668D01*
X137297300Y-54621332D01*
X137261665Y-54800483D01*
X137191764Y-54969240D01*
X137090282Y-55121118D01*
X136961118Y-55250282D01*
X136809240Y-55351764D01*
X136640483Y-55421665D01*
X136461332Y-55457300D01*
X136278668Y-55457300D01*
X136099517Y-55421665D01*
X135930760Y-55351764D01*
X135778882Y-55250282D01*
X135649718Y-55121118D01*
X135548236Y-54969240D01*
X135478335Y-54800483D01*
X135442700Y-54621332D01*
X135442700Y-54438668D01*
X135478335Y-54259517D01*
X135548236Y-54090760D01*
X135649718Y-53938882D01*
X135778882Y-53809718D01*
X135930760Y-53708236D01*
X136099517Y-53638335D01*
X136278668Y-53602700D01*
X136461332Y-53602700D01*
X136640483Y-53638335D01*
X136640483Y-53638335D01*
G37*
G36*
X122057300Y-55457300D02*
G01*
X120202700Y-55457300D01*
X120202700Y-53602700D01*
X122057300Y-53602700D01*
X122057300Y-55457300D01*
X122057300Y-55457300D01*
G37*
M02*
