G04 #@! TF.GenerationSoftware,KiCad,Pcbnew,(5.1.4)-1*
G04 #@! TF.CreationDate,2020-08-22T19:17:11-06:00*
G04 #@! TF.ProjectId,smolPad,736d6f6c-5061-4642-9e6b-696361645f70,rev?*
G04 #@! TF.SameCoordinates,Original*
G04 #@! TF.FileFunction,Legend,Top*
G04 #@! TF.FilePolarity,Positive*
%FSLAX46Y46*%
G04 Gerber Fmt 4.6, Leading zero omitted, Abs format (unit mm)*
G04 Created by KiCad (PCBNEW (5.1.4)-1) date 2020-08-22 19:17:11*
%MOMM*%
%LPD*%
G04 APERTURE LIST*
%ADD10C,0.300000*%
%ADD11C,0.381000*%
%ADD12C,0.150000*%
%ADD13C,4.089800*%
%ADD14C,1.852000*%
%ADD15R,1.854600X1.854600*%
%ADD16C,1.854600*%
%ADD17R,1.702000X1.702000*%
%ADD18C,1.702000*%
%ADD19R,1.302000X1.702000*%
G04 APERTURE END LIST*
D10*
X123642857Y-96000000D02*
X123571428Y-96214285D01*
X123571428Y-96571428D01*
X123642857Y-96714285D01*
X123714285Y-96785714D01*
X123857142Y-96857142D01*
X124000000Y-96857142D01*
X124142857Y-96785714D01*
X124214285Y-96714285D01*
X124285714Y-96571428D01*
X124357142Y-96285714D01*
X124428571Y-96142857D01*
X124500000Y-96071428D01*
X124642857Y-96000000D01*
X124785714Y-96000000D01*
X124928571Y-96071428D01*
X125000000Y-96142857D01*
X125071428Y-96285714D01*
X125071428Y-96642857D01*
X125000000Y-96857142D01*
X123571428Y-97500000D02*
X124571428Y-97500000D01*
X124428571Y-97500000D02*
X124500000Y-97571428D01*
X124571428Y-97714285D01*
X124571428Y-97928571D01*
X124500000Y-98071428D01*
X124357142Y-98142857D01*
X123571428Y-98142857D01*
X124357142Y-98142857D02*
X124500000Y-98214285D01*
X124571428Y-98357142D01*
X124571428Y-98571428D01*
X124500000Y-98714285D01*
X124357142Y-98785714D01*
X123571428Y-98785714D01*
X123571428Y-99714285D02*
X123642857Y-99571428D01*
X123714285Y-99500000D01*
X123857142Y-99428571D01*
X124285714Y-99428571D01*
X124428571Y-99500000D01*
X124500000Y-99571428D01*
X124571428Y-99714285D01*
X124571428Y-99928571D01*
X124500000Y-100071428D01*
X124428571Y-100142857D01*
X124285714Y-100214285D01*
X123857142Y-100214285D01*
X123714285Y-100142857D01*
X123642857Y-100071428D01*
X123571428Y-99928571D01*
X123571428Y-99714285D01*
X123571428Y-101071428D02*
X123642857Y-100928571D01*
X123785714Y-100857142D01*
X125071428Y-100857142D01*
X124571428Y-102785714D02*
X123071428Y-102785714D01*
X124500000Y-102785714D02*
X124571428Y-102928571D01*
X124571428Y-103214285D01*
X124500000Y-103357142D01*
X124428571Y-103428571D01*
X124285714Y-103500000D01*
X123857142Y-103500000D01*
X123714285Y-103428571D01*
X123642857Y-103357142D01*
X123571428Y-103214285D01*
X123571428Y-102928571D01*
X123642857Y-102785714D01*
X123571428Y-104785714D02*
X124357142Y-104785714D01*
X124500000Y-104714285D01*
X124571428Y-104571428D01*
X124571428Y-104285714D01*
X124500000Y-104142857D01*
X123642857Y-104785714D02*
X123571428Y-104642857D01*
X123571428Y-104285714D01*
X123642857Y-104142857D01*
X123785714Y-104071428D01*
X123928571Y-104071428D01*
X124071428Y-104142857D01*
X124142857Y-104285714D01*
X124142857Y-104642857D01*
X124214285Y-104785714D01*
X123571428Y-106142857D02*
X125071428Y-106142857D01*
X123642857Y-106142857D02*
X123571428Y-106000000D01*
X123571428Y-105714285D01*
X123642857Y-105571428D01*
X123714285Y-105500000D01*
X123857142Y-105428571D01*
X124285714Y-105428571D01*
X124428571Y-105500000D01*
X124500000Y-105571428D01*
X124571428Y-105714285D01*
X124571428Y-106000000D01*
X124500000Y-106142857D01*
X123571428Y-108857142D02*
X124285714Y-108357142D01*
X123571428Y-108000000D02*
X125071428Y-108000000D01*
X125071428Y-108571428D01*
X125000000Y-108714285D01*
X124928571Y-108785714D01*
X124785714Y-108857142D01*
X124571428Y-108857142D01*
X124428571Y-108785714D01*
X124357142Y-108714285D01*
X124285714Y-108571428D01*
X124285714Y-108000000D01*
X123642857Y-110071428D02*
X123571428Y-109928571D01*
X123571428Y-109642857D01*
X123642857Y-109500000D01*
X123785714Y-109428571D01*
X124357142Y-109428571D01*
X124500000Y-109500000D01*
X124571428Y-109642857D01*
X124571428Y-109928571D01*
X124500000Y-110071428D01*
X124357142Y-110142857D01*
X124214285Y-110142857D01*
X124071428Y-109428571D01*
X124571428Y-110642857D02*
X123571428Y-111000000D01*
X124571428Y-111357142D01*
X123571428Y-113857142D02*
X123571428Y-113000000D01*
X123571428Y-113428571D02*
X125071428Y-113428571D01*
X124857142Y-113285714D01*
X124714285Y-113142857D01*
X124642857Y-113000000D01*
X123714285Y-114500000D02*
X123642857Y-114571428D01*
X123571428Y-114500000D01*
X123642857Y-114428571D01*
X123714285Y-114500000D01*
X123571428Y-114500000D01*
X125071428Y-115500000D02*
X125071428Y-115642857D01*
X125000000Y-115785714D01*
X124928571Y-115857142D01*
X124785714Y-115928571D01*
X124500000Y-116000000D01*
X124142857Y-116000000D01*
X123857142Y-115928571D01*
X123714285Y-115857142D01*
X123642857Y-115785714D01*
X123571428Y-115642857D01*
X123571428Y-115500000D01*
X123642857Y-115357142D01*
X123714285Y-115285714D01*
X123857142Y-115214285D01*
X124142857Y-115142857D01*
X124500000Y-115142857D01*
X124785714Y-115214285D01*
X124928571Y-115285714D01*
X125000000Y-115357142D01*
X125071428Y-115500000D01*
X120571428Y-94428571D02*
X122071428Y-94428571D01*
X122071428Y-95000000D01*
X122000000Y-95142857D01*
X121928571Y-95214285D01*
X121785714Y-95285714D01*
X121571428Y-95285714D01*
X121428571Y-95214285D01*
X121357142Y-95142857D01*
X121285714Y-95000000D01*
X121285714Y-94428571D01*
X121571428Y-96571428D02*
X120571428Y-96571428D01*
X121571428Y-95928571D02*
X120785714Y-95928571D01*
X120642857Y-96000000D01*
X120571428Y-96142857D01*
X120571428Y-96357142D01*
X120642857Y-96500000D01*
X120714285Y-96571428D01*
X121571428Y-97285714D02*
X120071428Y-97285714D01*
X121500000Y-97285714D02*
X121571428Y-97428571D01*
X121571428Y-97714285D01*
X121500000Y-97857142D01*
X121428571Y-97928571D01*
X121285714Y-98000000D01*
X120857142Y-98000000D01*
X120714285Y-97928571D01*
X120642857Y-97857142D01*
X120571428Y-97714285D01*
X120571428Y-97428571D01*
X120642857Y-97285714D01*
X121571428Y-98642857D02*
X120071428Y-98642857D01*
X121500000Y-98642857D02*
X121571428Y-98785714D01*
X121571428Y-99071428D01*
X121500000Y-99214285D01*
X121428571Y-99285714D01*
X121285714Y-99357142D01*
X120857142Y-99357142D01*
X120714285Y-99285714D01*
X120642857Y-99214285D01*
X120571428Y-99071428D01*
X120571428Y-98785714D01*
X120642857Y-98642857D01*
X120642857Y-100571428D02*
X120571428Y-100428571D01*
X120571428Y-100142857D01*
X120642857Y-100000000D01*
X120785714Y-99928571D01*
X121357142Y-99928571D01*
X121500000Y-100000000D01*
X121571428Y-100142857D01*
X121571428Y-100428571D01*
X121500000Y-100571428D01*
X121357142Y-100642857D01*
X121214285Y-100642857D01*
X121071428Y-99928571D01*
X120571428Y-101285714D02*
X121571428Y-101285714D01*
X121285714Y-101285714D02*
X121428571Y-101357142D01*
X121500000Y-101428571D01*
X121571428Y-101571428D01*
X121571428Y-101714285D01*
X120571428Y-102214285D02*
X122071428Y-102214285D01*
X121500000Y-102214285D02*
X121571428Y-102357142D01*
X121571428Y-102642857D01*
X121500000Y-102785714D01*
X121428571Y-102857142D01*
X121285714Y-102928571D01*
X120857142Y-102928571D01*
X120714285Y-102857142D01*
X120642857Y-102785714D01*
X120571428Y-102642857D01*
X120571428Y-102357142D01*
X120642857Y-102214285D01*
X120571428Y-103785714D02*
X120642857Y-103642857D01*
X120714285Y-103571428D01*
X120857142Y-103500000D01*
X121285714Y-103500000D01*
X121428571Y-103571428D01*
X121500000Y-103642857D01*
X121571428Y-103785714D01*
X121571428Y-104000000D01*
X121500000Y-104142857D01*
X121428571Y-104214285D01*
X121285714Y-104285714D01*
X120857142Y-104285714D01*
X120714285Y-104214285D01*
X120642857Y-104142857D01*
X120571428Y-104000000D01*
X120571428Y-103785714D01*
X121571428Y-104714285D02*
X121571428Y-105285714D01*
X122071428Y-104928571D02*
X120785714Y-104928571D01*
X120642857Y-105000000D01*
X120571428Y-105142857D01*
X120571428Y-105285714D01*
X121571428Y-106785714D02*
X120571428Y-107071428D01*
X121285714Y-107357142D01*
X120571428Y-107642857D01*
X121571428Y-107928571D01*
X120571428Y-109142857D02*
X121357142Y-109142857D01*
X121500000Y-109071428D01*
X121571428Y-108928571D01*
X121571428Y-108642857D01*
X121500000Y-108499999D01*
X120642857Y-109142857D02*
X120571428Y-108999999D01*
X120571428Y-108642857D01*
X120642857Y-108499999D01*
X120785714Y-108428571D01*
X120928571Y-108428571D01*
X121071428Y-108499999D01*
X121142857Y-108642857D01*
X121142857Y-108999999D01*
X121214285Y-109142857D01*
X120642857Y-109785714D02*
X120571428Y-109928571D01*
X120571428Y-110214285D01*
X120642857Y-110357142D01*
X120785714Y-110428571D01*
X120857142Y-110428571D01*
X121000000Y-110357142D01*
X121071428Y-110214285D01*
X121071428Y-109999999D01*
X121142857Y-109857142D01*
X121285714Y-109785714D01*
X121357142Y-109785714D01*
X121500000Y-109857142D01*
X121571428Y-109999999D01*
X121571428Y-110214285D01*
X121500000Y-110357142D01*
X120571428Y-112214285D02*
X122071428Y-112214285D01*
X120571428Y-112857142D02*
X121357142Y-112857142D01*
X121500000Y-112785714D01*
X121571428Y-112642857D01*
X121571428Y-112428571D01*
X121500000Y-112285714D01*
X121428571Y-112214285D01*
X120642857Y-114142857D02*
X120571428Y-114000000D01*
X120571428Y-113714285D01*
X120642857Y-113571428D01*
X120785714Y-113500000D01*
X121357142Y-113500000D01*
X121500000Y-113571428D01*
X121571428Y-113714285D01*
X121571428Y-114000000D01*
X121500000Y-114142857D01*
X121357142Y-114214285D01*
X121214285Y-114214285D01*
X121071428Y-113500000D01*
X120571428Y-114857142D02*
X121571428Y-114857142D01*
X121285714Y-114857142D02*
X121428571Y-114928571D01*
X121500000Y-115000000D01*
X121571428Y-115142857D01*
X121571428Y-115285714D01*
X120642857Y-116357142D02*
X120571428Y-116214285D01*
X120571428Y-115928571D01*
X120642857Y-115785714D01*
X120785714Y-115714285D01*
X121357142Y-115714285D01*
X121500000Y-115785714D01*
X121571428Y-115928571D01*
X121571428Y-116214285D01*
X121500000Y-116357142D01*
X121357142Y-116428571D01*
X121214285Y-116428571D01*
X121071428Y-115714285D01*
X120714285Y-117071428D02*
X120642857Y-117142857D01*
X120571428Y-117071428D01*
X120642857Y-117000000D01*
X120714285Y-117071428D01*
X120571428Y-117071428D01*
X121142857Y-117071428D02*
X122000000Y-117000000D01*
X122071428Y-117071428D01*
X122000000Y-117142857D01*
X121142857Y-117071428D01*
X122071428Y-117071428D01*
D11*
X119860000Y-53260000D02*
X119860000Y-83740000D01*
X119860000Y-83740000D02*
X137640000Y-83740000D01*
X137640000Y-83740000D02*
X137640000Y-53260000D01*
X122400000Y-53260000D02*
X122400000Y-55800000D01*
X122400000Y-55800000D02*
X119860000Y-55800000D01*
D12*
G36*
X133681568Y-59139360D02*
G01*
X133681568Y-59439360D01*
X133581568Y-59439360D01*
X133581568Y-59139360D01*
X133681568Y-59139360D01*
G37*
X133681568Y-59139360D02*
X133681568Y-59439360D01*
X133581568Y-59439360D01*
X133581568Y-59139360D01*
X133681568Y-59139360D01*
G36*
X133481568Y-59539360D02*
G01*
X133481568Y-59639360D01*
X133381568Y-59639360D01*
X133381568Y-59539360D01*
X133481568Y-59539360D01*
G37*
X133481568Y-59539360D02*
X133481568Y-59639360D01*
X133381568Y-59639360D01*
X133381568Y-59539360D01*
X133481568Y-59539360D01*
G36*
X133681568Y-59139360D02*
G01*
X133681568Y-59239360D01*
X133181568Y-59239360D01*
X133181568Y-59139360D01*
X133681568Y-59139360D01*
G37*
X133681568Y-59139360D02*
X133681568Y-59239360D01*
X133181568Y-59239360D01*
X133181568Y-59139360D01*
X133681568Y-59139360D01*
G36*
X133281568Y-59139360D02*
G01*
X133281568Y-59939360D01*
X133181568Y-59939360D01*
X133181568Y-59139360D01*
X133281568Y-59139360D01*
G37*
X133281568Y-59139360D02*
X133281568Y-59939360D01*
X133181568Y-59939360D01*
X133181568Y-59139360D01*
X133281568Y-59139360D01*
G36*
X133681568Y-59739360D02*
G01*
X133681568Y-59939360D01*
X133581568Y-59939360D01*
X133581568Y-59739360D01*
X133681568Y-59739360D01*
G37*
X133681568Y-59739360D02*
X133681568Y-59939360D01*
X133581568Y-59939360D01*
X133581568Y-59739360D01*
X133681568Y-59739360D01*
D11*
X137640000Y-53260000D02*
X137640000Y-50720000D01*
X137640000Y-50720000D02*
X119860000Y-50720000D01*
X119860000Y-50720000D02*
X119860000Y-53260000D01*
X122400000Y-53260000D02*
X119860000Y-53260000D01*
D12*
X133887190Y-79872857D02*
X134001476Y-79910952D01*
X134039571Y-79949047D01*
X134077666Y-80025238D01*
X134077666Y-80139523D01*
X134039571Y-80215714D01*
X134001476Y-80253809D01*
X133925285Y-80291904D01*
X133620523Y-80291904D01*
X133620523Y-79491904D01*
X133887190Y-79491904D01*
X133963380Y-79530000D01*
X134001476Y-79568095D01*
X134039571Y-79644285D01*
X134039571Y-79720476D01*
X134001476Y-79796666D01*
X133963380Y-79834761D01*
X133887190Y-79872857D01*
X133620523Y-79872857D01*
X134382428Y-79568095D02*
X134420523Y-79530000D01*
X134496714Y-79491904D01*
X134687190Y-79491904D01*
X134763380Y-79530000D01*
X134801476Y-79568095D01*
X134839571Y-79644285D01*
X134839571Y-79720476D01*
X134801476Y-79834761D01*
X134344333Y-80291904D01*
X134839571Y-80291904D01*
X133944333Y-72252857D02*
X133677666Y-72252857D01*
X133677666Y-72671904D02*
X133677666Y-71871904D01*
X134058619Y-71871904D01*
X134287190Y-71871904D02*
X134820523Y-71871904D01*
X134477666Y-72671904D01*
X133944333Y-69712857D02*
X133677666Y-69712857D01*
X133677666Y-70131904D02*
X133677666Y-69331904D01*
X134058619Y-69331904D01*
X134706238Y-69331904D02*
X134553857Y-69331904D01*
X134477666Y-69370000D01*
X134439571Y-69408095D01*
X134363380Y-69522380D01*
X134325285Y-69674761D01*
X134325285Y-69979523D01*
X134363380Y-70055714D01*
X134401476Y-70093809D01*
X134477666Y-70131904D01*
X134630047Y-70131904D01*
X134706238Y-70093809D01*
X134744333Y-70055714D01*
X134782428Y-69979523D01*
X134782428Y-69789047D01*
X134744333Y-69712857D01*
X134706238Y-69674761D01*
X134630047Y-69636666D01*
X134477666Y-69636666D01*
X134401476Y-69674761D01*
X134363380Y-69712857D01*
X134325285Y-69789047D01*
X133944333Y-67172857D02*
X133677666Y-67172857D01*
X133677666Y-67591904D02*
X133677666Y-66791904D01*
X134058619Y-66791904D01*
X134744333Y-66791904D02*
X134363380Y-66791904D01*
X134325285Y-67172857D01*
X134363380Y-67134761D01*
X134439571Y-67096666D01*
X134630047Y-67096666D01*
X134706238Y-67134761D01*
X134744333Y-67172857D01*
X134782428Y-67249047D01*
X134782428Y-67439523D01*
X134744333Y-67515714D01*
X134706238Y-67553809D01*
X134630047Y-67591904D01*
X134439571Y-67591904D01*
X134363380Y-67553809D01*
X134325285Y-67515714D01*
X133658619Y-54891904D02*
X133391952Y-54510952D01*
X133201476Y-54891904D02*
X133201476Y-54091904D01*
X133506238Y-54091904D01*
X133582428Y-54130000D01*
X133620523Y-54168095D01*
X133658619Y-54244285D01*
X133658619Y-54358571D01*
X133620523Y-54434761D01*
X133582428Y-54472857D01*
X133506238Y-54510952D01*
X133201476Y-54510952D01*
X133963380Y-54663333D02*
X134344333Y-54663333D01*
X133887190Y-54891904D02*
X134153857Y-54091904D01*
X134420523Y-54891904D01*
X134611000Y-54091904D02*
X134801476Y-54891904D01*
X134953857Y-54320476D01*
X135106238Y-54891904D01*
X135296714Y-54091904D01*
X133601476Y-56670000D02*
X133525285Y-56631904D01*
X133411000Y-56631904D01*
X133296714Y-56670000D01*
X133220523Y-56746190D01*
X133182428Y-56822380D01*
X133144333Y-56974761D01*
X133144333Y-57089047D01*
X133182428Y-57241428D01*
X133220523Y-57317619D01*
X133296714Y-57393809D01*
X133411000Y-57431904D01*
X133487190Y-57431904D01*
X133601476Y-57393809D01*
X133639571Y-57355714D01*
X133639571Y-57089047D01*
X133487190Y-57089047D01*
X133982428Y-57431904D02*
X133982428Y-56631904D01*
X134439571Y-57431904D01*
X134439571Y-56631904D01*
X134820523Y-57431904D02*
X134820523Y-56631904D01*
X135011000Y-56631904D01*
X135125285Y-56670000D01*
X135201476Y-56746190D01*
X135239571Y-56822380D01*
X135277666Y-56974761D01*
X135277666Y-57089047D01*
X135239571Y-57241428D01*
X135201476Y-57317619D01*
X135125285Y-57393809D01*
X135011000Y-57431904D01*
X134820523Y-57431904D01*
X133949786Y-59903809D02*
X134064072Y-59941904D01*
X134254548Y-59941904D01*
X134330739Y-59903809D01*
X134368834Y-59865714D01*
X134406929Y-59789523D01*
X134406929Y-59713333D01*
X134368834Y-59637142D01*
X134330739Y-59599047D01*
X134254548Y-59560952D01*
X134102167Y-59522857D01*
X134025977Y-59484761D01*
X133987881Y-59446666D01*
X133949786Y-59370476D01*
X133949786Y-59294285D01*
X133987881Y-59218095D01*
X134025977Y-59180000D01*
X134102167Y-59141904D01*
X134292643Y-59141904D01*
X134406929Y-59180000D01*
X134635500Y-59141904D02*
X135092643Y-59141904D01*
X134864072Y-59941904D02*
X134864072Y-59141904D01*
X133144333Y-61711904D02*
X133411000Y-62511904D01*
X133677666Y-61711904D01*
X134401476Y-62435714D02*
X134363380Y-62473809D01*
X134249095Y-62511904D01*
X134172904Y-62511904D01*
X134058619Y-62473809D01*
X133982428Y-62397619D01*
X133944333Y-62321428D01*
X133906238Y-62169047D01*
X133906238Y-62054761D01*
X133944333Y-61902380D01*
X133982428Y-61826190D01*
X134058619Y-61750000D01*
X134172904Y-61711904D01*
X134249095Y-61711904D01*
X134363380Y-61750000D01*
X134401476Y-61788095D01*
X135201476Y-62435714D02*
X135163380Y-62473809D01*
X135049095Y-62511904D01*
X134972904Y-62511904D01*
X134858619Y-62473809D01*
X134782428Y-62397619D01*
X134744333Y-62321428D01*
X134706238Y-62169047D01*
X134706238Y-62054761D01*
X134744333Y-61902380D01*
X134782428Y-61826190D01*
X134858619Y-61750000D01*
X134972904Y-61711904D01*
X135049095Y-61711904D01*
X135163380Y-61750000D01*
X135201476Y-61788095D01*
X133944333Y-64632857D02*
X133677666Y-64632857D01*
X133677666Y-65051904D02*
X133677666Y-64251904D01*
X134058619Y-64251904D01*
X134706238Y-64518571D02*
X134706238Y-65051904D01*
X134515761Y-64213809D02*
X134325285Y-64785238D01*
X134820523Y-64785238D01*
X133887190Y-74792857D02*
X134001476Y-74830952D01*
X134039571Y-74869047D01*
X134077666Y-74945238D01*
X134077666Y-75059523D01*
X134039571Y-75135714D01*
X134001476Y-75173809D01*
X133925285Y-75211904D01*
X133620523Y-75211904D01*
X133620523Y-74411904D01*
X133887190Y-74411904D01*
X133963380Y-74450000D01*
X134001476Y-74488095D01*
X134039571Y-74564285D01*
X134039571Y-74640476D01*
X134001476Y-74716666D01*
X133963380Y-74754761D01*
X133887190Y-74792857D01*
X133620523Y-74792857D01*
X134839571Y-75211904D02*
X134382428Y-75211904D01*
X134611000Y-75211904D02*
X134611000Y-74411904D01*
X134534809Y-74526190D01*
X134458619Y-74602380D01*
X134382428Y-74640476D01*
X133887190Y-77332857D02*
X134001476Y-77370952D01*
X134039571Y-77409047D01*
X134077666Y-77485238D01*
X134077666Y-77599523D01*
X134039571Y-77675714D01*
X134001476Y-77713809D01*
X133925285Y-77751904D01*
X133620523Y-77751904D01*
X133620523Y-76951904D01*
X133887190Y-76951904D01*
X133963380Y-76990000D01*
X134001476Y-77028095D01*
X134039571Y-77104285D01*
X134039571Y-77180476D01*
X134001476Y-77256666D01*
X133963380Y-77294761D01*
X133887190Y-77332857D01*
X133620523Y-77332857D01*
X134344333Y-76951904D02*
X134839571Y-76951904D01*
X134572904Y-77256666D01*
X134687190Y-77256666D01*
X134763380Y-77294761D01*
X134801476Y-77332857D01*
X134839571Y-77409047D01*
X134839571Y-77599523D01*
X134801476Y-77675714D01*
X134763380Y-77713809D01*
X134687190Y-77751904D01*
X134458619Y-77751904D01*
X134382428Y-77713809D01*
X134344333Y-77675714D01*
X133887190Y-82412857D02*
X134001476Y-82450952D01*
X134039571Y-82489047D01*
X134077666Y-82565238D01*
X134077666Y-82679523D01*
X134039571Y-82755714D01*
X134001476Y-82793809D01*
X133925285Y-82831904D01*
X133620523Y-82831904D01*
X133620523Y-82031904D01*
X133887190Y-82031904D01*
X133963380Y-82070000D01*
X134001476Y-82108095D01*
X134039571Y-82184285D01*
X134039571Y-82260476D01*
X134001476Y-82336666D01*
X133963380Y-82374761D01*
X133887190Y-82412857D01*
X133620523Y-82412857D01*
X134763380Y-82031904D02*
X134611000Y-82031904D01*
X134534809Y-82070000D01*
X134496714Y-82108095D01*
X134420523Y-82222380D01*
X134382428Y-82374761D01*
X134382428Y-82679523D01*
X134420523Y-82755714D01*
X134458619Y-82793809D01*
X134534809Y-82831904D01*
X134687190Y-82831904D01*
X134763380Y-82793809D01*
X134801476Y-82755714D01*
X134839571Y-82679523D01*
X134839571Y-82489047D01*
X134801476Y-82412857D01*
X134763380Y-82374761D01*
X134687190Y-82336666D01*
X134534809Y-82336666D01*
X134458619Y-82374761D01*
X134420523Y-82412857D01*
X134382428Y-82489047D01*
X122965190Y-82412857D02*
X123079476Y-82450952D01*
X123117571Y-82489047D01*
X123155666Y-82565238D01*
X123155666Y-82679523D01*
X123117571Y-82755714D01*
X123079476Y-82793809D01*
X123003285Y-82831904D01*
X122698523Y-82831904D01*
X122698523Y-82031904D01*
X122965190Y-82031904D01*
X123041380Y-82070000D01*
X123079476Y-82108095D01*
X123117571Y-82184285D01*
X123117571Y-82260476D01*
X123079476Y-82336666D01*
X123041380Y-82374761D01*
X122965190Y-82412857D01*
X122698523Y-82412857D01*
X123879476Y-82031904D02*
X123498523Y-82031904D01*
X123460428Y-82412857D01*
X123498523Y-82374761D01*
X123574714Y-82336666D01*
X123765190Y-82336666D01*
X123841380Y-82374761D01*
X123879476Y-82412857D01*
X123917571Y-82489047D01*
X123917571Y-82679523D01*
X123879476Y-82755714D01*
X123841380Y-82793809D01*
X123765190Y-82831904D01*
X123574714Y-82831904D01*
X123498523Y-82793809D01*
X123460428Y-82755714D01*
X122965190Y-79872857D02*
X123079476Y-79910952D01*
X123117571Y-79949047D01*
X123155666Y-80025238D01*
X123155666Y-80139523D01*
X123117571Y-80215714D01*
X123079476Y-80253809D01*
X123003285Y-80291904D01*
X122698523Y-80291904D01*
X122698523Y-79491904D01*
X122965190Y-79491904D01*
X123041380Y-79530000D01*
X123079476Y-79568095D01*
X123117571Y-79644285D01*
X123117571Y-79720476D01*
X123079476Y-79796666D01*
X123041380Y-79834761D01*
X122965190Y-79872857D01*
X122698523Y-79872857D01*
X123841380Y-79758571D02*
X123841380Y-80291904D01*
X123650904Y-79453809D02*
X123460428Y-80025238D01*
X123955666Y-80025238D01*
X122736619Y-77332857D02*
X123003285Y-77332857D01*
X123117571Y-77751904D02*
X122736619Y-77751904D01*
X122736619Y-76951904D01*
X123117571Y-76951904D01*
X123803285Y-76951904D02*
X123650904Y-76951904D01*
X123574714Y-76990000D01*
X123536619Y-77028095D01*
X123460428Y-77142380D01*
X123422333Y-77294761D01*
X123422333Y-77599523D01*
X123460428Y-77675714D01*
X123498523Y-77713809D01*
X123574714Y-77751904D01*
X123727095Y-77751904D01*
X123803285Y-77713809D01*
X123841380Y-77675714D01*
X123879476Y-77599523D01*
X123879476Y-77409047D01*
X123841380Y-77332857D01*
X123803285Y-77294761D01*
X123727095Y-77256666D01*
X123574714Y-77256666D01*
X123498523Y-77294761D01*
X123460428Y-77332857D01*
X123422333Y-77409047D01*
X122698523Y-75211904D02*
X122698523Y-74411904D01*
X122889000Y-74411904D01*
X123003285Y-74450000D01*
X123079476Y-74526190D01*
X123117571Y-74602380D01*
X123155666Y-74754761D01*
X123155666Y-74869047D01*
X123117571Y-75021428D01*
X123079476Y-75097619D01*
X123003285Y-75173809D01*
X122889000Y-75211904D01*
X122698523Y-75211904D01*
X123422333Y-74411904D02*
X123955666Y-74411904D01*
X123612809Y-75211904D01*
X123155666Y-72595714D02*
X123117571Y-72633809D01*
X123003285Y-72671904D01*
X122927095Y-72671904D01*
X122812809Y-72633809D01*
X122736619Y-72557619D01*
X122698523Y-72481428D01*
X122660428Y-72329047D01*
X122660428Y-72214761D01*
X122698523Y-72062380D01*
X122736619Y-71986190D01*
X122812809Y-71910000D01*
X122927095Y-71871904D01*
X123003285Y-71871904D01*
X123117571Y-71910000D01*
X123155666Y-71948095D01*
X123841380Y-71871904D02*
X123689000Y-71871904D01*
X123612809Y-71910000D01*
X123574714Y-71948095D01*
X123498523Y-72062380D01*
X123460428Y-72214761D01*
X123460428Y-72519523D01*
X123498523Y-72595714D01*
X123536619Y-72633809D01*
X123612809Y-72671904D01*
X123765190Y-72671904D01*
X123841380Y-72633809D01*
X123879476Y-72595714D01*
X123917571Y-72519523D01*
X123917571Y-72329047D01*
X123879476Y-72252857D01*
X123841380Y-72214761D01*
X123765190Y-72176666D01*
X123612809Y-72176666D01*
X123536619Y-72214761D01*
X123498523Y-72252857D01*
X123460428Y-72329047D01*
X122698523Y-70131904D02*
X122698523Y-69331904D01*
X122889000Y-69331904D01*
X123003285Y-69370000D01*
X123079476Y-69446190D01*
X123117571Y-69522380D01*
X123155666Y-69674761D01*
X123155666Y-69789047D01*
X123117571Y-69941428D01*
X123079476Y-70017619D01*
X123003285Y-70093809D01*
X122889000Y-70131904D01*
X122698523Y-70131904D01*
X123841380Y-69598571D02*
X123841380Y-70131904D01*
X123650904Y-69293809D02*
X123460428Y-69865238D01*
X123955666Y-69865238D01*
X122679476Y-59210000D02*
X122603285Y-59171904D01*
X122489000Y-59171904D01*
X122374714Y-59210000D01*
X122298523Y-59286190D01*
X122260428Y-59362380D01*
X122222333Y-59514761D01*
X122222333Y-59629047D01*
X122260428Y-59781428D01*
X122298523Y-59857619D01*
X122374714Y-59933809D01*
X122489000Y-59971904D01*
X122565190Y-59971904D01*
X122679476Y-59933809D01*
X122717571Y-59895714D01*
X122717571Y-59629047D01*
X122565190Y-59629047D01*
X123060428Y-59971904D02*
X123060428Y-59171904D01*
X123517571Y-59971904D01*
X123517571Y-59171904D01*
X123898523Y-59971904D02*
X123898523Y-59171904D01*
X124089000Y-59171904D01*
X124203285Y-59210000D01*
X124279476Y-59286190D01*
X124317571Y-59362380D01*
X124355666Y-59514761D01*
X124355666Y-59629047D01*
X124317571Y-59781428D01*
X124279476Y-59857619D01*
X124203285Y-59933809D01*
X124089000Y-59971904D01*
X123898523Y-59971904D01*
X122679476Y-61750000D02*
X122603285Y-61711904D01*
X122489000Y-61711904D01*
X122374714Y-61750000D01*
X122298523Y-61826190D01*
X122260428Y-61902380D01*
X122222333Y-62054761D01*
X122222333Y-62169047D01*
X122260428Y-62321428D01*
X122298523Y-62397619D01*
X122374714Y-62473809D01*
X122489000Y-62511904D01*
X122565190Y-62511904D01*
X122679476Y-62473809D01*
X122717571Y-62435714D01*
X122717571Y-62169047D01*
X122565190Y-62169047D01*
X123060428Y-62511904D02*
X123060428Y-61711904D01*
X123517571Y-62511904D01*
X123517571Y-61711904D01*
X123898523Y-62511904D02*
X123898523Y-61711904D01*
X124089000Y-61711904D01*
X124203285Y-61750000D01*
X124279476Y-61826190D01*
X124317571Y-61902380D01*
X124355666Y-62054761D01*
X124355666Y-62169047D01*
X124317571Y-62321428D01*
X124279476Y-62397619D01*
X124203285Y-62473809D01*
X124089000Y-62511904D01*
X123898523Y-62511904D01*
X122698523Y-65051904D02*
X122698523Y-64251904D01*
X122889000Y-64251904D01*
X123003285Y-64290000D01*
X123079476Y-64366190D01*
X123117571Y-64442380D01*
X123155666Y-64594761D01*
X123155666Y-64709047D01*
X123117571Y-64861428D01*
X123079476Y-64937619D01*
X123003285Y-65013809D01*
X122889000Y-65051904D01*
X122698523Y-65051904D01*
X123917571Y-65051904D02*
X123460428Y-65051904D01*
X123689000Y-65051904D02*
X123689000Y-64251904D01*
X123612809Y-64366190D01*
X123536619Y-64442380D01*
X123460428Y-64480476D01*
X122698523Y-67591904D02*
X122698523Y-66791904D01*
X122889000Y-66791904D01*
X123003285Y-66830000D01*
X123079476Y-66906190D01*
X123117571Y-66982380D01*
X123155666Y-67134761D01*
X123155666Y-67249047D01*
X123117571Y-67401428D01*
X123079476Y-67477619D01*
X123003285Y-67553809D01*
X122889000Y-67591904D01*
X122698523Y-67591904D01*
X123650904Y-66791904D02*
X123727095Y-66791904D01*
X123803285Y-66830000D01*
X123841380Y-66868095D01*
X123879476Y-66944285D01*
X123917571Y-67096666D01*
X123917571Y-67287142D01*
X123879476Y-67439523D01*
X123841380Y-67515714D01*
X123803285Y-67553809D01*
X123727095Y-67591904D01*
X123650904Y-67591904D01*
X123574714Y-67553809D01*
X123536619Y-67515714D01*
X123498523Y-67439523D01*
X123460428Y-67287142D01*
X123460428Y-67096666D01*
X123498523Y-66944285D01*
X123536619Y-66868095D01*
X123574714Y-66830000D01*
X123650904Y-66791904D01*
X122698523Y-57431904D02*
X122698523Y-56631904D01*
X122889000Y-56631904D01*
X123003285Y-56670000D01*
X123079476Y-56746190D01*
X123117571Y-56822380D01*
X123155666Y-56974761D01*
X123155666Y-57089047D01*
X123117571Y-57241428D01*
X123079476Y-57317619D01*
X123003285Y-57393809D01*
X122889000Y-57431904D01*
X122698523Y-57431904D01*
X123460428Y-56708095D02*
X123498523Y-56670000D01*
X123574714Y-56631904D01*
X123765190Y-56631904D01*
X123841380Y-56670000D01*
X123879476Y-56708095D01*
X123917571Y-56784285D01*
X123917571Y-56860476D01*
X123879476Y-56974761D01*
X123422333Y-57431904D01*
X123917571Y-57431904D01*
X122987651Y-54091904D02*
X123444794Y-54091904D01*
X123216223Y-54891904D02*
X123216223Y-54091904D01*
X123635270Y-54091904D02*
X124168604Y-54891904D01*
X124168604Y-54091904D02*
X123635270Y-54891904D01*
X124625747Y-54091904D02*
X124701937Y-54091904D01*
X124778128Y-54130000D01*
X124816223Y-54168095D01*
X124854318Y-54244285D01*
X124892413Y-54396666D01*
X124892413Y-54587142D01*
X124854318Y-54739523D01*
X124816223Y-54815714D01*
X124778128Y-54853809D01*
X124701937Y-54891904D01*
X124625747Y-54891904D01*
X124549556Y-54853809D01*
X124511461Y-54815714D01*
X124473366Y-54739523D01*
X124435270Y-54587142D01*
X124435270Y-54396666D01*
X124473366Y-54244285D01*
X124511461Y-54168095D01*
X124549556Y-54130000D01*
X124625747Y-54091904D01*
X125806699Y-54053809D02*
X125120985Y-55082380D01*
X126073366Y-54891904D02*
X126073366Y-54091904D01*
X126263842Y-54091904D01*
X126378128Y-54130000D01*
X126454318Y-54206190D01*
X126492413Y-54282380D01*
X126530508Y-54434761D01*
X126530508Y-54549047D01*
X126492413Y-54701428D01*
X126454318Y-54777619D01*
X126378128Y-54853809D01*
X126263842Y-54891904D01*
X126073366Y-54891904D01*
X126797175Y-54091904D02*
X127292413Y-54091904D01*
X127025747Y-54396666D01*
X127140032Y-54396666D01*
X127216223Y-54434761D01*
X127254318Y-54472857D01*
X127292413Y-54549047D01*
X127292413Y-54739523D01*
X127254318Y-54815714D01*
X127216223Y-54853809D01*
X127140032Y-54891904D01*
X126911461Y-54891904D01*
X126835270Y-54853809D01*
X126797175Y-54815714D01*
%LPC*%
D13*
X155000000Y-98000000D03*
D14*
X149920000Y-98000000D03*
X160080000Y-98000000D03*
X160080000Y-117000000D03*
X149920000Y-117000000D03*
D13*
X155000000Y-117000000D03*
X193000000Y-79000000D03*
D14*
X187920000Y-79000000D03*
X198080000Y-79000000D03*
X179080000Y-98000000D03*
X168920000Y-98000000D03*
D13*
X174000000Y-98000000D03*
X174000000Y-117000000D03*
D14*
X168920000Y-117000000D03*
X179080000Y-117000000D03*
D13*
X174000000Y-60000000D03*
D14*
X168920000Y-60000000D03*
X179080000Y-60000000D03*
X160080000Y-79000000D03*
X149920000Y-79000000D03*
D13*
X155000000Y-79000000D03*
X155000000Y-60000000D03*
D14*
X149920000Y-60000000D03*
X160080000Y-60000000D03*
X198080000Y-60000000D03*
X187920000Y-60000000D03*
D13*
X193000000Y-60000000D03*
D14*
X179080000Y-79000000D03*
X168920000Y-79000000D03*
D13*
X174000000Y-79000000D03*
X193000000Y-98000000D03*
D14*
X187920000Y-98000000D03*
X198080000Y-98000000D03*
X198080000Y-117000000D03*
X187920000Y-117000000D03*
D13*
X193000000Y-117000000D03*
D15*
X121130000Y-54530000D03*
D16*
X121130000Y-57070000D03*
X121130000Y-59610000D03*
X121130000Y-62150000D03*
X121130000Y-64690000D03*
X121130000Y-67230000D03*
X121130000Y-69770000D03*
X121130000Y-72310000D03*
X121130000Y-74850000D03*
X121130000Y-77390000D03*
X121130000Y-79930000D03*
X136370000Y-82470000D03*
X136370000Y-79930000D03*
X136370000Y-77390000D03*
X136370000Y-74850000D03*
X136370000Y-72310000D03*
X136370000Y-69770000D03*
X136370000Y-67230000D03*
X136370000Y-64690000D03*
X136370000Y-62150000D03*
X136370000Y-59610000D03*
X136370000Y-57070000D03*
X121130000Y-82470000D03*
X136370000Y-54530000D03*
D17*
X163512500Y-63837500D03*
D18*
X163512500Y-56037500D03*
D19*
X163512500Y-61337500D03*
X163512500Y-58537500D03*
X182600000Y-58500000D03*
X182600000Y-61300000D03*
D18*
X182600000Y-56000000D03*
D17*
X182600000Y-63800000D03*
X201612500Y-63900000D03*
D18*
X201612500Y-56100000D03*
D19*
X201612500Y-61400000D03*
X201612500Y-58600000D03*
X163512500Y-77592500D03*
X163512500Y-80392500D03*
D18*
X163512500Y-75092500D03*
D17*
X163512500Y-82892500D03*
X182562500Y-82900000D03*
D18*
X182562500Y-75100000D03*
D19*
X182562500Y-80400000D03*
X182562500Y-77600000D03*
X201612500Y-77592500D03*
X201612500Y-80392500D03*
D18*
X201612500Y-75092500D03*
D17*
X201612500Y-82892500D03*
X163512500Y-101942500D03*
D18*
X163512500Y-94142500D03*
D19*
X163512500Y-99442500D03*
X163512500Y-96642500D03*
X182562500Y-96642500D03*
X182562500Y-99442500D03*
D18*
X182562500Y-94142500D03*
D17*
X182562500Y-101942500D03*
X201612500Y-101942500D03*
D18*
X201612500Y-94142500D03*
D19*
X201612500Y-99442500D03*
X201612500Y-96642500D03*
X163512500Y-115350000D03*
X163512500Y-118150000D03*
D18*
X163512500Y-112850000D03*
D17*
X163512500Y-120650000D03*
X182562500Y-120650000D03*
D18*
X182562500Y-112850000D03*
D19*
X182562500Y-118150000D03*
X182562500Y-115350000D03*
X201612500Y-115400000D03*
X201612500Y-118200000D03*
D18*
X201612500Y-112900000D03*
D17*
X201612500Y-120700000D03*
M02*
