M48
; DRILL file {KiCad (5.1.4)-1} date 08/22/20 19:17:24
; FORMAT={-:-/ absolute / inch / decimal}
; #@! TF.CreationDate,2020-08-22T19:17:24-06:00
; #@! TF.GenerationSoftware,Kicad,Pcbnew,(5.1.4)-1
; #@! TF.FileFunction,NonPlated,1,2,NPTH
FMAT,2
INCH
T1C0.0689
T2C0.1570
%
G90
G05
T1
X6.6504Y-3.1102
X7.3984Y-3.8583
X7.7984Y-3.8583
X7.3984Y-3.1102
X5.9024Y-3.8583
X6.3024Y-3.8583
X7.3984Y-2.3622
X7.7984Y-2.3622
X5.9024Y-3.1102
X6.3024Y-3.1102
X7.0504Y-3.1102
X5.9024Y-4.6063
X6.3024Y-4.6063
X6.6504Y-3.8583
X7.0504Y-3.8583
X7.7984Y-3.1102
X6.6504Y-2.3622
X7.0504Y-2.3622
X6.6504Y-4.6063
X7.0504Y-4.6063
X5.9024Y-2.3622
X6.3024Y-2.3622
X7.3984Y-4.6063
X7.7984Y-4.6063
T2
X6.1024Y-3.1102
X6.8504Y-3.1102
X7.5984Y-3.8583
X6.1024Y-4.6063
X6.8504Y-3.8583
X7.5984Y-3.1102
X6.8504Y-2.3622
X6.8504Y-4.6063
X6.1024Y-2.3622
X7.5984Y-4.6063
X6.1024Y-3.8583
X7.5984Y-2.3622
T0
M30
